<?xml version="1.0" encoding="UTF-8" standalone="no"?>
<!-- Created with Inkscape (http://www.inkscape.org/) -->

<svg
   width="35.311081mm"
   height="21.136946mm"
   viewBox="0 0 35.311081 21.136945"
   version="1.1"
   id="svg1"
   xmlns="http://www.w3.org/2000/svg"
   xmlns:svg="http://www.w3.org/2000/svg">
  <defs
     id="defs1" />
  <path
     class="cls-10"
     d="m 14.347313,8.83479 c -0.661897,-0.38481 -1.267362,-0.75425 -1.898482,-1.0775 -0.11811,-0.0615 -0.35404,0.0256 -0.49772,0.10782 -0.72347,0.40535 -1.44694,0.8107 -2.14475,1.2571 -0.71835,0.46692 -1.48287,0.70809 -2.33463,0.72861 -1.01593,0.0308 -2.02674,0.10259 -3.04269,0.15398 -0.38483,0.0206 -0.72861,0.10782 -1.05699,0.35405 -0.73373,0.55415 -2.14989,0.54901 -2.92467,0.0359 -0.6106,-0.40535 -0.60034,-1.13396 0.0564,-1.51365 0.77479,-0.4464 1.63166,-0.53363 2.41672,-0.12819 0.72861,0.3797 1.44694,0.46181 2.23198,0.38484 0.744,-0.0718 1.49313,-0.12315 2.24225,-0.12819 0.51824,0 0.92359,-0.23089 1.34433,-0.47718 0.8261,-0.49258 1.66246,-0.9749 2.52961,-1.48287 -0.44127,-0.25655 -0.8415,-0.48744 -1.29302,-0.74913 0.2822,-0.18986 0.54389,-0.3489 0.79018,-0.52849 0.58493,-0.41561 1.18013,-0.8415 1.44182,-1.53931 0.12314,-0.32326 0.13846,-0.69269 0.14874,-1.04159 0.006,-0.26682 -0.19498,-0.45154 -0.45152,-0.49771 -0.25655,-0.0411 -0.53876,-0.077 -0.77992,-0.006 -0.16426,0.0514 -0.38996,0.29758 -0.3797,0.44126 0.0617,0.87227 -0.37969,1.47259 -1.03133,1.91386 -0.92358,0.62086 -1.89848,1.16987 -2.85284,1.74968 -0.077,0.0462 -0.15902,0.0873 -0.23603,0.1437 -0.57467,0.40021 -1.14421,0.42073 -1.73428,0.0256 C 4.598291,6.7664 4.269911,6.61248 3.962051,6.43803 3.510531,6.17634 3.017951,6.17634 2.515111,6.19688 c -0.51311,0.0256 -0.98516,-0.082 -1.38538,-0.42589 -0.47206,-0.40535 -0.46179,-0.93384 0.0155,-1.31867 0.78504,-0.63624 2.42697,-0.63112 3.17096,0.0461 0.15902,0.1437 0.17454,0.44128 0.25657,0.66192 0.0667,0.17957 0.0975,0.41047 0.22575,0.52335 0.22063,0.19498 0.49772,0.3284 0.76452,0.45666 0.0975,0.0462 0.26169,0.0462 0.35404,-0.006 C 6.522531,5.80084 7.112601,5.44678 7.774511,5.05683 7.322971,4.79514 6.917621,4.55911 6.512271,4.3231 6.189011,4.12811 5.855501,3.94853 5.542511,3.73304 4.685621,3.14809 4.834421,2.41948 5.573311,1.88587 c 1.22632,-0.88255 2.58603,-1.43156 4.1356,-1.43156 1.51879,0 3.02732,0.0667 4.448602,0.66704 0.51824,0.22063 1.02108,0.53361 1.44696,0.90818 0.76965,0.66704 0.91845,1.70863 0.44639,2.68866 -0.26681,0.55927 -0.59007,1.09291 -0.87739,1.64192 -0.20525,0.38483 -0.12819,0.56441 0.28732,0.69783 0.41563,0.13342 0.92873,-0.0359 1.20579,-0.39509 0.71323,-0.92872 1.27764,-1.91388 1.26224,-3.16584 0.13847,-0.01 0.25655,-0.0308 0.37969,-0.0308 0.73887,0.01 1.47774,0.0308 2.2166,0.0256 0.26169,0 0.53364,-0.0308 0.77993,-0.11286 0.13846,-0.0462 0.32326,-0.22064 0.31812,-0.33352 0,-0.11791 -0.18986,-0.30272 -0.32326,-0.33352 -0.35404,-0.077 -0.72861,-0.10782 -1.09291,-0.12314 -0.66703,-0.0308 -1.33919,-0.0411 -2.00622,-0.0462 -0.32326,0 -0.53364,-0.12819 -0.75427,-0.38483 -0.37969,-0.44127 -0.83635,-0.8107 -1.26736,-1.20065 -0.082,-0.0717 -0.17453,-0.12819 -0.2668,-0.19498 1.02619,-1.19041 6.70111,-0.92872 8.27119,0.38484 -0.22063,0.0462 -0.431,0.0564 -0.60032,0.1437 -0.17958,0.0873 -0.43615,0.24115 -0.4464,0.38483 -0.0256,0.2822 0.26168,0.38995 0.50797,0.41047 0.40021,0.0308 0.80556,0.0359 1.21091,0.0155 1.60088,-0.082 3.15558,0.10782 4.64357,0.71835 1.09804,0.45152 2.08834,1.07238 2.83233,2.02162 0.1437,0.18462 0.25654,0.39508 0.4464,0.6773 -0.30786,-0.0206 -0.50798,-0.0564 -0.70295,-0.0462 -0.22577,0.0155 -0.46178,0.0308 -0.6619,0.11811 -0.2976,0.13342 -0.30786,0.42074 -0.0206,0.5798 0.36943,0.21038 0.75938,0.3797 1.14422,0.55927 0.68755,0.31812 1.30839,0.72347 1.82151,1.28276 0.65163,0.71321 0.88767,1.51879 0.55927,2.45263 -0.0411,0.12315 -0.12315,0.23603 -0.14875,0.28221 -0.84661,-0.23603 -1.63165,-0.5131 -2.44235,-0.66704 -1.40078,-0.26681 -2.77589,-0.01 -4.11508,0.42075 -0.53363,0.17453 -1.07238,0.34377 -1.59574,0.55415 -0.16426,0.0667 -0.27708,0.26169 -0.41049,0.39509 0.1437,0.13342 0.27195,0.34891 0.43613,0.37455 0.28222,0.0461 0.60034,0.0206 0.87741,-0.0564 0.85175,-0.23089 1.68297,-0.55929 2.53986,-0.744 1.21092,-0.26681 2.42183,-0.21036 3.50448,0.48745 1.43155,0.91845 2.47828,2.83233 1.1083,4.68461 -0.55415,0.74401 -1.38537,1.04673 -2.25764,1.21607 -1.45722,0.2822 -2.84772,0.0564 -4.14074,-0.67218 -0.30272,-0.1693 -0.53363,-0.16425 -0.81583,0.0359 -0.3951,0.27195 -0.83122,0.49258 -1.24171,0.74913 -0.27194,0.1693 -0.27706,0.30786 0.006,0.43614 0.2001,0.0873 0.44127,0.13343 0.65676,0.12315 0.63112,-0.0308 1.25198,-0.0359 1.81125,0.2976 0.30274,0.17958 0.57467,0.42075 0.56955,0.8107 -0.006,0.40023 -0.26169,0.65678 -0.61058,0.8107 -0.26169,0.1181 -0.53364,0.23089 -0.81072,0.27708 -0.65164,0.11287 -1.28788,0.0359 -1.87794,-0.29248 -0.44641,-0.25141 -0.54903,-0.4823 -0.52338,-0.98002 0.01,-0.1437 -0.11286,-0.33864 -0.23601,-0.431 -0.27708,-0.20524 -0.60034,-0.33864 -0.88255,-0.5285 -0.27706,-0.18985 -0.2976,-0.40535 -0.0514,-0.54901 1.35973,-0.77992 2.70406,-1.57524 4.09968,-2.29357 0.85176,-0.44126 1.8164,-0.46692 2.77076,-0.41561 0.22577,0.01 0.46692,-0.006 0.67217,-0.0873 0.13344,-0.0514 0.26683,-0.23091 0.29762,-0.36943 0.0155,-0.082 -0.15902,-0.26169 -0.27708,-0.2976 -0.2976,-0.0873 -0.60546,-0.1437 -0.91333,-0.15398 -1.55468,-0.0564 -3.02729,0.26168 -4.38188,1.03135 -0.54389,0.30786 -1.01593,0.42072 -1.51365,-0.0308 -0.46692,-0.42075 -0.88253,-0.25655 -1.34945,0.0462 -0.71321,0.46692 -1.46236,0.87227 -2.19608,1.30327 -0.26169,0.15398 -0.43101,0.35406 -0.46693,0.6773 -0.0717,0.55929 -0.16425,1.11858 -0.26168,1.67273 -0.0411,0.23601 0.0564,0.35403 0.25142,0.46178 0.2309,0.12314 0.46693,0.25655 0.65676,0.431 0.38997,0.35918 0.35918,0.82096 -0.0411,1.16476 -0.76966,0.66701 -2.46803,0.66189 -3.23767,-0.01 -0.40535,-0.35916 -0.40535,-0.90305 0.0206,-1.2571 0.12819,-0.10783 0.28735,-0.18462 0.44641,-0.25141 0.33351,-0.13847 0.49769,-0.35918 0.53361,-0.72861 0.0564,-0.59521 0.18462,-1.18013 0.25656,-1.77534 0.0462,-0.36943 0.24116,-0.61572 0.53876,-0.7953 0.9287,-0.55929 1.85742,-1.1083 2.78615,-1.66759 0.0975,-0.0564 0.18481,-0.12314 0.33351,-0.23089 -0.28734,-0.17453 -0.52337,-0.32325 -0.76452,-0.46178 -0.27709,-0.15902 -0.57469,-0.29248 -0.83636,-0.4772 -0.26682,-0.18985 -0.49257,-0.20009 -0.77992,-0.0308 -1.22118,0.73887 -2.45263,1.4572 -3.68921,2.18069 -0.37456,0.22063 -0.55415,0.57467 -0.70807,0.94924 -0.13343,0.31812 -0.27195,0.63624 -0.38484,0.96462 -0.22063,0.65678 -0.58492,1.19041 -1.22118,1.51365 -0.33864,0.1693 -0.56442,0.37969 -0.46692,0.84149 0.0359,0.17454 -0.14371,0.46178 -0.307867,0.60033 -0.728615,0.63112 -2.237125,0.67217 -3.032425,0.1181 -0.64138,-0.44641 -0.63112,-1.08265 0.0206,-1.50339 0.50284,-0.32326 1.06724,-0.41563 1.65731,-0.36944 0.862015,0.0667 1.564962,-0.39509 1.877972,-1.20578 0.21038,-0.55929 0.42587,-1.11858 0.69782,-1.64708 0.1437,-0.2822 0.38483,-0.55927 0.65163,-0.72347 1.36999,-0.84661 2.76563,-1.65219 4.19205,-2.4988 -0.61572,-0.35403 -1.19552,-0.70807 -1.80099,-1.02621 -0.0975,-0.0514 -0.30786,0.0411 -0.43614,0.11287 -0.94923,0.54389 -1.88821,1.1083 -2.83233,1.65733 -1.847172,1.08264 -3.699462,2.16015 -5.546632,3.24279 -0.28734,0.1693 -0.58494,0.29248 -0.4464,0.76452 0.0514,0.17958 -0.1437,0.51824 -0.32326,0.66704 -0.7799,0.64652 -2.22172,0.65678 -3.05807,0.077 -0.58495,-0.41049 -0.59521,-0.98516 -0.0308,-1.41616 0.43615,-0.33352 0.95438,-0.47206 1.46748,-0.41049 0.68755,0.0873 1.2263,-0.15398 1.78559,-0.48232 2.91441,-1.72402 5.833982,-3.43265 8.743272,-5.16693 0.96464,-0.57467 2.02162,-0.64652 3.09913,-0.68755 1.00055,-0.0411 2.00111,-0.0923 2.99652,-0.21038 1.06212,-0.12314 1.98057,-0.64651 2.88363,-1.19039 0.11811,-0.0718 0.30787,-0.0873 0.43613,-0.0462 0.86715,0.24629 1.74456,0.313 2.63735,0.26169 0.1693,-0.01 0.34891,-0.0462 0.49771,-0.12315 0.11287,-0.0615 0.24116,-0.19497 0.25655,-0.313 0.0155,-0.0873 -0.12839,-0.26681 -0.22064,-0.28221 -0.4464,-0.0873 -0.90818,-0.12314 -1.35459,-0.2001 -0.4618,-0.077 -0.92872,-0.1437 -1.36998,-0.28734 -0.34378,-0.10782 -0.52336,-0.41561 -0.52336,-0.77992 0,-0.33352 0.01,-0.66704 0.0359,-1.00053 0.0308,-0.37458 -0.1181,-0.60035 -0.49258,-0.65678 -0.53875,-0.077 -1.03133,-0.0308 -1.19041,0.76452 -0.10258,0.52336 -0.082,1.03133 0.195,1.49825 0.14874,0.24629 0.082,0.41049 -0.14874,0.57981 -1.04673,0.76452 -2.2474,1.03647 -3.50962,1.07238 -1.10318,0.0308 -2.22686,-0.0717 -3.30439,0.23604 -0.69269,0.20011 -1.35973,0.48231 -2.01648,0.77478 -0.30274,0.13342 -0.55929,0.23089 -0.86715,0.0359 -0.25141,-0.16425 -0.5131,-0.1437 -0.77991,0.0155 -1.180157,0.69267 -2.391062,1.34433 -3.545562,2.07292 -0.72347,0.45666 -1.51877,0.56443 -2.32434,0.68243 -0.92359,0.13847 -1.85229,0.23089 -2.76562,0.42587 -0.45666,0.0975 -0.87741,0.36943 -1.30327,0.58494 -0.0564,0.0308 -0.10259,0.17958 -0.077,0.25655 0.12314,0.40535 -0.0462,0.69269 -0.33866,0.93898 -0.72347,0.62084 -2.43209,0.59519 -3.14018,-0.0462 -0.45667,-0.41562 -0.44127,-0.90306 0.0461,-1.28789 0.46692,-0.36944 1.02107,-0.47719 1.59574,-0.45153 0.48232,0.0206 0.90819,-0.0461 1.33919,-0.31812 0.69783,-0.4464 1.52905,-0.53363 2.33975,-0.64652 1.11344,-0.15397 2.26791,-0.13342 3.30952,-0.62598 0.6619,-0.313 1.28788,-0.70809 1.92412,-1.07238 0.74912,-0.42587 1.49313,-0.86201 2.303832,-1.32893 z"
     id="path121"
     style="fill:#fae36f;fill-opacity:1;stroke:#000000;stroke-width:0.264583;stroke-dasharray:none" />
  <circle
     class="cls-4"
     cx="18.39003"
     cy="10.910629"
     r="0.97366667"
     id="attach-point"
     style="opacity:1;fill:#ed1c24;stroke-width:0.264583" />
</svg>
