<?xml version="1.0" encoding="UTF-8" standalone="no"?>
<!-- Created with Inkscape (http://www.inkscape.org/) -->

<svg
   width="76.684189mm"
   height="59.550385mm"
   viewBox="0 0 76.684189 59.550385"
   version="1.1"
   id="svg1"
   inkscape:version="1.3.2 (091e20e, 2023-11-25)"
   sodipodi:docname="cuboidal-base.svg"
   xmlns:inkscape="http://www.inkscape.org/namespaces/inkscape"
   xmlns:sodipodi="http://sodipodi.sourceforge.net/DTD/sodipodi-0.dtd"
   xmlns="http://www.w3.org/2000/svg"
   xmlns:svg="http://www.w3.org/2000/svg">
  <sodipodi:namedview
     id="namedview1"
     pagecolor="#ffffff"
     bordercolor="#666666"
     borderopacity="1.0"
     inkscape:showpageshadow="2"
     inkscape:pageopacity="0.0"
     inkscape:pagecheckerboard="0"
     inkscape:deskcolor="#d1d1d1"
     inkscape:document-units="mm"
     inkscape:zoom="2.0629484"
     inkscape:cx="148.33139"
     inkscape:cy="108.58246"
     inkscape:window-width="1440"
     inkscape:window-height="847"
     inkscape:window-x="0"
     inkscape:window-y="25"
     inkscape:window-maximized="1"
     inkscape:current-layer="svg1" />
  <defs
     id="defs1" />
  <path
     class="cls-1"
     d="M 33.051748,44.10935 V 59.3864 c -1.19062,0.30956 -2.64054,0.17991 -3.61421,-0.381 L 0.947208,42.55625 C 0.3175,42.19112 0,41.71223 0,41.23333 V 25.95629 c 0,0.4789 0.3175,0.96044 0.947208,1.32292 l 28.49033,16.44914 c 0.97367,0.56092 2.42359,0.69057 3.61421,0.381 z"
     id="path5"
     style="fill:#6666cc;stroke-width:0.264583" />
  <path
     class="cls-2"
     d="m 76.684188,18.31777 v 15.27704 c 0,0.4789 -0.31486,0.95779 -0.94456,1.32292 l -41.7195,24.08767 c -0.2884,0.16404 -0.61648,0.29368 -0.96838,0.381 V 44.10935 c 0.3519,-0.0873 0.67998,-0.21695 0.96838,-0.381 l 41.7195,-24.08766 c 0.6297,-0.36248 0.94456,-0.84138 0.94456,-1.32292 z"
     id="path6"
     style="fill:#080833;stroke-width:0.264583" />
  <path
     class="cls-4"
     d="m 0.944562,24.63338 c -1.259416,0.7276 -1.259416,1.91822 0,2.64583 l 28.490336,16.44914 c 1.25941,0.72761 3.32316,0.72761 4.58258,0 l 41.7195,-24.08766 c 1.25942,-0.72761 1.25942,-1.91823 0,-2.64584 L 47.246648,0.54571 c -1.25942,-0.72761 -3.32317,-0.72761 -4.58259,0 z"
     id="path7"
     style="fill:#a2a2fc;stroke-width:0.264583" />
  <circle
     class="cls-3"
     cx="38.340771"
     cy="22.138338"
     id="attach-top"
     style="fill:#ed1c24;stroke-width:0.264583"
     r="1" />
  <circle
     class="cls-3"
     cx="56.811337"
     cy="38.202534"
     id="attach-front-right"
     style="fill:#ed1c24;stroke-width:0.264583"
     r="1" />
  <circle
     class="cls-3"
     cx="14.141979"
     cy="42.468937"
     id="attach-front-left"
     style="fill:#ed1c24;stroke-width:0.264583"
     r="1" />
  <circle
     class="cls-3"
     cx="39.342091"
     cy="36.723423"
     id="attach-bottom"
     style="fill:#ed1c24;stroke-width:0.264583"
     r="1" />
  <circle
     class="cls-3"
     cx="23.21983"
     cy="19.556078"
     id="attach-back-left"
     style="fill:#ed1c24;stroke-width:0.264583"
     r="1" />
  <circle
     class="cls-3"
     cx="61.819759"
     cy="15.806979"
     id="attach-back-right"
     style="fill:#ed1c24;stroke-width:0.264583"
     r="1" />
  <circle
     class="cls-3"
     cx="25.771786"
     cy="29.775192"
     id="attach-top-left"
     style="fill:#ed1c24;stroke-width:0.264583"
     r="1" />
  <circle
     class="cls-3"
     cx="50.52499"
     cy="15.806979"
     id="attach-top-right"
     style="fill:#ed1c24;stroke-width:0.264583"
     r="1" />
</svg>
