<?xml version="1.0" encoding="UTF-8" standalone="no"?>
<!-- Created with Inkscape (http://www.inkscape.org/) -->

<svg
   width="46.567982mm"
   height="48.854729mm"
   viewBox="0 0 46.567982 48.854729"
   version="1.1"
   id="svg1"
   inkscape:version="1.3.2 (091e20e, 2023-11-25)"
   sodipodi:docname="funnel3D.svg"
   xmlns:inkscape="http://www.inkscape.org/namespaces/inkscape"
   xmlns:sodipodi="http://sodipodi.sourceforge.net/DTD/sodipodi-0.dtd"
   xmlns="http://www.w3.org/2000/svg"
   xmlns:svg="http://www.w3.org/2000/svg">
  <sodipodi:namedview
     id="namedview1"
     pagecolor="#ffffff"
     bordercolor="#666666"
     borderopacity="1.0"
     inkscape:showpageshadow="2"
     inkscape:pageopacity="0.0"
     inkscape:pagecheckerboard="0"
     inkscape:deskcolor="#d1d1d1"
     inkscape:document-units="mm"
     inkscape:zoom="2"
     inkscape:cx="97"
     inkscape:cy="115"
     inkscape:window-width="1440"
     inkscape:window-height="847"
     inkscape:window-x="0"
     inkscape:window-y="25"
     inkscape:window-maximized="1"
     inkscape:current-layer="svg1" />
  <defs
     id="defs1" />
  <path
     id="path107"
     style="fill:#ffffff;stroke:#000000;stroke-width:0.793751;stroke-linecap:square;stroke-linejoin:round;stroke-dasharray:none"
     d="m 39.468126,23.05402 c -8.93825,5.17919 -23.430019,5.17919 -32.368274,0 -8.938255,-5.1792 -8.93826,-13.57633 -5e-6,-18.75552 8.938255,-5.1792 23.430033,-5.1792 32.368279,0 8.93826,5.17919 8.93826,13.57632 0,18.75552 z" />
  <path
     id="path108"
     style="fill:#f3bd5b;fill-opacity:1;stroke:#000000;stroke-width:0.793751;stroke-linecap:square;stroke-linejoin:round;stroke-dasharray:none"
     d="m 1.633257,17.98099 10.529669,25.39664 h 4.71e-4 c 0.478315,1.14355 1.48755,2.22791 3.028501,3.12079 4.469118,2.5896 11.715082,2.5896 16.1842,0 1.546648,-0.89618 2.556988,-1.98528 3.033128,-3.13349 h 0.001 l 10.52359,-25.38247 c -1.09488,1.85273 -2.915,3.59344 -5.46595,5.07156 -8.938245,5.17919 -23.429915,5.17919 -32.36816,0 C 4.548102,21.57552 2.727818,19.83426 1.63303,17.98099 Z" />
  <path
     id="path109"
     style="fill:#000000;stroke:none;stroke-width:0.793751;stroke-linecap:butt;stroke-linejoin:miter;stroke-dasharray:none;stroke-opacity:1"
     d="m 44.934046,17.98246 c -1.09489,1.85272 -2.915,3.59344 -5.46595,5.07156 -2.80658,1.62624 -6.16086,2.74123 -9.718653,3.3462 l -4.908477,21.9381 h 0.401011 c 2.246152,-0.22496 4.399796,-0.83495 6.134136,-1.8399 1.546643,-0.89618 2.556983,-1.98528 3.033123,-3.13349 h 10e-4 z" />
  <path
     id="path110"
     style="fill:#fae36f;fill-opacity:1;stroke:#000000;stroke-width:0.79375;stroke-linecap:square;stroke-linejoin:round;stroke-dasharray:none"
     d="m 36.231296,21.17846 c -7.150599,4.14336 -18.744014,4.14336 -25.894618,0 -7.150604,-4.14335 -7.150607,-10.86106 -4e-6,-15.00441 7.150604,-4.14336 18.744026,-4.14336 25.894622,0 7.15061,4.14335 7.15061,10.86106 0,15.00441 z" />
  <path
     id="path111"
     style="fill:#000000;stroke:none;stroke-width:0.793751;stroke-linecap:butt;stroke-linejoin:miter;stroke-dasharray:none;stroke-opacity:1"
     d="m 12.273643,5.20062 c -0.673981,0.29471 -1.322837,0.61761 -1.936919,0.97343 -7.150594,4.14335 -7.150594,10.86107 0,15.00442 1.780815,1.03188 3.837261,1.80626 6.031937,2.32417 z" />
  <circle
     style="fill:#ff0000;stroke-width:0.529167;stroke-linecap:round;stroke-miterlimit:4.1;stroke-dasharray:none"
     id="attach-back-left"
     cx="4.1923985"
     cy="19.347267"
     r="0.83869553"
     inkscape:label="attach-back-left" />
  <circle
     style="fill:#ff0000;stroke-width:0.529168;stroke-linecap:round;stroke-miterlimit:4.1;stroke-dasharray:none"
     id="attach-back-right"
     cx="43.382439"
     cy="19.354515"
     inkscape:label="attach-back-right"
     r="0.83869553" />
  <circle
     style="fill:#ff0000;stroke-width:0.529167;stroke-linecap:round;stroke-miterlimit:4.1;stroke-dasharray:none"
     id="attach-front-right"
     cx="40.911934"
     cy="40.208366"
     r="0.83869553"
     inkscape:label="attach-front-right" />
  <circle
     style="fill:#ff0000;stroke-width:0.529168;stroke-linecap:round;stroke-miterlimit:4.1;stroke-dasharray:none"
     id="attach-front-left"
     cx="5.6216054"
     cy="40.882942"
     inkscape:label="attach-front-left"
     r="0.83869553" />
  <circle
     style="fill:#ff0000;stroke-width:0.529168;stroke-linecap:round;stroke-miterlimit:4.1;stroke-dasharray:none"
     id="attach-bottom"
     cx="22.955566"
     cy="44.779808"
     inkscape:label="attach-bottom"
     r="0.83869553" />
  <circle
     style="fill:#ff0000;stroke-width:0.529168;stroke-linecap:round;stroke-miterlimit:4.1;stroke-dasharray:none"
     id="attach-top"
     cx="22.875366"
     cy="12.686836"
     inkscape:label="attach-top"
     r="0.83869553" />
</svg>
