<?xml version="1.0" encoding="UTF-8" standalone="no"?>
<!-- Created with Inkscape (http://www.inkscape.org/) -->

<svg
   width="24.635353mm"
   height="16.638056mm"
   viewBox="0 0 24.635353 16.638056"
   version="1.1"
   id="svg1"
   inkscape:version="1.3.2 (091e20e, 2023-11-25)"
   sodipodi:docname="grill-left2D.svg"
   xmlns:inkscape="http://www.inkscape.org/namespaces/inkscape"
   xmlns:sodipodi="http://sodipodi.sourceforge.net/DTD/sodipodi-0.dtd"
   xmlns="http://www.w3.org/2000/svg"
   xmlns:svg="http://www.w3.org/2000/svg">
  <sodipodi:namedview
     id="namedview1"
     pagecolor="#ffffff"
     bordercolor="#666666"
     borderopacity="1.0"
     inkscape:showpageshadow="2"
     inkscape:pageopacity="0.0"
     inkscape:pagecheckerboard="0"
     inkscape:deskcolor="#d1d1d1"
     inkscape:document-units="mm"
     inkscape:zoom="2"
     inkscape:cx="128"
     inkscape:cy="99.5"
     inkscape:window-width="1440"
     inkscape:window-height="847"
     inkscape:window-x="0"
     inkscape:window-y="25"
     inkscape:window-maximized="1"
     inkscape:current-layer="svg1" />
  <defs
     id="defs1" />
  <path
     class="cls-11"
     d="M 3.1798856,1.3821599 C 2.399982,0.93325777 1.76291,1.3004993 1.76291,2.2006 c 0,0.9000663 0.637072,2.0041729 1.4169756,2.4553372 0.7799036,0.4511643 1.4169756,0.081661 1.4169756,-0.8184486 0,-0.9000578 -0.637072,-2.0041644 -1.4169756,-2.4553287 z"
     id="path122"
     style="fill:#dcdcff;stroke-width:0.264583" />
  <path
     class="cls-11"
     d="M 7.7482145,4.0324716 C 6.9683109,3.5835694 6.3312388,3.950811 6.3312388,4.8509117 c 0,0.9000663 0.6370721,2.0041729 1.4169757,2.4553372 0.7799036,0.4511643 1.4169756,0.081575 1.4169756,-0.8184486 0,-0.9000578 -0.637072,-2.0041644 -1.4169756,-2.4553287 z"
     id="path123"
     style="fill:#dcdcff;stroke-width:0.264583" />
  <path
     class="cls-11"
     d="m 12.316543,6.6805125 c -0.779903,-0.4489021 -1.416976,-0.081575 -1.416976,0.8184487 0,0.9000578 0.637073,2.0041644 1.416976,2.455329 0.779904,0.4511638 1.416976,0.081575 1.416976,-0.8184404 0,-0.9000663 -0.637072,-2.004173 -1.416976,-2.4553373 z"
     id="path124"
     style="fill:#dcdcff;stroke-width:0.264583" />
  <path
     class="cls-11"
     d="m 16.88714,9.3308242 c -0.779904,-0.4489021 -1.416976,-0.081575 -1.416976,0.8184398 0,0.900067 0.637072,2.004174 1.416976,2.455338 0.779903,0.451164 1.416975,0.08158 1.416975,-0.818441 0,-0.900066 -0.637072,-2.0041721 -1.416975,-2.4553368 z"
     id="path125"
     style="fill:#dcdcff;stroke-width:0.264583" />
  <path
     class="cls-11"
     d="m 21.455469,11.981136 c -0.779904,-0.448902 -1.416976,-0.08157 -1.416976,0.81844 0,0.900066 0.637072,2.004173 1.416976,2.455337 0.779903,0.451165 1.416975,0.08157 1.416975,-0.818448 0,-0.900058 -0.637072,-2.004165 -1.416975,-2.455329 z"
     id="path126"
     style="fill:#dcdcff;stroke-width:0.264583" />
  <circle
     class="cls-4"
     cx="12.316353"
     cy="9.3754663"
     r="0.97366667"
     id="attach-point"
     style="fill:#ed1c24;stroke-width:0.264583" />
</svg>
