<?xml version="1.0" encoding="UTF-8" standalone="no"?>
<!-- Created with Inkscape (http://www.inkscape.org/) -->

<svg
   width="26.460976mm"
   height="17.163475mm"
   viewBox="0 0 26.460976 17.163475"
   version="1.1"
   id="svg1"
   inkscape:version="1.3.2 (091e20e, 2023-11-25)"
   sodipodi:docname="grill-right2D.svg"
   xmlns:inkscape="http://www.inkscape.org/namespaces/inkscape"
   xmlns:sodipodi="http://sodipodi.sourceforge.net/DTD/sodipodi-0.dtd"
   xmlns="http://www.w3.org/2000/svg"
   xmlns:svg="http://www.w3.org/2000/svg">
  <sodipodi:namedview
     id="namedview1"
     pagecolor="#ffffff"
     bordercolor="#666666"
     borderopacity="1.0"
     inkscape:showpageshadow="2"
     inkscape:pageopacity="0.0"
     inkscape:pagecheckerboard="0"
     inkscape:deskcolor="#d1d1d1"
     inkscape:document-units="mm"
     inkscape:zoom="1.5754911"
     inkscape:cx="-60.298658"
     inkscape:cy="154.87234"
     inkscape:window-width="1440"
     inkscape:window-height="847"
     inkscape:window-x="0"
     inkscape:window-y="25"
     inkscape:window-maximized="1"
     inkscape:current-layer="svg1" />
  <defs
     id="defs1" />
  <path
     class="cls-11"
     d="m 2.8969408,13.52017 c -0.3117175,0.180924 -0.5667596,0.621254 -0.5667596,0.980926 v 0.747686 c 0,0.35968 0.2550421,0.505729 0.5667596,0.32698 L 20.224518,5.5724591 C 20.536235,5.3915355 20.791277,4.9512058 20.791277,4.5915254 V 3.8438397 c 0,-0.3596721 -0.255042,-0.505721 -0.566759,-0.3269724 z"
     id="path1"
     style="fill:#dcdcff;stroke-width:0.264583" />
  <path
     class="cls-11"
     d="M 22.820714,2.0171376 C 22.508991,2.1980612 22.253951,2.638391 22.253951,2.9980631 v 0.7476857 c 0,0.3596721 0.25504,0.505721 0.566763,0.3269807 L 23.564041,3.6432996 C 23.875755,3.4623678 24.130795,3.022038 24.130795,2.6623658 V 1.9146801 c 0,-0.3596721 -0.25504,-0.5057209 -0.566754,-0.3269724 z"
     id="path2"
     style="fill:#dcdcff;stroke-width:0.264583" />
  <circle
     class="cls-4"
     cx="13.432895"
     cy="9.5540743"
     r="0.97366667"
     id="attach-point"
     style="fill:#ed1c24;stroke-width:0.264583" />
</svg>
