<?xml version="1.0" encoding="UTF-8" standalone="no"?>
<!-- Created with Inkscape (http://www.inkscape.org/) -->

<svg
   width="248.78569"
   height="220.69096"
   viewBox="0 0 65.824547 58.39115"
   version="1.1"
   id="svg1"
   xmlns="http://www.w3.org/2000/svg"
   xmlns:svg="http://www.w3.org/2000/svg">
  <defs
     id="defs1" />
  <path
     id="path441"
     style="fill:#f3bd5b;fill-opacity:1;stroke:#000000;stroke-width:0.793748;stroke-linecap:butt;stroke-linejoin:miter;stroke-dasharray:none;stroke-opacity:1"
     d="m 0.396879,39.02952 c 5.4e-5,0.54096 0.288461,1.04079 0.756568,1.31118 L 30.64972,57.38603 c 1.40402,0.81134 3.13384,0.81134 4.53785,0 L 64.68386,40.3407 c 0.57194,-0.33765 0.74008,-1.65562 0.74008,-1.65562 l -0.008,-19.07407 c -0.0736,0.4456 -0.34213,0.83505 -0.73226,1.06201 L 35.1874,37.71834 c -1.40402,0.81135 -3.13383,0.81135 -4.53785,0 L 1.153442,20.67302 C 0.685335,20.40263 0.396928,19.9028 0.396874,19.36184 Z" />
  <path
     style="fill:#fae36f;fill-opacity:1;stroke:#000000;stroke-width:1.60244;stroke-linecap:butt;stroke-linejoin:miter;stroke-dasharray:none;stroke-opacity:1"
     d="m 210.80497,314.85417 59.57532,-34.39584 a 9.1654347,9.1654347 0 0 1 9.16544,0 l 59.57532,34.39584 a 3.0551455,3.0551455 90 0 1 0,5.29166 l -59.57532,34.39584 a 9.1654347,9.1654347 0 0 1 -9.16544,0 l -59.57532,-34.39584 a 3.0551455,3.0551455 90 0 1 0,-5.29166 z"
     id="path442"
     transform="matrix(0.49511031,0,0,0.49556364,-103.2184,-137.97961)" />
  <path
     id="path443"
     style="fill:#000000;stroke:none;stroke-width:0.793748;stroke-linecap:butt;stroke-linejoin:miter;stroke-dasharray:none;stroke-opacity:1"
     d="m 65.41612,19.61101 c -0.0736,0.4456 -0.34213,0.83505 -0.73226,1.06201 L 36.32204,37.06275 V 56.73044 L 64.68386,40.3407 c 0.57194,-0.33764 0.74019,-1.65562 0.74019,-1.65562 z" />
  <path
     style="fill:#ffffff;fill-opacity:1;stroke:none;stroke-width:0.793748;stroke-linecap:butt;stroke-linejoin:miter;stroke-dasharray:none;stroke-opacity:1"
     d="m 5.242221,33.49059 c -0.29667,0.51431 -0.777665,0.51431 -1.074335,-10e-6 -0.29667,-0.51432 -0.29667,-1.3482 0,-1.86251 0.29667,-0.51431 0.777665,-0.51431 1.07433,2e-5 0.29667,0.51431 0.29667,1.34818 5e-6,1.8625 z m 2.417257,1.39688 c -0.29667,0.51432 -0.777664,0.51431 -1.074334,-1e-5 -0.296671,-0.51432 -0.296671,-1.3482 0,-1.86251 0.29667,-0.51431 0.777664,-0.5143 1.07433,2e-5 0.29667,0.51431 0.29667,1.34818 4e-6,1.8625 z m 2.417258,1.39688 c -0.29667,0.51432 -0.777665,0.51431 -1.074335,-1e-5 -0.29667,-0.51432 -0.29667,-1.34819 0,-1.8625 0.29667,-0.51432 0.777665,-0.51431 1.07433,10e-6 0.29667,0.51432 0.29667,1.34819 5e-6,1.8625 z m 2.417257,1.39688 c -0.29667,0.51432 -0.777665,0.51432 -1.074335,0 -0.29667,-0.51433 -0.29667,-1.3482 0,-1.86251 0.29667,-0.51431 0.777665,-0.51431 1.07433,1e-5 0.29667,0.51432 0.29667,1.34819 5e-6,1.8625 z m 2.417257,1.39688 c -0.29667,0.51432 -0.777665,0.51432 -1.074335,0 -0.29667,-0.51432 -0.29667,-1.3482 0,-1.86251 0.29667,-0.51431 0.777665,-0.51431 1.07433,2e-5 0.29667,0.51431 0.29667,1.34818 5e-6,1.86249 z m 2.417258,1.39689 c -0.296671,0.51431 -0.777665,0.51431 -1.074335,-1e-5 -0.29667,-0.51432 -0.29667,-1.3482 0,-1.86251 0.29667,-0.51431 0.777664,-0.5143 1.07433,1e-5 0.29667,0.51432 0.29667,1.34819 5e-6,1.86251 z m 2.417257,1.39688 c -0.29667,0.51432 -0.777665,0.51431 -1.074335,-10e-6 -0.29667,-0.51432 -0.29667,-1.34819 0,-1.86251 0.29667,-0.51431 0.777665,-0.5143 1.07433,2e-5 0.29667,0.51432 0.29667,1.34819 5e-6,1.8625 z m 2.417257,1.39688 c -0.29667,0.51432 -0.777665,0.51432 -1.074335,0 -0.29667,-0.51433 -0.29667,-1.3482 0,-1.86252 0.29667,-0.51431 0.777665,-0.5143 1.07433,2e-5 0.29667,0.51432 0.29667,1.34819 5e-6,1.8625 z m 2.417257,1.39688 c -0.29667,0.51432 -0.777665,0.51432 -1.074335,0 -0.29667,-0.51432 -0.29667,-1.3482 0,-1.86251 0.29667,-0.51431 0.777665,-0.51431 1.07433,10e-6 0.29667,0.51432 0.29667,1.34819 5e-6,1.8625 z m 2.417258,1.39689 c -0.296671,0.51431 -0.777665,0.51431 -1.074335,-1e-5 -0.29667,-0.51432 -0.29667,-1.3482 0,-1.86251 0.29667,-0.51431 0.777664,-0.5143 1.07433,1e-5 0.29667,0.51432 0.29667,1.34819 5e-6,1.86251 z"
     id="path444" />
  <path
     id="path445"
     style="fill:#ffffff;stroke-width:0.793748;stroke-linecap:square;stroke-linejoin:round;stroke-dasharray:none"
     d="m 39.72548,45.84265 v 2.10788 L 57.85913,36.78098 V 34.75802 Z M 59.49565,33.82399 v 2.01353 l 4.05381,-2.33703 v -1.99017 z" />
  <path
     style="fill:#ffffff;fill-opacity:1;stroke:#000000;stroke-width:1.60244;stroke-linecap:butt;stroke-linejoin:miter;stroke-dasharray:none;stroke-opacity:1"
     d="m 210.80497,314.85417 59.57532,-34.39584 a 9.1654347,9.1654347 0 0 1 9.16544,0 l 59.57532,34.39584 a 3.0551455,3.0551455 90 0 1 0,5.29166 l -59.57532,34.39584 a 9.1654347,9.1654347 0 0 1 -9.16544,0 l -59.57532,-34.39584 a 3.0551455,3.0551455 90 0 1 0,-5.29166 z"
     id="path450"
     transform="matrix(0.49511031,0,0,0.49556364,-103.2184,-137.97961)" />
  <circle
     style="fill:#ff0000;stroke-width:0.529167;stroke-linecap:round;stroke-miterlimit:4.1;stroke-dasharray:none"
     id="attach-back-left"
     cx="14.153503"
     cy="17.309624"
     r="0.83869553" />
  <circle
     style="fill:#ff0000;stroke-width:0.529168;stroke-linecap:round;stroke-miterlimit:4.1;stroke-dasharray:none"
     id="attach-back-right"
     cx="53.343536"
     cy="17.316872"
     r="0.83869553" />
  <circle
     style="fill:#ff0000;stroke-width:0.529167;stroke-linecap:round;stroke-miterlimit:4.1;stroke-dasharray:none"
     id="attach-front-right"
     cx="50.873039"
     cy="38.170723"
     r="0.83869553" />
  <circle
     style="fill:#ff0000;stroke-width:0.529168;stroke-linecap:round;stroke-miterlimit:4.1;stroke-dasharray:none"
     id="attach-front-left"
     cx="15.58271"
     cy="38.845299"
     r="0.83869553" />
  <circle
     style="fill:#ff0000;stroke-width:0.529168;stroke-linecap:round;stroke-miterlimit:4.1;stroke-dasharray:none"
     id="attach-bottom"
     cx="32.916672"
     cy="42.742165"
     r="0.83869553" />
  <circle
     style="fill:#ff0000;stroke-width:0.529168;stroke-linecap:round;stroke-miterlimit:4.1;stroke-dasharray:none"
     id="attach-top"
     cx="32.918617"
     cy="19.361839"
     r="0.83869553" />
</svg>
