<?xml version="1.0" encoding="UTF-8" standalone="no"?>
<!-- Created with Inkscape (http://www.inkscape.org/) -->

<svg
   width="13.388945mm"
   height="37.420502mm"
   viewBox="0 0 13.388945 37.420502"
   version="1.1"
   id="svg1"
   inkscape:version="1.3.2 (091e20e, 2023-11-25)"
   sodipodi:docname="spools2D.svg"
   xmlns:inkscape="http://www.inkscape.org/namespaces/inkscape"
   xmlns:sodipodi="http://sodipodi.sourceforge.net/DTD/sodipodi-0.dtd"
   xmlns="http://www.w3.org/2000/svg"
   xmlns:svg="http://www.w3.org/2000/svg">
  <sodipodi:namedview
     id="namedview1"
     pagecolor="#ffffff"
     bordercolor="#666666"
     borderopacity="1.0"
     inkscape:showpageshadow="2"
     inkscape:pageopacity="0.0"
     inkscape:pagecheckerboard="0"
     inkscape:deskcolor="#d1d1d1"
     inkscape:document-units="mm"
     inkscape:zoom="1"
     inkscape:cx="-38"
     inkscape:cy="-10"
     inkscape:window-width="1440"
     inkscape:window-height="847"
     inkscape:window-x="0"
     inkscape:window-y="25"
     inkscape:window-maximized="1"
     inkscape:current-layer="svg1" />
  <defs
     id="defs1" />
  <circle
     style="fill:#ff0000;stroke-width:0.529167;stroke-linecap:round;stroke-miterlimit:4.1;stroke-dasharray:none"
     id="attach-point"
     cx="6.5611682"
     cy="18.620705"
     r="0.83869553"
     inkscape:label="attach-point" />
  <path
     id="path18"
     style="fill:#000000;stroke:#000000;stroke-width:0.396877;stroke-linecap:square;stroke-linejoin:round;stroke-dasharray:none"
     d="m 4.64893,0.1989 c -0.20365,-0.004 -0.40003,0.01 -0.59,0.0386 l -0.001,-0.002 -0.006,0.003 C 2.97464,0.40306 2.79951,0.76132 1.93945,1.30145 L 2.06643,1.48094 C 1.56341,2.19707 1.27398,3.19568 1.27398,4.43963 c 0,3.78908 2.66769,8.39658 5.95831,10.29111 1.01756,0.58585 1.97512,0.84278 2.81306,0.80739 l 0.16305,0.30748 0.33109,-0.21869 10e-4,-10e-4 c 2.03852,-1.17031 2.54573,-1.83254 2.64949,-4.32548 0,-3.78908 -2.66751,-8.39657 -5.95813,-10.29111 C 6.30637,0.47649 5.43008,0.21506 4.64866,0.19873 Z"
     sodipodi:nodetypes="scccccssccccssss" />
  <path
     id="path19"
     style="fill:#fbe269;stroke:#000000;stroke-width:0.396877;stroke-linecap:square;stroke-linejoin:round;stroke-dasharray:none"
     d="M 6.18364,1.71533 C 2.94928,-0.18172 0.2639,1.2964 0.1999,5.06232 0.1352,8.86954 2.76914,13.53366 6.06818,15.43304 9.35029,17.32269 11.99861,15.72886 11.99861,11.91955 11.99862,8.1512 9.40172,3.6028 6.18364,1.71533 Z M 3.301,2.1992 5.29817,6.10531 4.63754,6.37494 2.63725,2.45905 Z M 6.13784,7.15716 C 6.77866,7.53027 7.2936,8.43609 7.28857,9.18215 7.28357,9.9298 6.75839,10.23481 6.11508,9.8616 5.47112,9.48803 4.95473,8.57771 4.96228,7.83015 4.97028,7.08418 5.49638,6.78367 6.13784,7.15716 Z" />
  <path
     id="path20"
     style="fill:#000000;stroke:#000000;stroke-width:0.396877;stroke-linecap:square;stroke-linejoin:round;stroke-dasharray:none"
     d="m 4.64893,21.19328 c -0.20365,-0.004 -0.40003,0.01 -0.59,0.0386 l -0.001,-0.002 -0.006,0.003 C 2.97464,21.39744 2.79951,21.7557 1.93945,22.29583 l 0.12698,0.17949 c -0.50302,0.71613 -0.79245,1.71474 -0.79245,2.95869 0,3.78908 2.66769,8.39658 5.95831,10.29111 1.01756,0.58585 1.97512,0.84278 2.81306,0.80739 l 0.16305,0.30748 0.33109,-0.21869 10e-4,-10e-4 c 2.03852,-1.17031 2.54573,-1.83254 2.64949,-4.32548 0,-3.78908 -2.66751,-8.39657 -5.95813,-10.29111 -0.92548,-0.53284 -1.80177,-0.79427 -2.58319,-0.8106 z"
     sodipodi:nodetypes="scccccssccccssss" />
  <path
     id="path21"
     style="fill:#fbe269;stroke:#000000;stroke-width:0.396877;stroke-linecap:square;stroke-linejoin:round;stroke-dasharray:none"
     d="M 6.18364,22.70971 C 2.94928,20.81266 0.2639,22.29078 0.1999,26.0567 c -0.0647,3.80722 2.56924,8.47134 5.86828,10.37072 3.28211,1.88965 5.93043,0.29582 5.93043,-3.51349 1e-5,-3.76835 -2.59689,-8.31675 -5.81497,-10.20422 z M 3.301,23.19358 5.29817,27.09969 4.63754,27.36932 2.63725,23.45343 Z m 2.83684,4.95796 c 0.64082,0.37311 1.15576,1.27893 1.15073,2.02499 -0.005,0.74765 -0.53018,1.05266 -1.17349,0.67945 -0.64396,-0.37357 -1.16035,-1.28389 -1.1528,-2.03145 0.008,-0.74597 0.5341,-1.04648 1.17556,-0.67299 z" />
</svg>
