<?xml version="1.0" encoding="UTF-8" standalone="no"?>
<!-- Created with Inkscape (http://www.inkscape.org/) -->

<svg
   width="24.447981mm"
   height="24.34852mm"
   viewBox="0 0 24.447981 24.34852"
   version="1.1"
   id="svg1"
   inkscape:version="1.3.2 (091e20e, 2023-11-25)"
   sodipodi:docname="ui-on-screen2D.svg"
   xmlns:inkscape="http://www.inkscape.org/namespaces/inkscape"
   xmlns:sodipodi="http://sodipodi.sourceforge.net/DTD/sodipodi-0.dtd"
   xmlns="http://www.w3.org/2000/svg"
   xmlns:svg="http://www.w3.org/2000/svg">
  <sodipodi:namedview
     id="namedview1"
     pagecolor="#ffffff"
     bordercolor="#666666"
     borderopacity="1.0"
     inkscape:showpageshadow="2"
     inkscape:pageopacity="0.0"
     inkscape:pagecheckerboard="0"
     inkscape:deskcolor="#d1d1d1"
     inkscape:document-units="mm"
     inkscape:zoom="0.2102413"
     inkscape:cx="85.615908"
     inkscape:cy="123.66742"
     inkscape:window-width="1440"
     inkscape:window-height="847"
     inkscape:window-x="0"
     inkscape:window-y="25"
     inkscape:window-maximized="1"
     inkscape:current-layer="svg1" />
  <defs
     id="defs1" />
  <path
     id="path1037"
     style="fill:#000000;fill-opacity:0.25;stroke:none;stroke-width:0.264583;stroke-linecap:round;stroke-dasharray:none"
     d="m 9.346804,2.9372 14.490669,8.36797 c 0.42458,0.24626 0.68932,0.83568 0.58942,1.3157 l -2.35268,11.20792 c -0.0999,0.47203 -0.52198,0.6561 -0.94406,0.41159 L 6.779343,15.93135 C 6.35726,15.68734 6.090025,15.10516 6.184931,14.63063 L 8.402737,3.36627 C 8.497647,2.88375 8.919726,2.69144 9.346804,2.9372 Z" />
  <path
     id="path1038"
     style="fill:#ffffff;stroke:#000000;stroke-width:0.264583;stroke-linecap:round;stroke-dasharray:none"
     d="m 8.987787,2.14536 14.493166,8.36947 c 0.42708,0.2465 0.69182,0.83617 0.59191,1.3167 l -2.35017,11.2179 c -0.0999,0.47253 -0.52198,0.6571 -0.94407,0.41234 L 6.422823,15.15099 C 6.000741,14.90723 5.733505,14.32456 5.828411,13.84953 L 8.046218,2.57518 C 8.141128,2.09216 8.563207,1.8996 8.987787,2.14536 Z" />
  <path
     id="path1039"
     style="fill:#f3bd5b;fill-opacity:1;stroke:#000000;stroke-width:0.264583;stroke-linecap:round;stroke-dasharray:none"
     d="M 8.987787,2.14536 C 8.782989,2.02722 8.568202,2.00649 8.393375,2.08716 8.21605,2.16786 8.091173,2.34341 8.046218,2.57543 l -0.08741,0.43682 16.021655,9.25435 0.0924,-0.43482 c 0.0475,-0.23078 0.0125,-0.49926 -0.0974,-0.74627 -0.10989,-0.247 -0.28721,-0.4523 -0.49451,-0.57068 z" />
  <path
     id="path1040"
     style="fill:#fae36f;fill-opacity:1;stroke:#000000;stroke-width:0.264583;stroke-linecap:round;stroke-dasharray:none"
     d="m 9.389889,5.37341 3.92362,2.26676 c 0.204797,0.11838 0.322181,0.45155 0.26224,0.74726 l -0.536969,2.67136 c -0.05994,0.29421 -0.27223,0.43607 -0.47453,0.31794 L 8.65062,9.11446 C 8.445823,8.99658 8.328439,8.66441 8.385882,8.3697 L 8.915358,5.69435 C 8.975298,5.39839 9.187589,5.25528 9.389889,5.37341 Z" />
  <path
     id="path1041"
     style="fill:#fae36f;stroke:#000000;stroke-width:0.264583;stroke-linecap:round;stroke-dasharray:none"
     d="m 8.183582,11.19566 1.84068,1.06569 c 0.177324,0.1019 0.287216,0.34441 0.247255,0.54321 L 9.889395,14.72741 C 9.849435,14.92572 9.674607,15.00339 9.49978,14.90149 L 7.659101,13.83729 C 7.484274,13.73539 7.374382,13.49363 7.414343,13.29533 l 0.379624,-1.92435 c 0.03996,-0.19905 0.21229,-0.27722 0.389615,-0.17532 z" />
  <path
     id="path1042"
     style="stroke:#000000;stroke-width:0.264583;stroke-linecap:round;stroke-dasharray:none"
     d="m 11.752552,13.26061 1.845675,1.06645 c 0.174827,0.10215 0.284719,0.34441 0.244758,0.54296 l -0.389615,1.92085 c -0.03996,0.19806 -0.214787,0.27523 -0.389614,0.17333 l -1.84068,-1.06495 c -0.174827,-0.1019 -0.284718,-0.34341 -0.244758,-0.54171 l 0.38462,-1.9221 c 0.03996,-0.19905 0.214787,-0.27698 0.389614,-0.17483 z" />
  <path
     id="path1043"
     style="fill:#fae36f;stroke:#000000;stroke-width:0.264583;stroke-linecap:round;stroke-dasharray:none"
     d="m 15.326518,15.32707 1.845675,1.06719 c 0.174827,0.1024 0.284718,0.34441 0.244757,0.54297 l -0.394609,1.91835 c -0.03996,0.1978 -0.214788,0.27498 -0.392112,0.17283 l -1.84068,-1.06545 C 14.612224,17.86081 14.502333,17.6193 14.544791,17.42125 l 0.389615,-1.91985 c 0.03996,-0.19881 0.214787,-0.27648 0.392112,-0.17433 z" />
  <path
     id="path1044"
     style="stroke:#000000;stroke-width:0.264583;stroke-linecap:round;stroke-dasharray:none"
     d="m 18.900483,17.39527 1.84817,1.0677 c 0.17733,0.1024 0.28472,0.34441 0.24476,0.54271 l -0.3996,1.91636 c -0.0425,0.19755 -0.21729,0.27447 -0.39461,0.17233 l -1.84068,-1.06645 c -0.17733,-0.10215 -0.28722,-0.34341 -0.24476,-0.54121 l 0.39461,-1.91786 c 0.04,-0.19855 0.21728,-0.27597 0.39211,-0.17358 z" />
  <path
     style="fill:none;stroke:#000000;stroke-width:0.264583;stroke-linecap:butt;stroke-linejoin:miter;stroke-dasharray:none;stroke-opacity:1"
     d="m 15.626221,9.29229 6.006562,3.46932"
     id="path1045" />
  <path
     style="fill:none;stroke:#000000;stroke-width:0.264583;stroke-linecap:butt;stroke-linejoin:miter;stroke-dasharray:none;stroke-opacity:1"
     d="m 15.473872,10.04654 6.001561,3.46782"
     id="path1046" />
  <path
     style="fill:none;stroke:#000000;stroke-width:0.264583;stroke-linecap:butt;stroke-linejoin:miter;stroke-dasharray:none;stroke-opacity:1"
     d="m 15.321523,10.7998 5.99657,3.46657"
     id="path1047" />
  <path
     style="fill:none;stroke:#000000;stroke-width:0.264583;stroke-linecap:butt;stroke-linejoin:miter;stroke-dasharray:none;stroke-opacity:1"
     d="m 15.169173,11.55255 5.99407,3.46483"
     id="path1048" />
  <path
     style="fill:none;stroke:#000000;stroke-width:0.264583;stroke-linecap:butt;stroke-linejoin:miter;stroke-dasharray:none;stroke-opacity:1"
     d="m 15.016824,12.30431 5.989079,3.46357"
     id="path1049" />
  <path
     id="path1050"
     style="fill:#000000;fill-opacity:0.25;stroke:none;stroke-width:0.264583;stroke-linecap:round;stroke-dasharray:none"
     d="M 8.753019,1.63461 C 5.875864,-0.027 3.183527,0.49074 2.741464,2.78347 2.621583,3.42609 2.689014,4.16561 2.938769,4.94484 L 2.921289,4.91914 0.681005,5.07199 3.950272,6.96237 c 0.809199,1.18433 1.935585,2.23005 3.171863,2.94859 2.862169,1.65511 5.554507,1.1566 6.011555,-1.1214 C 13.593235,6.50408 11.632674,3.29725 8.753022,1.63464 Z" />
  <path
     id="path1051"
     style="fill:#ffffff;stroke:#000000;stroke-width:0.264583;stroke-linecap:round;stroke-dasharray:none"
     d="M 8.513256,1.10613 C 5.633604,-0.55572 2.943764,-0.03674 2.501701,2.25725 2.38182,2.90011 2.449251,3.64013 2.699006,4.41961 l -0.01748,-0.0257 -2.240284,0.1536 3.269267,1.89063 c 0.811697,1.18483 1.935586,2.23079 3.17436,2.94933 2.86217,1.65537 5.554507,1.15586 6.011555,-1.12364 C 13.35597,5.9771 11.392911,2.76902 8.513259,1.10616 Z" />
  <path
     style="fill:none;stroke:#000000;stroke-width:0.264583;stroke-linecap:butt;stroke-linejoin:miter;stroke-dasharray:none;stroke-opacity:1"
     d="m 4.966763,1.85314 5.99657,3.46383"
     id="path1052" />
  <path
     style="fill:none;stroke:#000000;stroke-width:0.264583;stroke-linecap:butt;stroke-linejoin:miter;stroke-dasharray:none;stroke-opacity:1"
     d="m 4.819409,2.61115 5.994072,3.46232"
     id="path1053" />
  <path
     style="fill:none;stroke:#000000;stroke-width:0.264583;stroke-linecap:butt;stroke-linejoin:miter;stroke-dasharray:none;stroke-opacity:1"
     d="m 4.672055,3.3684 5.991574,3.46082"
     id="path1054" />
  <path
     style="fill:none;stroke:#000000;stroke-width:0.264583;stroke-linecap:butt;stroke-linejoin:miter;stroke-dasharray:none;stroke-opacity:1"
     d="M 4.524701,4.1249 10.51128,7.58423"
     id="path1055" />
  <path
     style="fill:none;stroke:#000000;stroke-width:0.264583;stroke-linecap:butt;stroke-linejoin:miter;stroke-dasharray:none;stroke-opacity:1"
     d="m 4.379844,4.8804 5.981584,3.45808"
     id="path1056" />
  <circle
     style="fill:#ff0000;stroke-width:0.529168;stroke-linecap:round;stroke-miterlimit:4.1;stroke-dasharray:none"
     id="attach-point"
     cx="12.824729"
     cy="10.201563"
     inkscape:label="attach-screen"
     r="0.83869553" />
</svg>
