<?xml version="1.0" encoding="UTF-8" standalone="no"?>
<!-- Created with Inkscape (http://www.inkscape.org/) -->

<svg
   width="35.311188mm"
   height="21.13693mm"
   viewBox="0 0 35.311188 21.13693"
   version="1.1"
   id="svg1"
   inkscape:version="1.3.2 (091e20e, 2023-11-25)"
   sodipodi:docname="ai-model2D.svg"
   xmlns:inkscape="http://www.inkscape.org/namespaces/inkscape"
   xmlns:sodipodi="http://sodipodi.sourceforge.net/DTD/sodipodi-0.dtd"
   xmlns="http://www.w3.org/2000/svg"
   xmlns:svg="http://www.w3.org/2000/svg">
  <sodipodi:namedview
     id="namedview1"
     pagecolor="#ffffff"
     bordercolor="#666666"
     borderopacity="1.0"
     inkscape:showpageshadow="2"
     inkscape:pageopacity="0.0"
     inkscape:pagecheckerboard="0"
     inkscape:deskcolor="#d1d1d1"
     inkscape:document-units="mm"
     inkscape:zoom="2.3824049"
     inkscape:cx="67.578774"
     inkscape:cy="73.035446"
     inkscape:window-width="1440"
     inkscape:window-height="847"
     inkscape:window-x="0"
     inkscape:window-y="25"
     inkscape:window-maximized="1"
     inkscape:current-layer="svg1" />
  <defs
     id="defs1" />
  <path
     class="cls-10"
     d="M 14.347307,8.8344001 C 13.68541,8.4495882 13.079947,8.0801548 12.448827,7.7568957 12.330724,7.6954204 12.094791,7.7824942 11.95111,7.8647198 11.227641,8.2700688 10.504172,8.6754177 9.8063597,9.1218212 9.0880104,9.5887424 8.3234869,9.8299116 7.4717344,9.8504293 6.4558022,9.8812643 5.4449898,9.9530173 4.4290382,10.004408 4.0442069,10.024964 3.7004302,10.112232 3.3720514,10.358463 2.6383237,10.912613 1.2221622,10.907474 0.44737988,10.39434 -0.16322282,9.9889912 -0.15296392,9.2603832 0.50381288,8.880691 1.2785953,8.4342874 2.1354675,8.3470585 2.920528,8.7525044 3.649136,9.1321966 4.3674658,9.2143058 5.152507,9.1373357 5.8965129,9.0655827 6.6456385,9.0141912 7.3947642,9.0091491 c 0.5182346,0 0.9235835,-0.230891 1.3443303,-0.47718 C 9.5651904,8.039391 10.401545,7.557072 11.268695,7.0490962 10.827431,6.7925484 10.427202,6.5616574 9.9756785,6.2999705 10.257883,6.1101147 10.51957,5.9510741 10.765859,5.7714771 11.350785,5.3558694 11.94599,4.9299834 12.207677,4.2321712 c 0.123144,-0.323259 0.138465,-0.6926924 0.148743,-1.0415888 0.0058,-0.266826 -0.194976,-0.4515427 -0.451523,-0.497717 -0.256548,-0.041113 -0.538753,-0.07699 -0.779922,-0.00582 -0.164257,0.051391 -0.389951,0.297583 -0.379692,0.4412645 C 10.806952,4.00058 10.365591,4.6009044 9.7139528,5.0421689 8.7903693,5.6630324 7.8154723,6.2120435 6.8611124,6.7918503 6.7841228,6.8380052 6.7020912,6.879118 6.6250822,6.9355512 6.0504145,7.335761 5.4808665,7.3562786 4.8908009,6.9611497 4.5983182,6.7661742 4.2699394,6.6122533 3.9620782,6.4377954 3.510555,6.1761085 3.0179771,6.1761085 2.5151404,6.1966455 2.0020255,6.2222445 1.5299846,6.1146139 1.1297554,5.7707596 0.65769508,5.3654107 0.66797328,4.8369172 1.1452694,4.4520859 1.9303105,3.815846 3.5722433,3.8209657 4.3162298,4.4982408 4.475251,4.6419417 4.4907653,4.9395247 4.5727969,5.1601569 c 0.066711,0.1795776 0.097546,0.4104686 0.225752,0.5233543 0.2206322,0.1949755 0.4977169,0.3283982 0.7645235,0.4566624 0.097546,0.046155 0.2616868,0.046155 0.3540355,-0.00582 C 6.5225714,5.8008356 7.1126371,5.4467807 7.7745531,5.0568297 7.3230105,4.7951429 6.9176616,4.5591127 6.5123126,4.323102 6.1890536,4.1281071 5.8555357,3.9485295 5.5425548,3.7330364 4.6856632,3.1480905 4.8344644,2.4194825 5.5733898,1.8858693 6.7997148,1.003321 8.1594237,0.45430997 9.7089884,0.45430997 c 1.5187886,0 3.0273176,0.066711 4.4485986,0.66703583 0.518235,0.2206322 1.021071,0.5336131 1.446957,0.9081856 0.769644,0.6670358 0.918445,1.7086247 0.446385,2.6886607 -0.266807,0.5592721 -0.590066,1.0929046 -0.87739,1.6419156 -0.205254,0.3848313 -0.128187,0.5644089 0.287324,0.6978316 0.415627,0.1334227 0.928722,-0.035877 1.205788,-0.3950901 0.713229,-0.9287227 1.277638,-1.9138784 1.26224,-3.1658407 0.138465,-0.0097 0.256548,-0.030835 0.379693,-0.030835 0.738867,0.0097 1.477733,0.030835 2.2166,0.025598 0.261687,0 0.533633,-0.030835 0.779922,-0.1128663 0.138464,-0.046155 0.323259,-0.2206322 0.31812,-0.3335179 0,-0.1179084 -0.189856,-0.302722 -0.323259,-0.3335178 C 20.945931,2.6348795 20.571359,2.6040453 20.207064,2.588725 19.540028,2.55789 18.867873,2.547612 18.200837,2.54257 c -0.323259,0 -0.533633,-0.1281866 -0.754265,-0.3848313 -0.379692,-0.4412644 -0.836354,-0.8106978 -1.26736,-1.20064893 -0.08203,-0.071753 -0.174535,-0.1281866 -0.266807,-0.1949755 1.026191,-1.1904095 6.701116,-0.9287226 8.271198,0.38483133 -0.220632,0.046155 -0.431006,0.056433 -0.600325,0.1437009 -0.179577,0.087268 -0.436144,0.2411499 -0.446403,0.3848313 -0.0256,0.2822045 0.261687,0.3899511 0.507976,0.4104687 0.400209,0.030835 0.805558,0.035877 1.210907,0.015514 1.600878,-0.082032 3.155582,0.1078242 4.643575,0.7183492 1.098041,0.4515233 2.088336,1.0723848 2.832323,2.021625 0.1437,0.1846197 0.256547,0.3950707 0.446403,0.6772946 -0.307861,-0.020556 -0.507976,-0.056433 -0.702951,-0.046155 -0.225772,0.015514 -0.461782,0.030835 -0.661897,0.1181023 -0.297602,0.1334227 -0.307861,0.4207468 -0.02056,0.5798068 0.369433,0.2103734 0.759384,0.3796922 1.144215,0.5592698 0.687554,0.31812 1.308396,0.723469 1.821511,1.2827582 0.651638,0.7132101 0.887668,1.5187882 0.55927,2.4526305 -0.04111,0.123145 -0.123145,0.23603 -0.148743,0.282204 -0.846614,-0.23603 -1.631655,-0.513095 -2.442353,-0.667035 -1.400783,-0.2668068 -2.775889,-0.0097 -4.115081,0.420747 -0.533632,0.174535 -1.072384,0.343776 -1.595739,0.55415 -0.164257,0.06671 -0.277085,0.261687 -0.410488,0.39509 0.143701,0.133422 0.271946,0.348916 0.436126,0.374553 0.282223,0.04615 0.600343,0.02056 0.877409,-0.05643 0.851752,-0.230891 1.682968,-0.559289 2.539859,-0.744006 1.210927,-0.266806 2.421835,-0.210354 3.504479,0.487458 1.431559,0.918445 2.478287,2.832323 1.1083,4.68461 -0.55415,0.744006 -1.385366,1.046728 -2.257636,1.216066 -1.457216,0.282204 -2.847721,0.05643 -4.140738,-0.672175 -0.302722,-0.169299 -0.533632,-0.164257 -0.815836,0.03588 -0.395091,0.271945 -0.831216,0.492578 -1.241704,0.749125 -0.271946,0.1693 -0.277065,0.307862 0.0058,0.436145 0.200095,0.08727 0.441264,0.133423 0.656757,0.123145 0.631121,-0.03084 1.251982,-0.03588 1.811252,0.297602 0.302741,0.179578 0.574668,0.420747 0.569548,0.810698 -0.0058,0.400229 -0.261687,0.656777 -0.610583,0.810698 -0.261687,0.118102 -0.533633,0.230891 -0.810718,0.277085 -0.651637,0.112866 -1.287877,0.03588 -1.877943,-0.292483 -0.446404,-0.251409 -0.54903,-0.4823 -0.523374,-0.980017 0.0097,-0.143701 -0.112866,-0.338637 -0.23601,-0.431005 -0.277085,-0.205235 -0.600344,-0.338638 -0.882549,-0.528494 -0.277065,-0.189856 -0.297602,-0.405349 -0.05139,-0.549011 1.359729,-0.779921 2.704059,-1.575241 4.099683,-2.29357 0.851753,-0.441265 1.816391,-0.466922 2.770751,-0.415608 0.225771,0.0097 0.466921,-0.0058 0.672175,-0.08727 0.133443,-0.05139 0.266827,-0.230912 0.297623,-0.369435 0.01551,-0.08203 -0.159021,-0.261687 -0.277085,-0.297603 -0.297602,-0.08727 -0.605463,-0.143701 -0.913324,-0.153979 -1.554685,-0.05643 -3.027299,0.261687 -4.381888,1.03135 -0.543891,0.307861 -1.015932,0.420727 -1.513649,-0.03084 -0.466921,-0.420747 -0.882529,-0.256548 -1.34945,0.04616 -0.71321,0.466921 -1.462355,0.87227 -2.196083,1.303276 -0.261687,0.153979 -0.431006,0.354055 -0.466921,0.677294 -0.07175,0.55929 -0.164257,1.118579 -0.261687,1.672729 -0.04111,0.236011 0.05643,0.354035 0.251428,0.461782 0.230891,0.123144 0.466921,0.256548 0.656758,0.431006 0.38997,0.359174 0.359174,0.820956 -0.04111,1.164752 -0.769663,0.667017 -2.468029,0.661897 -3.237672,-0.0097 -0.405349,-0.359155 -0.405349,-0.903047 0.02056,-1.257101 0.128186,-0.107825 0.287344,-0.18462 0.446404,-0.251409 0.333518,-0.138465 0.497698,-0.359175 0.533613,-0.728608 0.05643,-0.595205 0.18462,-1.180131 0.256567,-1.775336 0.04615,-0.369434 0.24115,-0.615722 0.538753,-0.7953 0.928703,-0.559289 1.857425,-1.1083 2.786148,-1.66759 0.09755,-0.05643 0.184814,-0.123144 0.333518,-0.230891 -0.287347,-0.174531 -0.523377,-0.323255 -0.764527,-0.461778 -0.277084,-0.159021 -0.574687,-0.292482 -0.836354,-0.477199 -0.266826,-0.189856 -0.492578,-0.200095 -0.779922,-0.03083 -1.221186,0.738867 -2.452631,1.457197 -3.689214,2.180685 -0.374553,0.220633 -0.55415,0.574668 -0.708071,0.949241 -0.133423,0.31812 -0.271946,0.63624 -0.384832,0.964618 -0.220632,0.656777 -0.584926,1.19041 -1.221186,1.513649 -0.338637,0.1693 -0.564408,0.379693 -0.466921,0.841494 0.03588,0.174536 -0.143701,0.461782 -0.307861,0.600325 -0.728608,0.63112 -2.237118,0.672174 -3.032418,0.118102 -0.641379,-0.446404 -0.63112,-1.082644 0.02056,-1.50339 0.502837,-0.323259 1.067246,-0.415628 1.657311,-0.369434 0.862012,0.06671 1.564963,-0.39509 1.877963,-1.205788 0.210374,-0.559289 0.425867,-1.118578 0.697813,-1.647072 0.143701,-0.282204 0.384831,-0.55927 0.651638,-0.723469 1.369987,-0.846613 2.765631,-1.652191 4.192051,-2.498805 -0.615722,-0.354035 -1.195529,-0.708071 -1.800993,-1.02621 -0.09755,-0.05139 -0.307861,0.04111 -0.436145,0.112866 -0.949221,0.543892 -1.888202,1.108301 -2.832323,1.657331 -1.847167,1.082644 -3.699453,2.160148 -5.5466204,3.242791 -0.2873435,0.1693 -0.5849459,0.292483 -0.4464035,0.764524 0.051391,0.179578 -0.1437009,0.518235 -0.3232591,0.667036 -0.7799021,0.646518 -2.2217202,0.656777 -3.0580747,0.07699 -0.584946,-0.410488 -0.5952048,-0.985155 -0.030835,-1.416161 0.4361447,-0.333518 0.9543793,-0.47206 1.4674748,-0.410488 0.6875534,0.08727 1.2263056,-0.153979 1.7855948,-0.482319 2.9144131,-1.724024 5.8339651,-3.432648 8.7432581,-5.16693 0.964638,-0.5746676 2.021625,-0.646518 3.099129,-0.6875532 1.000554,-0.041113 2.001108,-0.09231 2.996522,-0.2103734 1.062126,-0.1231445 1.980571,-0.6465182 2.883636,-1.1903901 0.118103,-0.071753 0.307862,-0.087268 0.436126,-0.046155 0.86715,0.246289 1.744559,0.3130003 2.637347,0.2616869 0.1693,-0.0097 0.348916,-0.046155 0.497717,-0.1231445 0.112866,-0.061475 0.24115,-0.1949755 0.256548,-0.3130003 C 30.541639,7.7974267 30.397744,7.6178879 30.305493,7.60249 29.859089,7.5152222 29.397307,7.4793455 28.950903,7.4023948 28.489102,7.3254052 28.022181,7.2586939 27.580916,7.1150512 27.23714,7.0072271 27.057562,6.6994435 27.057562,6.3351297 c 0,-0.3335179 0.0097,-0.6670358 0.03588,-1.0005343 0.03083,-0.3745725 -0.118103,-0.6003438 -0.492578,-0.6567769 -0.538752,-0.076989 -1.03133,-0.030835 -1.19041,0.7645235 -0.102588,0.5233543 -0.08203,1.0313301 0.194995,1.4982513 0.148743,0.2462889 0.08203,0.410488 -0.148743,0.5798068 -1.046731,0.7645236 -2.247399,1.0364692 -3.50962,1.0723847 -1.103181,0.030835 -2.226859,-0.071753 -3.304383,0.2360302 -0.692693,0.2001146 -1.359729,0.482319 -2.016486,0.7747823 -0.302742,0.1334227 -0.559289,0.230891 -0.867151,0.035877 -0.251408,-0.1642573 -0.513095,-0.1437009 -0.779902,0.015514 -1.18015,0.6926727 -2.391058,1.3443307 -3.545552,2.0729187 -0.723469,0.456663 -1.5187689,0.564429 -2.324347,0.682434 -0.9235836,0.138465 -1.8522868,0.230891 -2.7656115,0.425866 -0.4566624,0.09755 -0.8774092,0.369434 -1.3032757,0.584946 -0.056433,0.03083 -0.1025881,0.179578 -0.07699,0.256548 0.1231445,0.405349 -0.046155,0.692693 -0.338657,0.938982 -0.7234689,0.620842 -2.4320936,0.595185 -3.140184,-0.04616 -0.4566623,-0.415627 -0.4412644,-0.903066 0.046155,-1.287898 0.4669211,-0.369433 1.0210712,-0.47718 1.595739,-0.451523 0.4823191,0.02056 0.9081856,-0.04615 1.3391912,-0.31812 0.6978316,-0.446403 1.5290471,-0.533632 2.339745,-0.646518 1.1134397,-0.153979 2.2679143,-0.133423 3.309523,-0.625981 0.661896,-0.313 1.287877,-0.708091 1.924117,-1.072385 0.749126,-0.4258663 1.493132,-0.8620111 2.30383,-1.3289323 z"
     id="path121"
     style="fill:#fcd6fc;stroke-width:0.264582" />
  <circle
     class="cls-4"
     cx="17.582207"
     cy="7.3207211"
     r="0.97366667"
     id="attach-point"
     style="fill:#ed1c24;stroke-width:0.264583" />
</svg>
