<?xml version="1.0" encoding="UTF-8" standalone="no"?>
<!-- Created with Inkscape (http://www.inkscape.org/) -->

<svg
   width="32.599312mm"
   height="37.471931mm"
   viewBox="0 0 32.599312 37.471931"
   version="1.1"
   id="svg1"
   inkscape:version="1.3.2 (091e20e, 2023-11-25)"
   sodipodi:docname="bits-on-screen2D.svg"
   xmlns:inkscape="http://www.inkscape.org/namespaces/inkscape"
   xmlns:sodipodi="http://sodipodi.sourceforge.net/DTD/sodipodi-0.dtd"
   xmlns="http://www.w3.org/2000/svg"
   xmlns:svg="http://www.w3.org/2000/svg">
  <sodipodi:namedview
     id="namedview1"
     pagecolor="#ffffff"
     bordercolor="#666666"
     borderopacity="1.0"
     inkscape:showpageshadow="2"
     inkscape:pageopacity="0.0"
     inkscape:pagecheckerboard="0"
     inkscape:deskcolor="#d1d1d1"
     inkscape:document-units="mm"
     inkscape:zoom="2.2600196"
     inkscape:cx="57.079151"
     inkscape:cy="155.75086"
     inkscape:window-width="1440"
     inkscape:window-height="847"
     inkscape:window-x="0"
     inkscape:window-y="25"
     inkscape:window-maximized="1"
     inkscape:current-layer="svg1" />
  <defs
     id="defs1" />
  <g
     id="g120"
     transform="matrix(0.26458333,0,0,0.26458333,-115.15725,-12.595939)">
    <path
       class="cls-1"
       d="m 437.65,116.37 -1.63,1.96 0.2,0.78 1.29,-1.57 h 0.03 c 0,0 0,7.53 0,7.53 l 0.97,-0.56 v -8.64 l -0.87,0.5 z"
       id="path16"
       style="fill:#6666cc" />
    <path
       class="cls-1"
       d="m 443.76,112.72 c -1.52,0.87 -2.6,3.09 -2.6,5.98 0.02,2.84 1,3.86 2.47,3.01 1.66,-0.96 2.6,-3.12 2.6,-6.06 0,-2.75 -0.9,-3.85 -2.47,-2.94 z m -0.08,8.06 c -0.91,0.53 -1.52,-0.4 -1.52,-2.65 0,-2.25 0.65,-3.97 1.54,-4.49 1.05,-0.61 1.52,0.52 1.52,2.65 0,2.13 -0.5,3.88 -1.54,4.49 z"
       id="path17"
       style="fill:#6666cc" />
    <path
       class="cls-1"
       d="m 449.48,109.55 -1.64,1.95 0.2,0.78 1.31,-1.55 h 0.02 c 0,0 0,7.53 0,7.53 l 0.97,-0.56 v -8.64 l -0.85,0.5 z"
       id="path18"
       style="fill:#6666cc" />
    <path
       class="cls-1"
       d="m 455.56,105.88 c -1.52,0.88 -2.6,3.1 -2.6,6 0.01,2.85 1.02,3.86 2.48,3.01 1.66,-0.96 2.6,-3.12 2.6,-6.06 0,-2.75 -0.9,-3.86 -2.48,-2.95 z m -0.07,8.08 c -0.91,0.53 -1.51,-0.41 -1.51,-2.65 0,-2.36 0.64,-3.97 1.52,-4.49 1.05,-0.61 1.52,0.52 1.52,2.65 0,2.13 -0.5,3.88 -1.54,4.49 z"
       id="path19"
       style="fill:#6666cc" />
    <path
       class="cls-1"
       d="m 461.28,102.73 -1.63,1.95 0.18,0.78 1.31,-1.55 h 0.02 c 0,0 0,7.53 0,7.53 l 0.99,-0.56 v -8.64 l -0.87,0.5 z"
       id="path20"
       style="fill:#6666cc" />
    <path
       class="cls-1"
       d="m 467.37,99.07 c -1.52,0.88 -2.6,3.1 -2.6,6 0.03,2.84 1.02,3.85 2.48,3.01 1.66,-0.96 2.6,-3.12 2.6,-6.06 0,-2.75 -0.9,-3.86 -2.48,-2.95 z m -0.06,8.06 c -0.93,0.53 -1.52,-0.4 -1.52,-2.65 0,-2.25 0.64,-3.97 1.52,-4.47 1.05,-0.61 1.52,0.52 1.52,2.65 0,2.13 -0.49,3.88 -1.52,4.47 z"
       id="path21"
       style="fill:#6666cc" />
    <path
       class="cls-1"
       d="m 473.27,95.66 c -1.51,0.88 -2.6,3.1 -2.6,6 0.03,2.85 1.02,3.85 2.48,3.01 1.66,-0.96 2.6,-3.12 2.6,-6.07 0,-2.74 -0.9,-3.85 -2.48,-2.94 z m -0.06,8.06 c -0.93,0.53 -1.52,-0.4 -1.52,-2.65 0,-2.25 0.64,-3.97 1.54,-4.47 1.05,-0.61 1.52,0.52 1.52,2.63 0,2.11 -0.5,3.9 -1.54,4.49 z"
       id="path22"
       style="fill:#6666cc" />
    <path
       class="cls-1"
       d="m 479.19,92.25 c -1.52,0.88 -2.6,3.09 -2.6,6 0.02,2.84 1,3.85 2.47,3.01 1.66,-0.96 2.6,-3.13 2.6,-6.07 0,-2.74 -0.9,-3.85 -2.47,-2.94 z m -0.07,8.06 c -0.91,0.53 -1.52,-0.4 -1.52,-2.65 0,-2.25 0.65,-3.97 1.54,-4.49 1.05,-0.59 1.52,0.53 1.52,2.65 0,2.12 -0.5,3.9 -1.54,4.49 z"
       id="path23"
       style="fill:#6666cc" />
    <path
       class="cls-1"
       d="m 484.92,89.08 -1.64,1.96 0.2,0.78 1.31,-1.57 0.02,-0.02 v 7.56 l 0.97,-0.58 v -8.63 l -0.85,0.49 z"
       id="path24"
       style="fill:#6666cc" />
    <path
       class="cls-1"
       d="m 491,85.43 c -1.52,0.87 -2.6,3.09 -2.6,5.99 0.03,2.85 1.02,3.85 2.48,3 1.66,-0.94 2.6,-3.12 2.6,-6.06 0,-2.75 -0.9,-3.85 -2.48,-2.94 z m -0.07,8.07 c -0.91,0.53 -1.51,-0.4 -1.51,-2.65 0,-2.25 0.64,-3.97 1.52,-4.49 1.05,-0.61 1.52,0.52 1.52,2.65 0,2.13 -0.49,3.9 -1.54,4.49 z"
       id="path25"
       style="fill:#6666cc" />
    <path
       class="cls-1"
       d="m 496.72,82.27 -1.63,1.96 0.18,0.78 1.31,-1.57 h 0.02 c 0,0 0.02,7.53 0.02,7.53 l 0.97,-0.56 v -8.64 z"
       id="path26"
       style="fill:#6666cc" />
    <path
       class="cls-1"
       d="m 502.81,78.6 c -1.52,0.88 -2.6,3.1 -2.6,6 0.03,2.85 1.02,3.86 2.48,3.01 1.66,-0.96 2.6,-3.12 2.6,-6.06 0,-2.75 -0.9,-3.85 -2.48,-2.95 z m -0.06,8.08 c -0.93,0.53 -1.52,-0.41 -1.52,-2.65 0,-2.36 0.64,-3.97 1.54,-4.49 1.03,-0.61 1.51,0.52 1.51,2.65 0,2.13 -0.49,3.88 -1.52,4.49 z"
       id="path27"
       style="fill:#6666cc" />
    <path
       class="cls-1"
       d="m 508.53,75.45 -1.63,1.95 0.2,0.78 1.29,-1.55 0.03,-0.02 v 7.55 l 0.97,-0.56 v -8.64 l -0.87,0.5 z"
       id="path28"
       style="fill:#6666cc" />
    <path
       class="cls-1"
       d="m 514.63,71.78 c -1.52,0.88 -2.6,3.1 -2.6,6 0.02,2.85 1,3.86 2.47,3.01 1.66,-0.96 2.6,-3.12 2.6,-6.06 0,-2.75 -0.9,-3.86 -2.47,-2.95 z m -0.07,8.07 c -0.91,0.53 -1.52,-0.4 -1.52,-2.63 0,-2.36 0.65,-3.99 1.54,-4.49 1.05,-0.61 1.52,0.52 1.52,2.65 0,2.13 -0.5,3.88 -1.54,4.47 z"
       id="path29"
       style="fill:#6666cc" />
    <path
       class="cls-1"
       d="m 520.54,68.38 c -1.52,0.88 -2.6,3.1 -2.6,6 0.02,2.85 1,3.85 2.48,3.01 1.66,-0.96 2.6,-3.12 2.6,-6.06 0,-2.75 -0.9,-3.86 -2.48,-2.95 z m -0.08,8.06 c -0.91,0.53 -1.52,-0.4 -1.52,-2.63 0,-2.36 0.65,-3.99 1.54,-4.49 1.05,-0.61 1.52,0.52 1.52,2.65 0,2.13 -0.5,3.88 -1.54,4.47 z"
       id="path30"
       style="fill:#6666cc" />
    <path
       class="cls-1"
       d="m 526.44,64.97 c -1.52,0.88 -2.6,3.1 -2.6,6 0.03,2.85 1.02,3.85 2.48,3.01 1.66,-0.96 2.6,-3.12 2.6,-6.06 0,-2.75 -0.9,-3.86 -2.48,-2.95 z m -0.08,8.06 c -0.91,0.53 -1.51,-0.4 -1.51,-2.65 0,-2.25 0.64,-3.97 1.52,-4.47 1.05,-0.61 1.52,0.52 1.52,2.63 0,2.11 -0.49,3.9 -1.54,4.49 z"
       id="path31"
       style="fill:#6666cc" />
    <path
       class="cls-1"
       d="m 532.16,61.8 -1.63,1.96 0.2,0.78 1.29,-1.57 h 0.03 v 7.55 l 0.97,-0.56 v -8.64 l -0.87,0.49 z"
       id="path32"
       style="fill:#6666cc" />
    <path
       class="cls-1"
       d="m 538.25,58.15 c -1.51,0.87 -2.6,3.09 -2.6,6 0.03,2.85 1.02,3.85 2.48,3.01 1.66,-0.96 2.6,-3.13 2.6,-6.07 0,-2.75 -0.9,-3.85 -2.48,-2.94 z m -0.06,8.06 c -0.93,0.53 -1.52,-0.4 -1.52,-2.65 0,-2.25 0.64,-3.97 1.54,-4.49 1.03,-0.59 1.51,0.52 1.51,2.65 0,2.13 -0.49,3.89 -1.52,4.49 z"
       id="path33"
       style="fill:#6666cc" />
    <path
       class="cls-1"
       d="m 543.97,54.99 -1.63,1.96 0.2,0.78 1.29,-1.57 h 0.03 c 0,0 0,7.53 0,7.53 l 0.97,-0.56 V 54.5 l -0.87,0.49 z"
       id="path34"
       style="fill:#6666cc" />
    <path
       class="cls-1"
       d="m 549.89,51.58 -1.64,1.96 0.2,0.78 1.31,-1.57 h 0.02 c 0,0 0,7.53 0,7.53 l 0.97,-0.56 v -8.64 l -0.85,0.5 z"
       id="path35"
       style="fill:#6666cc" />
    <path
       class="cls-1"
       d="m 555.97,47.93 c -1.52,0.87 -2.6,3.09 -2.6,5.98 0.02,2.85 1,3.86 2.48,3.01 1.66,-0.96 2.6,-3.12 2.6,-6.06 0,-2.75 -0.9,-3.85 -2.48,-2.94 z m -0.07,8.06 c -0.91,0.53 -1.52,-0.4 -1.52,-2.65 0,-2.25 0.65,-3.97 1.54,-4.49 1.05,-0.61 1.52,0.52 1.52,2.65 0,2.13 -0.5,3.88 -1.54,4.49 z"
       id="path36"
       style="fill:#6666cc" />
    <path
       class="cls-1"
       d="m 437.84,132.07 c -1.51,0.88 -2.6,3.1 -2.6,6 0.03,2.85 1.02,3.85 2.48,3.01 1.66,-0.96 2.6,-3.12 2.6,-6.06 0,-2.75 -0.9,-3.86 -2.48,-2.95 z m -0.06,8.06 c -0.93,0.53 -1.52,-0.4 -1.52,-2.63 0,-2.36 0.64,-3.99 1.54,-4.49 1.03,-0.61 1.52,0.52 1.52,2.65 0,2.13 -0.5,3.88 -1.54,4.47 z"
       id="path37"
       style="fill:#6666cc" />
    <path
       class="cls-1"
       d="m 443.57,128.92 -1.64,1.95 0.2,0.78 1.29,-1.57 h 0.03 v 7.55 l 0.97,-0.56 v -8.64 l -0.85,0.5 z"
       id="path38"
       style="fill:#6666cc" />
    <path
       class="cls-1"
       d="m 449.66,125.25 c -1.52,0.88 -2.6,3.09 -2.6,6 0.02,2.84 1,3.85 2.46,3.01 1.66,-0.96 2.6,-3.13 2.6,-6.07 0,-2.74 -0.9,-3.85 -2.46,-2.94 z m -0.08,8.07 c -0.91,0.53 -1.52,-0.4 -1.52,-2.65 0,-2.25 0.65,-3.97 1.54,-4.49 1.05,-0.59 1.52,0.53 1.52,2.65 0,2.12 -0.5,3.9 -1.54,4.49 z"
       id="path39"
       style="fill:#6666cc" />
    <path
       class="cls-1"
       d="m 455.38,122.09 -1.64,1.96 0.2,0.78 1.31,-1.57 v -0.02 c 0,0 0.01,7.56 0.01,7.56 l 0.99,-0.58 v -8.63 l -0.87,0.49 z"
       id="path40"
       style="fill:#6666cc" />
    <path
       class="cls-1"
       d="m 461.47,118.44 c -1.52,0.87 -2.6,3.09 -2.6,6 0.03,2.85 1.02,3.85 2.48,3.01 1.66,-0.96 2.6,-3.13 2.6,-6.07 0,-2.75 -0.9,-3.85 -2.48,-2.94 z m -0.06,8.06 c -0.93,0.53 -1.52,-0.4 -1.52,-2.65 0,-2.25 0.64,-3.97 1.52,-4.49 1.05,-0.59 1.52,0.52 1.52,2.65 0,2.13 -0.49,3.9 -1.52,4.49 z"
       id="path41"
       style="fill:#6666cc" />
    <path
       class="cls-1"
       d="m 467.19,115.27 -1.63,1.96 0.2,0.78 1.29,-1.57 0.03,-0.02 v 7.55 l 0.97,-0.56 v -8.64 l -0.87,0.5 z"
       id="path42"
       style="fill:#6666cc" />
    <path
       class="cls-1"
       d="m 473.27,111.62 c -1.51,0.87 -2.6,3.09 -2.6,5.98 0.03,2.85 1.02,3.86 2.48,3.01 1.66,-0.96 2.6,-3.12 2.6,-6.06 0,-2.75 -0.9,-3.85 -2.48,-2.94 z m -0.06,8.06 c -0.93,0.53 -1.52,-0.4 -1.52,-2.65 0,-2.25 0.64,-3.97 1.54,-4.49 1.05,-0.61 1.52,0.52 1.52,2.65 0,2.13 -0.5,3.88 -1.54,4.49 z"
       id="path43"
       style="fill:#6666cc" />
    <path
       class="cls-1"
       d="m 479.01,108.45 -1.64,1.95 0.2,0.78 1.29,-1.55 0.03,-0.02 v 7.55 l 0.97,-0.56 v -8.64 l -0.85,0.5 z"
       id="path44"
       style="fill:#6666cc" />
    <path
       class="cls-1"
       d="m 485.1,104.79 c -1.52,0.88 -2.6,3.1 -2.6,6 0.02,2.85 1,3.86 2.46,3.01 1.66,-0.96 2.6,-3.12 2.6,-6.06 0,-2.75 -0.9,-3.86 -2.46,-2.95 z m -0.08,8.08 c -0.91,0.52 -1.52,-0.41 -1.52,-2.65 0,-2.36 0.65,-3.97 1.54,-4.49 1.05,-0.61 1.52,0.52 1.52,2.65 0,2.13 -0.5,3.88 -1.54,4.49 z"
       id="path45"
       style="fill:#6666cc" />
    <path
       class="cls-1"
       d="m 490.82,101.64 -1.63,1.95 0.18,0.78 1.31,-1.55 0.02,-0.02 v 7.55 l 0.99,-0.56 v -8.64 l -0.87,0.5 z"
       id="path46"
       style="fill:#6666cc" />
    <path
       class="cls-1"
       d="m 496.91,97.97 c -1.52,0.88 -2.6,3.1 -2.6,6 0.03,2.85 1.02,3.85 2.48,3.01 1.66,-0.96 2.6,-3.12 2.6,-6.06 0,-2.75 -0.9,-3.86 -2.48,-2.95 z m -0.07,8.06 c -0.93,0.53 -1.52,-0.4 -1.52,-2.65 0,-2.25 0.64,-3.97 1.52,-4.47 1.05,-0.61 1.52,0.52 1.52,2.63 0,2.11 -0.49,3.9 -1.52,4.49 z"
       id="path47"
       style="fill:#6666cc" />
    <path
       class="cls-1"
       d="m 502.63,94.82 -1.63,1.95 0.2,0.78 1.29,-1.57 h 0.03 v 7.55 l 0.97,-0.56 v -8.64 l -0.87,0.5 z"
       id="path48"
       style="fill:#6666cc" />
    <path
       class="cls-1"
       d="m 508.73,91.15 c -1.52,0.88 -2.6,3.09 -2.6,6 0.01,2.85 1,3.85 2.46,3.01 1.66,-0.96 2.6,-3.13 2.6,-6.07 0,-2.74 -0.9,-3.85 -2.46,-2.94 z m -0.08,8.07 c -0.93,0.53 -1.52,-0.4 -1.52,-2.65 0,-2.25 0.64,-3.97 1.54,-4.49 1.05,-0.59 1.52,0.52 1.52,2.65 0,2.13 -0.5,3.9 -1.54,4.49 z"
       id="path49"
       style="fill:#6666cc" />
    <path
       class="cls-1"
       d="m 514.63,87.75 c -1.52,0.87 -2.6,3.09 -2.6,6 0.02,2.84 1,3.85 2.47,3.01 1.66,-0.96 2.6,-3.13 2.6,-6.07 0,-2.75 -0.9,-3.85 -2.47,-2.94 z m -0.07,8.06 c -0.91,0.53 -1.52,-0.4 -1.52,-2.65 0,-2.25 0.65,-3.97 1.54,-4.49 1.05,-0.59 1.52,0.52 1.52,2.65 0,2.13 -0.5,3.9 -1.54,4.49 z"
       id="path50"
       style="fill:#6666cc" />
    <path
       class="cls-1"
       d="m 520.35,84.58 -1.64,1.96 0.2,0.78 1.31,-1.57 0.02,-0.02 v 7.55 l 0.99,-0.56 v -8.64 l -0.87,0.5 z"
       id="path51"
       style="fill:#6666cc" />
    <path
       class="cls-1"
       d="m 526.44,80.93 c -1.52,0.87 -2.6,3.09 -2.6,5.98 0.03,2.85 1.02,3.86 2.48,3.01 1.66,-0.96 2.6,-3.12 2.6,-6.06 0,-2.75 -0.9,-3.85 -2.48,-2.94 z m -0.06,8.06 c -0.93,0.53 -1.52,-0.4 -1.52,-2.65 0,-2.25 0.64,-3.97 1.52,-4.49 1.05,-0.61 1.52,0.52 1.52,2.65 0,2.13 -0.49,3.88 -1.52,4.49 z"
       id="path52"
       style="fill:#6666cc" />
    <path
       class="cls-1"
       d="m 532.16,77.76 -1.63,1.95 0.2,0.79 1.29,-1.57 h 0.03 c 0,0 0,7.53 0,7.53 l 0.97,-0.56 v -8.64 l -0.87,0.5 z"
       id="path53"
       style="fill:#6666cc" />
    <path
       class="cls-1"
       d="m 538.25,74.1 c -1.51,0.88 -2.6,3.1 -2.6,6 0.03,2.85 1.02,3.86 2.48,3.01 1.66,-0.96 2.6,-3.12 2.6,-6.06 0,-2.75 -0.9,-3.86 -2.48,-2.95 z m -0.06,8.08 c -0.93,0.53 -1.52,-0.41 -1.52,-2.65 0,-2.36 0.64,-3.97 1.54,-4.49 1.03,-0.61 1.51,0.52 1.51,2.65 0,2.13 -0.49,3.88 -1.52,4.49 z"
       id="path54"
       style="fill:#6666cc" />
    <path
       class="cls-1"
       d="m 543.97,70.95 -1.63,1.95 0.2,0.78 1.29,-1.55 0.03,-0.02 v 7.55 l 0.97,-0.56 v -8.64 l -0.87,0.5 z"
       id="path55"
       style="fill:#6666cc" />
    <path
       class="cls-1"
       d="m 550.07,67.28 c -1.52,0.88 -2.6,3.1 -2.6,6 0.02,2.85 1,3.85 2.47,3.01 1.66,-0.96 2.6,-3.12 2.6,-6.06 0,-2.75 -0.9,-3.86 -2.47,-2.95 z m -0.08,8.06 c -0.91,0.53 -1.52,-0.4 -1.52,-2.63 0,-2.36 0.65,-3.99 1.54,-4.49 1.05,-0.61 1.52,0.52 1.52,2.65 0,2.13 -0.5,3.88 -1.54,4.47 z"
       id="path56"
       style="fill:#6666cc" />
    <path
       class="cls-1"
       d="m 555.79,64.13 -1.64,1.95 0.2,0.78 1.31,-1.57 h 0.02 v 7.55 l 0.99,-0.56 v -8.64 l -0.87,0.5 z"
       id="path57"
       style="fill:#6666cc" />
    <path
       class="cls-1"
       d="m 437.65,148.27 -1.63,1.96 0.2,0.78 1.29,-1.57 0.03,-0.02 v 7.55 l 0.97,-0.56 v -8.64 l -0.87,0.5 z"
       id="path58"
       style="fill:#6666cc" />
    <path
       class="cls-1"
       d="m 443.76,144.62 c -1.52,0.87 -2.6,3.09 -2.6,6 0.02,2.83 1,3.85 2.47,3 1.66,-0.96 2.6,-3.12 2.6,-6.06 0,-2.75 -0.9,-3.85 -2.47,-2.94 z m -0.08,8.07 c -0.91,0.53 -1.52,-0.4 -1.52,-2.65 0,-2.25 0.65,-3.97 1.54,-4.49 1.05,-0.61 1.52,0.52 1.52,2.65 0,2.13 -0.5,3.88 -1.54,4.49 z"
       id="path59"
       style="fill:#6666cc" />
    <path
       class="cls-1"
       d="m 449.48,141.46 -1.64,1.95 0.2,0.79 1.31,-1.57 0.02,-0.02 v 7.55 l 0.97,-0.56 v -8.64 l -0.85,0.5 z"
       id="path60"
       style="fill:#6666cc" />
    <path
       class="cls-1"
       d="m 455.56,137.79 c -1.52,0.88 -2.6,3.1 -2.6,6 0.01,2.85 1.02,3.86 2.48,3.01 1.66,-0.96 2.6,-3.12 2.6,-6.06 0,-2.75 -0.9,-3.86 -2.48,-2.95 z m -0.07,8.08 c -0.91,0.53 -1.51,-0.41 -1.51,-2.65 0,-2.36 0.64,-3.97 1.52,-4.49 1.05,-0.61 1.52,0.52 1.52,2.65 0,2.13 -0.49,3.88 -1.54,4.49 z"
       id="path61"
       style="fill:#6666cc" />
    <path
       class="cls-1"
       d="m 461.47,134.38 c -1.52,0.88 -2.6,3.1 -2.6,6 0.03,2.84 1.02,3.86 2.48,3.01 1.66,-0.96 2.6,-3.12 2.6,-6.06 0,-2.75 -0.9,-3.86 -2.48,-2.95 z m -0.06,8.07 c -0.93,0.53 -1.52,-0.4 -1.52,-2.63 0,-2.36 0.64,-3.99 1.52,-4.49 1.05,-0.61 1.52,0.52 1.52,2.65 0,2.13 -0.49,3.88 -1.52,4.47 z"
       id="path62"
       style="fill:#6666cc" />
    <path
       class="cls-1"
       d="m 467.19,131.23 -1.63,1.95 0.2,0.78 1.29,-1.55 h 0.03 c 0,0 0,7.53 0,7.53 l 0.97,-0.56 v -8.64 l -0.87,0.5 z"
       id="path63"
       style="fill:#6666cc" />
    <path
       class="cls-1"
       d="m 473.27,127.57 c -1.51,0.88 -2.6,3.1 -2.59,6 0.02,2.85 1,3.85 2.46,3.01 1.66,-0.96 2.6,-3.12 2.6,-6.07 0,-2.74 -0.9,-3.85 -2.48,-2.94 z m -0.06,8.06 c -0.93,0.53 -1.52,-0.4 -1.52,-2.65 0,-2.25 0.64,-3.97 1.54,-4.47 1.05,-0.61 1.52,0.52 1.52,2.63 0,2.11 -0.5,3.9 -1.54,4.49 z"
       id="path64"
       style="fill:#6666cc" />
    <path
       class="cls-1"
       d="m 479.01,124.4 -1.64,1.96 0.2,0.78 1.29,-1.57 h 0.03 v 7.55 l 0.97,-0.56 v -8.64 l -0.85,0.49 z"
       id="path65"
       style="fill:#6666cc" />
    <path
       class="cls-1"
       d="m 485.1,120.75 c -1.52,0.87 -2.6,3.09 -2.6,6 0.02,2.84 1,3.85 2.46,3.01 1.66,-0.96 2.6,-3.13 2.6,-6.07 0,-2.75 -0.9,-3.85 -2.46,-2.94 z m -0.08,8.06 c -0.91,0.53 -1.52,-0.4 -1.52,-2.65 0,-2.25 0.65,-3.97 1.54,-4.49 1.05,-0.59 1.52,0.52 1.52,2.65 0,2.13 -0.5,3.9 -1.54,4.49 z"
       id="path66"
       style="fill:#6666cc" />
    <path
       class="cls-1"
       d="m 490.82,117.58 -1.63,1.96 0.18,0.78 1.31,-1.57 0.02,-0.02 v 7.55 l 0.99,-0.56 v -8.63 z"
       id="path67"
       style="fill:#6666cc" />
    <path
       class="cls-1"
       d="m 496.91,113.93 c -1.52,0.87 -2.6,3.09 -2.6,6 0.03,2.83 1.02,3.85 2.48,3 1.66,-0.96 2.6,-3.12 2.6,-6.06 0,-2.75 -0.9,-3.85 -2.48,-2.94 z m -0.07,8.07 c -0.93,0.53 -1.52,-0.4 -1.52,-2.65 0,-2.25 0.64,-3.97 1.52,-4.49 1.05,-0.61 1.52,0.52 1.52,2.65 0,2.13 -0.49,3.9 -1.52,4.49 z"
       id="path68"
       style="fill:#6666cc" />
    <path
       class="cls-1"
       d="m 502.63,110.77 -1.63,1.95 0.2,0.79 1.29,-1.57 0.03,-0.02 v 7.55 l 0.97,-0.56 v -8.64 l -0.87,0.5 z"
       id="path69"
       style="fill:#6666cc" />
    <path
       class="cls-1"
       d="m 508.73,107.1 c -1.52,0.88 -2.6,3.1 -2.6,6 0.01,2.85 1,3.86 2.46,3.01 1.66,-0.96 2.6,-3.12 2.6,-6.06 0,-2.75 -0.9,-3.85 -2.46,-2.95 z m -0.08,8.08 c -0.91,0.53 -1.52,-0.41 -1.52,-2.65 0,-2.36 0.64,-3.97 1.54,-4.49 1.05,-0.61 1.52,0.52 1.52,2.65 0,2.13 -0.5,3.88 -1.54,4.49 z"
       id="path70"
       style="fill:#6666cc" />
    <path
       class="cls-1"
       d="m 514.45,103.95 -1.64,1.95 0.2,0.78 1.31,-1.55 h 0.02 c 0,0 0,7.53 0,7.53 l 0.97,-0.56 v -8.64 l -0.85,0.5 z"
       id="path71"
       style="fill:#6666cc" />
    <path
       class="cls-1"
       d="m 520.54,100.28 c -1.52,0.88 -2.6,3.1 -2.6,6 0.02,2.85 1,3.85 2.48,3.01 1.66,-0.96 2.6,-3.12 2.6,-6.06 0,-2.75 -0.9,-3.86 -2.48,-2.95 z m -0.08,8.07 c -0.91,0.53 -1.52,-0.4 -1.52,-2.63 0,-2.36 0.65,-3.99 1.54,-4.49 1.05,-0.61 1.52,0.52 1.52,2.65 0,2.13 -0.5,3.88 -1.54,4.47 z"
       id="path72"
       style="fill:#6666cc" />
    <path
       class="cls-1"
       d="m 526.26,97.13 -1.63,1.95 0.18,0.78 1.31,-1.55 0.02,-0.02 v 7.55 l 0.99,-0.56 v -8.64 l -0.87,0.5 z"
       id="path73"
       style="fill:#6666cc" />
    <path
       class="cls-1"
       d="m 532.34,93.47 c -1.52,0.88 -2.6,3.09 -2.6,6 0.03,2.85 1.02,3.85 2.48,3.01 1.66,-0.96 2.6,-3.13 2.6,-6.07 0,-2.74 -0.9,-3.85 -2.48,-2.94 z m -0.06,8.06 c -0.93,0.53 -1.52,-0.4 -1.52,-2.65 0,-2.25 0.64,-3.97 1.52,-4.47 1.05,-0.61 1.52,0.52 1.52,2.63 0,2.11 -0.49,3.89 -1.52,4.49 z"
       id="path74"
       style="fill:#6666cc" />
    <path
       class="cls-1"
       d="m 538.06,90.3 -1.63,1.96 0.2,0.78 1.29,-1.57 h 0.03 c 0,0 0,7.55 0,7.55 l 0.97,-0.58 v -8.63 l -0.87,0.49 z"
       id="path75"
       style="fill:#6666cc" />
    <path
       class="cls-1"
       d="m 544.17,86.65 c -1.52,0.87 -2.6,3.09 -2.6,6 0.01,2.85 1,3.85 2.46,3.01 1.66,-0.96 2.6,-3.13 2.6,-6.07 0,-2.75 -0.9,-3.85 -2.46,-2.94 z m -0.08,8.06 c -0.91,0.53 -1.52,-0.4 -1.52,-2.65 0,-2.25 0.65,-3.97 1.54,-4.49 1.05,-0.59 1.52,0.52 1.52,2.65 0,2.13 -0.5,3.9 -1.54,4.49 z"
       id="path76"
       style="fill:#6666cc" />
    <path
       class="cls-1"
       d="m 549.89,83.49 -1.64,1.96 0.2,0.78 1.31,-1.57 0.02,-0.02 v 7.55 l 0.97,-0.56 v -8.64 l -0.85,0.5 z"
       id="path77"
       style="fill:#6666cc" />
    <path
       class="cls-1"
       d="m 555.97,79.83 c -1.52,0.87 -2.6,3.09 -2.6,5.98 0.02,2.84 1.02,3.86 2.48,3.01 1.66,-0.96 2.6,-3.12 2.6,-6.06 0,-2.75 -0.9,-3.85 -2.48,-2.94 z m -0.07,8.07 c -0.91,0.53 -1.51,-0.4 -1.51,-2.65 -0.02,-2.36 0.64,-3.97 1.52,-4.49 1.05,-0.61 1.52,0.52 1.52,2.65 0,2.13 -0.5,3.88 -1.54,4.49 z"
       id="path78"
       style="fill:#6666cc" />
    <path
       class="cls-1"
       d="m 437.65,164.24 -1.63,1.95 0.2,0.78 1.29,-1.55 h 0.03 c 0,0 0,7.53 0,7.53 l 0.97,-0.56 v -8.64 l -0.87,0.5 z"
       id="path79"
       style="fill:#6666cc" />
    <path
       class="cls-1"
       d="m 443.76,160.57 c -1.52,0.88 -2.6,3.1 -2.6,6 0.02,2.84 1,3.85 2.47,3.01 1.66,-0.96 2.6,-3.12 2.6,-6.06 0,-2.75 -0.9,-3.86 -2.47,-2.95 z m -0.08,8.06 c -0.91,0.53 -1.52,-0.4 -1.52,-2.65 0,-2.25 0.65,-3.97 1.54,-4.47 1.05,-0.61 1.52,0.52 1.52,2.63 0,2.11 -0.5,3.9 -1.54,4.49 z"
       id="path80"
       style="fill:#6666cc" />
    <path
       class="cls-1"
       d="m 449.48,157.42 -1.64,1.95 0.2,0.78 1.31,-1.57 0.02,-0.02 v 7.56 l 0.97,-0.56 v -8.64 l -0.85,0.5 z"
       id="path81"
       style="fill:#6666cc" />
    <path
       class="cls-1"
       d="m 455.56,153.75 c -1.52,0.87 -2.6,3.09 -2.6,6 0.01,2.85 1.02,3.85 2.48,3.01 1.66,-0.96 2.6,-3.13 2.6,-6.07 0,-2.75 -0.9,-3.85 -2.48,-2.94 z m -0.07,8.07 c -0.91,0.53 -1.51,-0.4 -1.51,-2.65 0,-2.25 0.64,-3.97 1.52,-4.49 1.05,-0.59 1.52,0.52 1.52,2.65 0,2.13 -0.49,3.89 -1.54,4.49 z"
       id="path82"
       style="fill:#6666cc" />
    <path
       class="cls-1"
       d="m 461.28,150.59 -1.63,1.96 0.18,0.78 1.31,-1.57 0.02,-0.02 v 7.55 l 0.99,-0.56 v -8.63 z"
       id="path83"
       style="fill:#6666cc" />
    <path
       class="cls-1"
       d="m 467.37,146.94 c -1.52,0.87 -2.6,3.09 -2.6,6 0.03,2.84 1.02,3.85 2.48,3 1.66,-0.94 2.6,-3.12 2.6,-6.06 0,-2.75 -0.9,-3.85 -2.48,-2.94 z m -0.06,8.06 c -0.93,0.53 -1.52,-0.4 -1.52,-2.65 0,-2.25 0.64,-3.97 1.54,-4.49 1.03,-0.61 1.51,0.52 1.51,2.65 0,2.13 -0.49,3.9 -1.52,4.49 z"
       id="path84"
       style="fill:#6666cc" />
    <path
       class="cls-1"
       d="m 473.27,143.51 c -1.51,0.88 -2.59,3.1 -2.59,6 0.02,2.84 1,3.86 2.46,3.01 1.66,-0.96 2.6,-3.12 2.6,-6.06 0,-2.75 -0.9,-3.85 -2.48,-2.95 z m -0.06,8.08 c -0.93,0.53 -1.52,-0.4 -1.52,-2.65 0,-2.25 0.64,-3.97 1.54,-4.49 1.05,-0.61 1.52,0.52 1.52,2.65 0,2.13 -0.5,3.88 -1.54,4.49 z"
       id="path85"
       style="fill:#6666cc" />
    <path
       class="cls-1"
       d="m 479.19,140.1 c -1.52,0.88 -2.6,3.1 -2.6,6 0.02,2.85 1,3.86 2.47,3.01 1.66,-0.96 2.6,-3.12 2.6,-6.06 0,-2.75 -0.9,-3.85 -2.47,-2.95 z m -0.07,8.08 c -0.91,0.53 -1.52,-0.41 -1.52,-2.65 0,-2.36 0.65,-3.97 1.54,-4.49 1.05,-0.61 1.52,0.52 1.52,2.65 0,2.13 -0.5,3.88 -1.54,4.49 z"
       id="path86"
       style="fill:#6666cc" />
    <path
       class="cls-1"
       d="m 484.92,136.95 -1.64,1.95 0.2,0.78 1.31,-1.55 0.02,-0.02 v 7.55 l 0.97,-0.56 v -8.64 l -0.85,0.5 z"
       id="path87"
       style="fill:#6666cc" />
    <path
       class="cls-1"
       d="m 491,133.29 c -1.52,0.88 -2.6,3.1 -2.6,6 0.03,2.85 1.02,3.85 2.48,3.01 1.66,-0.96 2.6,-3.12 2.6,-6.06 0,-2.75 -0.9,-3.86 -2.48,-2.95 z m -0.06,8.06 c -0.93,0.53 -1.52,-0.4 -1.52,-2.63 0,-2.36 0.64,-3.99 1.52,-4.49 1.05,-0.61 1.52,0.52 1.52,2.65 0,2.13 -0.49,3.88 -1.52,4.47 z"
       id="path88"
       style="fill:#6666cc" />
    <path
       class="cls-1"
       d="m 496.72,130.14 -1.63,1.95 0.2,0.78 1.29,-1.57 h 0.03 v 7.55 l 0.97,-0.56 v -8.64 l -0.87,0.5 z"
       id="path89"
       style="fill:#6666cc" />
    <path
       class="cls-1"
       d="m 502.81,126.47 c -1.52,0.88 -2.6,3.09 -2.6,6 0.03,2.85 1.02,3.85 2.48,3.01 1.66,-0.96 2.6,-3.12 2.6,-6.07 0,-2.74 -0.9,-3.85 -2.48,-2.94 z m -0.06,8.06 c -0.93,0.53 -1.52,-0.4 -1.52,-2.65 0,-2.25 0.64,-3.97 1.54,-4.47 1.03,-0.61 1.51,0.52 1.51,2.63 0,2.11 -0.49,3.9 -1.52,4.49 z"
       id="path90"
       style="fill:#6666cc" />
    <path
       class="cls-1"
       d="m 508.53,123.31 -1.63,1.96 0.2,0.78 1.29,-1.57 h 0.03 c 0,0 0,7.55 0,7.55 l 0.97,-0.58 v -8.63 l -0.87,0.49 z"
       id="path91"
       style="fill:#6666cc" />
    <path
       class="cls-1"
       d="m 514.63,119.65 c -1.52,0.87 -2.6,3.09 -2.6,6 0.02,2.85 1,3.85 2.47,3.01 1.66,-0.96 2.6,-3.13 2.6,-6.07 0,-2.75 -0.9,-3.85 -2.47,-2.94 z m -0.07,8.07 c -0.91,0.53 -1.52,-0.4 -1.52,-2.65 0,-2.25 0.65,-3.97 1.54,-4.49 1.05,-0.59 1.52,0.52 1.52,2.65 0,2.13 -0.5,3.9 -1.54,4.49 z"
       id="path92"
       style="fill:#6666cc" />
    <path
       class="cls-1"
       d="m 520.54,116.25 c -1.52,0.87 -2.6,3.09 -2.6,5.99 0.02,2.85 1,3.85 2.48,3 1.66,-0.94 2.6,-3.12 2.6,-6.06 0,-2.75 -0.9,-3.85 -2.48,-2.94 z m -0.08,8.06 c -0.91,0.53 -1.52,-0.4 -1.52,-2.65 0,-2.25 0.65,-3.97 1.54,-4.49 1.05,-0.61 1.52,0.52 1.52,2.65 0,2.13 -0.5,3.9 -1.54,4.49 z"
       id="path93"
       style="fill:#6666cc" />
    <path
       class="cls-1"
       d="m 526.44,112.84 c -1.52,0.87 -2.6,3.09 -2.6,6 0.03,2.83 1.02,3.85 2.48,3 1.66,-0.96 2.6,-3.12 2.6,-6.06 0,-2.75 -0.9,-3.85 -2.48,-2.94 z m -0.06,8.06 c -0.93,0.53 -1.52,-0.4 -1.52,-2.65 0,-2.25 0.64,-3.97 1.52,-4.49 1.05,-0.61 1.52,0.52 1.52,2.65 0,2.13 -0.49,3.88 -1.52,4.49 z"
       id="path94"
       style="fill:#6666cc" />
    <path
       class="cls-1"
       d="m 532.16,109.67 -1.63,1.95 0.2,0.79 1.29,-1.57 0.03,-0.02 v 7.55 l 0.97,-0.56 v -8.64 l -0.87,0.5 z"
       id="path95"
       style="fill:#6666cc" />
    <path
       class="cls-1"
       d="m 538.25,106 c -1.51,0.88 -2.6,3.1 -2.6,6 0.03,2.84 1.02,3.86 2.48,3.01 1.66,-0.96 2.6,-3.12 2.6,-6.06 0,-2.75 -0.9,-3.86 -2.48,-2.95 z m -0.06,8.08 c -0.93,0.52 -1.52,-0.41 -1.52,-2.65 0,-2.36 0.64,-3.97 1.54,-4.49 1.03,-0.61 1.52,0.52 1.52,2.65 0,2.13 -0.5,3.88 -1.54,4.49 z"
       id="path96"
       style="fill:#6666cc" />
    <path
       class="cls-1"
       d="m 543.98,102.86 -1.64,1.95 0.2,0.78 1.29,-1.55 h 0.03 c 0,0 0,7.53 0,7.53 l 0.97,-0.56 v -8.64 l -0.85,0.5 z"
       id="path97"
       style="fill:#6666cc" />
    <path
       class="cls-1"
       d="m 549.89,99.45 -1.64,1.95 0.2,0.78 1.31,-1.55 h 0.02 c 0,0 0,7.53 0,7.53 l 0.97,-0.56 v -8.64 l -0.85,0.5 z"
       id="path98"
       style="fill:#6666cc" />
    <path
       class="cls-1"
       d="m 555.97,95.78 c -1.52,0.88 -2.6,3.1 -2.6,6 0.02,2.85 1.02,3.85 2.48,3.01 1.66,-0.96 2.6,-3.12 2.6,-6.06 0,-2.75 -0.9,-3.86 -2.48,-2.95 z m -0.07,8.06 c -0.91,0.53 -1.51,-0.4 -1.51,-2.65 0,-2.25 0.64,-3.97 1.52,-4.47 1.05,-0.61 1.52,0.52 1.52,2.63 0,2.11 -0.5,3.9 -1.54,4.49 z"
       id="path99"
       style="fill:#6666cc" />
    <path
       class="cls-1"
       d="m 437.84,179.94 c -1.51,0.87 -2.6,3.09 -2.6,6 0.03,2.85 1.02,3.85 2.48,3 1.66,-0.94 2.6,-3.12 2.6,-6.06 0,-2.75 -0.9,-3.85 -2.48,-2.94 z m -0.06,8.06 c -0.93,0.53 -1.52,-0.4 -1.52,-2.65 0,-2.25 0.64,-3.97 1.54,-4.49 1.05,-0.61 1.52,0.52 1.52,2.65 0,2.13 -0.5,3.89 -1.54,4.49 z"
       id="path100"
       style="fill:#6666cc" />
    <path
       class="cls-1"
       d="m 443.57,176.77 -1.64,1.96 0.2,0.78 1.29,-1.57 0.03,-0.02 v 7.55 l 0.97,-0.56 v -8.64 z"
       id="path101"
       style="fill:#6666cc" />
    <path
       class="cls-1"
       d="m 449.66,173.11 c -1.52,0.88 -2.6,3.1 -2.6,6 0.02,2.85 1,3.86 2.46,3.01 1.66,-0.96 2.6,-3.12 2.6,-6.06 0,-2.75 -0.9,-3.85 -2.46,-2.95 z m -0.08,8.08 c -0.91,0.53 -1.52,-0.41 -1.52,-2.65 0,-2.36 0.65,-3.97 1.54,-4.49 1.05,-0.61 1.52,0.52 1.52,2.65 0,2.13 -0.5,3.88 -1.54,4.49 z"
       id="path102"
       style="fill:#6666cc" />
    <path
       class="cls-1"
       d="m 455.38,169.96 -1.64,1.95 0.2,0.78 1.31,-1.55 v -0.02 c 0,0 0.01,7.55 0.01,7.55 l 0.99,-0.56 v -8.64 l -0.87,0.5 z"
       id="path103"
       style="fill:#6666cc" />
    <path
       class="cls-1"
       d="m 461.47,166.29 c -1.52,0.88 -2.6,3.1 -2.6,6 0.03,2.85 1.02,3.86 2.48,3.01 1.66,-0.96 2.6,-3.12 2.6,-6.06 0,-2.75 -0.9,-3.86 -2.48,-2.95 z m -0.06,8.06 c -0.93,0.53 -1.52,-0.4 -1.52,-2.63 0,-2.36 0.64,-3.99 1.52,-4.49 1.05,-0.61 1.52,0.52 1.52,2.65 0,2.13 -0.49,3.88 -1.52,4.47 z"
       id="path104"
       style="fill:#6666cc" />
    <path
       class="cls-1"
       d="m 467.19,163.14 -1.63,1.95 0.2,0.78 1.29,-1.55 0.03,-0.02 v 7.55 l 0.97,-0.56 v -8.64 l -0.87,0.5 z"
       id="path105"
       style="fill:#6666cc" />
    <path
       class="cls-1"
       d="m 473.29,159.47 c -1.52,0.88 -2.6,3.1 -2.6,6 0.02,2.85 1,3.85 2.46,3.01 1.66,-0.96 2.6,-3.12 2.6,-6.06 0,-2.75 -0.9,-3.86 -2.47,-2.95 z m -0.08,8.07 c -0.93,0.53 -1.52,-0.4 -1.52,-2.65 0,-2.25 0.64,-3.97 1.54,-4.47 1.05,-0.61 1.52,0.52 1.52,2.63 0,2.11 -0.5,3.9 -1.54,4.49 z"
       id="path106"
       style="fill:#6666cc" />
    <path
       class="cls-1"
       d="m 479.01,156.31 -1.64,1.96 0.2,0.78 1.29,-1.57 h 0.03 c 0,0 0,7.55 0,7.55 l 0.97,-0.56 v -8.64 l -0.85,0.49 z"
       id="path107"
       style="fill:#6666cc" />
    <path
       class="cls-1"
       d="m 485.1,152.66 c -1.52,0.87 -2.6,3.09 -2.6,6 0.02,2.85 1,3.85 2.48,3.01 1.64,-0.96 2.59,-3.13 2.59,-6.07 0,-2.75 -0.9,-3.85 -2.46,-2.94 z m -0.08,8.06 c -0.91,0.53 -1.52,-0.4 -1.52,-2.65 0,-2.25 0.65,-3.97 1.54,-4.49 1.05,-0.59 1.52,0.52 1.52,2.65 0,2.13 -0.5,3.9 -1.54,4.49 z"
       id="path108"
       style="fill:#6666cc" />
    <path
       class="cls-1"
       d="m 490.82,149.49 -1.63,1.96 0.18,0.78 1.31,-1.57 h 0.02 c 0,0 0,7.53 0,7.53 l 0.99,-0.56 V 149 Z"
       id="path109"
       style="fill:#6666cc" />
    <path
       class="cls-1"
       d="m 496.91,145.84 c -1.52,0.87 -2.6,3.09 -2.6,6 0.03,2.83 1.02,3.85 2.48,3 1.66,-0.94 2.6,-3.12 2.6,-6.06 0,-2.75 -0.9,-3.85 -2.48,-2.94 z m -0.07,8.07 c -0.93,0.53 -1.52,-0.4 -1.52,-2.65 0,-2.25 0.64,-3.97 1.52,-4.49 1.05,-0.61 1.52,0.52 1.52,2.65 0,2.13 -0.49,3.88 -1.52,4.49 z"
       id="path110"
       style="fill:#6666cc" />
    <path
       class="cls-1"
       d="m 502.63,142.68 -1.63,1.95 0.2,0.79 1.29,-1.57 h 0.03 c 0,0 0,7.53 0,7.53 l 0.97,-0.56 v -8.64 l -0.87,0.5 z"
       id="path111"
       style="fill:#6666cc" />
    <path
       class="cls-1"
       d="m 508.73,139.01 c -1.52,0.88 -2.6,3.1 -2.6,6 0.01,2.84 1,3.86 2.46,3.01 1.66,-0.96 2.6,-3.12 2.6,-6.06 0,-2.75 -0.9,-3.86 -2.46,-2.95 z m -0.08,8.08 c -0.91,0.53 -1.52,-0.41 -1.52,-2.65 0,-2.36 0.65,-3.97 1.54,-4.49 1.05,-0.61 1.52,0.52 1.52,2.65 0,2.13 -0.5,3.88 -1.54,4.49 z"
       id="path112"
       style="fill:#6666cc" />
    <path
       class="cls-1"
       d="m 514.63,135.6 c -1.52,0.88 -2.6,3.1 -2.6,6 0.02,2.85 1,3.86 2.47,3.01 1.66,-0.96 2.6,-3.12 2.6,-6.06 0,-2.75 -0.9,-3.86 -2.47,-2.95 z m -0.07,8.06 c -0.91,0.53 -1.52,-0.4 -1.52,-2.63 0,-2.36 0.65,-3.99 1.54,-4.49 1.05,-0.61 1.52,0.52 1.52,2.65 0,2.13 -0.5,3.88 -1.54,4.47 z"
       id="path113"
       style="fill:#6666cc" />
    <path
       class="cls-1"
       d="m 520.35,132.45 -1.64,1.95 0.2,0.78 1.31,-1.55 0.02,-0.02 v 7.55 l 0.99,-0.56 v -8.64 l -0.87,0.5 z"
       id="path114"
       style="fill:#6666cc" />
    <path
       class="cls-1"
       d="m 526.44,128.78 c -1.52,0.88 -2.6,3.1 -2.6,6 0.03,2.85 1.02,3.85 2.48,3.01 1.66,-0.96 2.6,-3.12 2.6,-6.06 0,-2.75 -0.9,-3.86 -2.48,-2.95 z m -0.06,8.07 c -0.93,0.53 -1.52,-0.4 -1.52,-2.65 0,-2.25 0.64,-3.97 1.52,-4.47 1.05,-0.61 1.52,0.52 1.52,2.63 0,2.11 -0.49,3.9 -1.52,4.49 z"
       id="path115"
       style="fill:#6666cc" />
    <path
       class="cls-1"
       d="m 532.16,125.63 -1.63,1.95 0.2,0.78 1.29,-1.57 h 0.03 v 7.55 l 0.97,-0.56 v -8.64 l -0.87,0.5 z"
       id="path116"
       style="fill:#6666cc" />
    <path
       class="cls-1"
       d="m 538.25,121.97 c -1.51,0.87 -2.6,3.09 -2.6,6 0.03,2.85 1.02,3.85 2.48,3.01 1.66,-0.96 2.6,-3.13 2.6,-6.07 0,-2.75 -0.9,-3.85 -2.48,-2.94 z m -0.06,8.06 c -0.93,0.53 -1.52,-0.4 -1.52,-2.65 0,-2.25 0.64,-3.97 1.54,-4.49 1.03,-0.59 1.52,0.52 1.52,2.65 0,2.13 -0.5,3.9 -1.54,4.49 z"
       id="path117"
       style="fill:#6666cc" />
    <path
       class="cls-1"
       d="m 543.98,118.8 -1.64,1.96 0.2,0.78 1.29,-1.57 0.03,-0.02 v 7.55 l 0.97,-0.56 v -8.63 z"
       id="path118"
       style="fill:#6666cc" />
    <path
       class="cls-1"
       d="m 550.07,115.15 c -1.52,0.87 -2.6,3.09 -2.6,6 0.02,2.85 1,3.85 2.47,3 1.66,-0.94 2.6,-3.12 2.6,-6.06 0,-2.75 -0.9,-3.85 -2.47,-2.94 z m -0.08,8.06 c -0.91,0.53 -1.52,-0.4 -1.52,-2.65 0,-2.25 0.65,-3.97 1.54,-4.49 1.05,-0.61 1.52,0.52 1.52,2.65 0,2.13 -0.5,3.89 -1.54,4.49 z"
       id="path119"
       style="fill:#6666cc" />
    <path
       class="cls-1"
       d="m 555.79,111.98 -1.64,1.96 0.2,0.78 1.31,-1.57 h 0.02 c 0,0 0,7.53 0,7.53 l 0.99,-0.56 v -8.64 l -0.87,0.5 z"
       id="path120"
       style="fill:#6666cc" />
  </g>
  <circle
     class="cls-4"
     cx="16.979136"
     cy="19.800873"
     r="0.97366667"
     id="attach-point"
     style="fill:#ed1c24;stroke-width:0.264583" />
</svg>
