<?xml version="1.0" encoding="UTF-8" standalone="no"?>
<!-- Created with Inkscape (http://www.inkscape.org/) -->

<svg
   width="60.073639mm"
   height="58.656284mm"
   viewBox="0 0 60.073639 58.656284"
   version="1.1"
   id="svg1"
   xmlns="http://www.w3.org/2000/svg"
   xmlns:svg="http://www.w3.org/2000/svg">
  <defs
     id="defs1" />
  <path
     style="fill:#f3bd5b;fill-opacity:1;stroke:#000000;stroke-width:0.793749;stroke-linecap:butt;stroke-linejoin:miter;stroke-dasharray:none;stroke-opacity:1"
     d="m 20.955119,44.622129 c -0.09969,-0.68908 -0.272726,-1.28506 -0.590439,-1.72302 -0.339027,-0.63952 -1.173876,-1.32694 -2.0997,-2.3689 -1.278008,-1.40919 -2.257449,-3.07011 -2.871588,-4.87508 v 0 c -1.03235,-3.15642 -1.230657,-6.34238 -1.204183,-9.31072 v 0 c 0,-5.95975 0,-11.91949 0,-17.87923 0,-1.1418 1.093815,-2.06742 2.443101,-2.06742 1.326758,0.019 2.384037,0.94469 2.3615,2.06742 v 17.87923 c 0.02649,2.79413 0.140333,5.46589 0.950839,7.7681 h 5e-6 c 0.389955,1.1692 1.035349,2.2627 1.869466,3.1728 0.699968,0.74331 1.715363,1.67075 2.641353,3.08896 0.650295,1.13662 1.04347,2.30725 1.250841,3.44696 0.271843,1.494 -0.946736,2.46981 -2.259525,2.46981 -1.321797,-0.019 -2.400615,-0.89397 -2.49167,-1.66891 z"
     id="path304" />
  <path
     style="fill:#f3bd5b;fill-opacity:1;stroke:#000000;stroke-width:0.793749;stroke-linecap:butt;stroke-linejoin:miter;stroke-dasharray:none;stroke-opacity:1"
     d="m 29.254072,39.079279 c 0.82944,-1.51638 1.89363,-2.99693 3.30009,-4.28612 1.32897,-1.12088 2.69186,-1.80964 3.85998,-2.35414 h 1e-5 c 0.40382,-0.21045 0.70639,-0.35587 0.85181,-0.49862 0.14991,-0.11127 0.28896,-0.30711 0.40608,-0.5338 h 1e-5 c 0.67578,-1.14184 0.57576,-2.9679 0.65344,-5.06156 0,-7.88125 0,-15.76251 0,-23.643768 0,-1.263351 1.09381,-2.287499 2.4431,-2.287499 1.32676,0.02111 2.38404,1.045246 2.3615,2.287499 v 23.643768 c 0.0777,2.06687 0.0123,4.60312 -1.1496,7.19215 v 0 c -0.38152,0.78566 -0.93735,1.50899 -1.65645,2.11627 -0.65782,0.52142 -1.28136,0.87324 -1.81473,1.11782 0,1e-5 0,1e-5 0,1e-5 -1.16191,0.5868 -2.16318,1.03438 -2.77511,1.6306 -0.8894,0.74195 -1.59886,1.78794 -2.23588,2.98243 -0.50797,0.95252 -1.91528,1.43638 -3.15211,0.90119 -1.1938,-0.53929 -1.80542,-1.95091 -1.09214,-3.20623 z"
     id="path305" />
  <path
     style="fill:#f3bd5b;fill-opacity:1;stroke:#000000;stroke-width:0.793749;stroke-linecap:butt;stroke-linejoin:miter;stroke-dasharray:none;stroke-opacity:1"
     d="m 27.936382,56.878109 c -0.0409,-0.76032 -0.12538,-1.42641 -0.34832,-1.96046 -0.0982,-0.30808 -0.31281,-0.61422 -0.58479,-0.87242 v 0 c -0.367913,-0.3062 -0.974755,-0.87356 -1.612439,-1.85094 -0.743172,-1.47552 -0.925408,-2.84591 -0.857502,-3.90859 0,-6.14418 0.02001,-12.28351 0.02307,-18.41802 4.26e-4,-0.84398 1.094217,-1.52861 2.443501,-1.52861 1.32676,0.0141 2.38407,0.69937 2.36111,1.53103 -0.003,6.14337 -0.0231,12.2819 -0.0231,18.4156 0.0679,0.80036 0.0376,1.37199 0.21999,1.5123 v 0 c -0.0505,0.0478 0.27153,0.2516 0.75805,0.76037 v 0 c 0.77409,0.73956 1.38898,1.65803 1.78572,2.70944 0.39074,1.15149 0.57544,2.26492 0.64904,3.30244 0.0711,1.0021 -1.07368,1.68876 -2.40787,1.68877 -1.32686,-0.0141 -2.39161,-0.69573 -2.40648,-1.38091 z"
     id="path306" />
  <path
     style="fill:#f3bd5b;fill-opacity:1;stroke:#000000;stroke-width:0.793749;stroke-linecap:butt;stroke-linejoin:miter;stroke-dasharray:none;stroke-opacity:1"
     d="m 13.961252,49.223059 c -0.03622,-0.1022 -0.07964,-0.1947 -0.131344,-0.27527 -0.144537,-0.3094 -0.476446,-0.62313 -0.882908,-0.94716 -1.006777,-0.80453 -2.545502,-1.31885 -4.261849,-2.10984 -1.824963,-0.76867 -3.812084,-1.84903 -5.512811,-3.62432 -0.891675,-0.97846 -1.582555,-2.11915 -2.037562,-3.35579 -0.541166,-1.51678 -0.75067,-3.04985 -0.737734,-4.50238 0,-4.70905 0,-9.4181 0,-14.12715 0,-1.05786 1.093816,-1.91541 2.443101,-1.91541 1.326759,0.0176 2.384037,0.87522 2.3615,1.91541 v 14.12715 c 0.01294,1.03905 0.1238,2.01767 0.441825,2.839 v 0 c 0.238752,0.65127 0.60784,1.26267 1.072192,1.76789 0.846145,1.01134 2.30355,1.70949 3.923675,2.47768 v 0 c 1.507034,0.64696 3.350024,1.33957 5.174637,2.64466 0.842202,0.60633 1.622091,1.43505 2.22684,2.49214 0.163973,0.31274 0.303835,0.62928 0.420728,0.94742 0.270894,0.73729 0.140232,1.47915 -0.278358,1.98727 -0.420462,0.51037 -1.05291,0.71599 -1.698841,0.71599 -1.294812,-0.0171 -2.422776,-0.72849 -2.523091,-1.05729 z"
     id="path307" />
  <path
     style="fill:#f3bd5b;fill-opacity:1;stroke:#000000;stroke-width:0.793749;stroke-linecap:butt;stroke-linejoin:miter;stroke-dasharray:none;stroke-opacity:1"
     d="m 38.226492,43.306179 c 0.1001,-0.25273 0.21508,-0.50465 0.34563,-0.75462 0.60126,-1.04969 1.38568,-1.87134 2.24319,-2.46315 1.83675,-1.24857 3.68204,-1.85985 5.19596,-2.3992 0,0 0,0 0,0 1.60245,-0.65199 3.02686,-1.18002 3.85002,-2.04153 0.41492,-0.39185 0.7535,-0.86883 0.95879,-1.37435 v 0 c 0.28394,-0.63159 0.38003,-1.43814 0.39646,-2.31218 0,-5.96761 0,-11.93524 0,-17.90285 0,-1.12875 1.09382,-2.04379 2.4431,-2.04379 1.32676,0.0189 2.38404,0.93389 2.3615,2.04379 v 17.90285 c 0.0165,1.3333 -0.20272,2.75674 -0.76567,4.16286 v 0 c -0.48686,1.15988 -1.20753,2.18969 -2.10503,3.03285 -1.76703,1.5759 -3.72379,2.43609 -5.44707,3.03802 h -1e-5 c -1.67878,0.66442 -3.15913,1.08097 -4.10114,1.81502 -0.37955,0.29083 -0.68978,0.57888 -0.82062,0.86237 -0.04,0.0605 -0.0746,0.12917 -0.10464,0.20475 -0.18126,0.45637 -1.34276,1.11524 -2.62197,1.11524 -0.63339,-0.009 -1.25584,-0.23853 -1.65326,-0.78328 -0.39638,-0.54332 -0.49406,-1.32788 -0.17524,-2.1028 z"
     id="path308" />
  <path
     style="fill:#f3bd5b;fill-opacity:1;stroke:#000000;stroke-width:0.793749;stroke-linecap:butt;stroke-linejoin:miter;stroke-dasharray:none;stroke-opacity:1"
     d="m 35.150912,51.716249 c 0.20197,-1.10196 0.53654,-2.23726 1.07142,-3.36484 0.70208,-1.45624 1.93245,-2.70661 3.59655,-3.4504 1.54958,-0.58613 3.03931,-0.6878 4.31552,-0.54387 1.42903,0.12504 2.73269,0.40272 3.92577,0.67153 1.20491,0.26102 2.30473,0.52486 3.32101,0.63311 0.88456,0.0551 1.59835,0.11667 2.00557,-0.0905 0,0 0,0 0,0 0.16831,-0.0636 0.32173,-0.14969 0.42241,-0.24905 0.1344,-0.10501 0.26471,-0.31775 0.4028,-0.58083 0.50111,-0.90008 0.53447,-2.25299 0.58646,-3.78996 0,-5.81756 0,-11.63514 0,-17.4527 0,-1.37737 1.09381,-2.49395 2.4431,-2.49395 1.32676,0.023 2.38404,1.13958 2.3615,2.49395 v 17.4527 c 0.052,1.75594 -0.13887,3.80279 -1.05894,5.87179 -0.3312,0.71733 -0.82376,1.41942 -1.48957,2.04887 -0.60872,0.55176 -1.30031,0.96394 -2.03693,1.22748 0,0 0,0 -10e-6,0 -1.55266,0.50149 -2.98984,0.52507 -4.1757,0.34586 -1.38949,-0.16406 -2.65334,-0.45517 -3.81307,-0.7149 -1.19081,-0.25617 -2.28067,-0.50174 -3.28437,-0.5752 h -1e-5 c -0.88743,-0.0326 -1.63663,-0.0469 -2.09394,0.19622 -0.41662,0.1159 -0.82664,0.60351 -1.13547,1.16213 -0.31458,0.56545 -0.49821,1.25353 -0.61862,2.02318 -0.16903,1.08042 -1.30441,2.1387 -2.65741,2.07914 -1.29166,-0.0793 -2.41056,-1.27018 -2.08807,-2.89978 z"
     id="path309" />
  <path
     id="path310"
     d="m 58.963042,23.352079 c -0.95215,0.55081 -2.49589,0.55081 -3.44804,0 -0.95215,-0.55081 -0.95215,-1.44385 10e-6,-1.99467 0.95214,-0.55081 2.49588,-0.55081 3.44803,0 0.95215,0.55082 0.95215,1.44386 0,1.99467 z"
     style="fill:#ffffff;fill-opacity:1;stroke:#000000;stroke-width:0.793749;stroke-linecap:round;stroke-linejoin:miter;stroke-dasharray:none" />
  <path
     id="path311"
     d="m 55.383662,14.422279 c -0.95215,0.55082 -2.49589,0.55082 -3.44804,0 -0.95215,-0.55081 -0.95215,-1.44385 10e-6,-1.99466 0.95214,-0.55082 2.49588,-0.55082 3.44803,0 0.95215,0.55081 0.95215,1.44385 0,1.99466 z"
     style="fill:#ffffff;fill-opacity:1;stroke:#000000;stroke-width:0.793749;stroke-linecap:round;stroke-linejoin:miter;stroke-dasharray:none" />
  <path
     id="path312"
     d="m 42.492612,2.821543 c -0.95215,0.550816 -2.49589,0.550816 -3.44804,0 -0.95215,-0.550811 -0.95215,-1.443848 10e-6,-1.994664 0.95214,-0.550811 2.49588,-0.550811 3.44803,0 0.95215,0.550816 0.95215,1.443853 0,1.994664 z"
     style="fill:#ffffff;fill-opacity:1;stroke:#000000;stroke-width:0.793749;stroke-linecap:round;stroke-linejoin:miter;stroke-dasharray:none" />
  <path
     id="path313"
     d="m 18.356336,8.805529 c -0.952153,0.55082 -2.495889,0.55082 -3.448043,0 -0.952148,-0.55081 -0.952148,-1.44384 6e-6,-1.99466 0.952148,-0.55081 2.495884,-0.55081 3.448037,0 0.952148,0.55082 0.952148,1.44385 0,1.99466 z"
     style="fill:#ffffff;fill-opacity:1;stroke:#000000;stroke-width:0.793749;stroke-linecap:round;stroke-linejoin:miter;stroke-dasharray:none" />
  <path
     id="path314"
     d="m 28.723922,30.746839 c -0.95215,0.55081 -2.495885,0.55081 -3.448039,0 -0.952148,-0.55081 -0.952148,-1.44385 6e-6,-1.99467 0.952148,-0.55081 2.495883,-0.55081 3.448033,0 0.95215,0.55082 0.95215,1.44386 0,1.99467 z"
     style="fill:#ffffff;fill-opacity:1;stroke:#000000;stroke-width:0.793749;stroke-linecap:round;stroke-linejoin:miter;stroke-dasharray:none" />
  <path
     id="path315"
     d="m 4.564166,20.773509 c -0.952153,0.55081 -2.495889,0.55081 -3.448043,0 -0.952148,-0.55082 -0.952148,-1.44385 6e-6,-1.99467 0.952148,-0.55081 2.495884,-0.55081 3.448037,0 0.952148,0.55082 0.952148,1.44385 0,1.99467 z"
     style="fill:#ffffff;fill-opacity:1;stroke:#000000;stroke-width:0.793749;stroke-linecap:round;stroke-linejoin:miter;stroke-dasharray:none" />
  <circle
     style="display:inline;fill:#ff0000;stroke-width:0.529167;stroke-linecap:round;stroke-miterlimit:4.1;stroke-dasharray:none"
     id="attach-back-left"
     cx="11.103893"
     cy="24.508158"
     r="0.83869553" />
  <circle
     style="display:inline;fill:#ff0000;stroke-width:0.529168;stroke-linecap:round;stroke-miterlimit:4.1;stroke-dasharray:none"
     id="attach-back-right"
     cx="50.293934"
     cy="24.515398"
     r="0.83869553" />
  <circle
     style="display:inline;fill:#ff0000;stroke-width:0.529167;stroke-linecap:round;stroke-miterlimit:4.1;stroke-dasharray:none"
     id="attach-front-right"
     cx="47.823429"
     cy="45.369358"
     r="0.83869553" />
  <circle
     style="display:inline;fill:#ff0000;stroke-width:0.529168;stroke-linecap:round;stroke-miterlimit:4.1;stroke-dasharray:none"
     id="attach-front-left"
     cx="12.5331"
     cy="46.043934"
     r="0.83869553" />
  <circle
     style="display:inline;fill:#ff0000;stroke-width:0.529168;stroke-linecap:round;stroke-miterlimit:4.1;stroke-dasharray:none"
     id="attach-bottom"
     cx="29.867062"
     cy="49.9408"
     r="0.83869553" />
  <circle
     style="display:inline;fill:#ff0000;stroke-width:0.529168;stroke-linecap:round;stroke-miterlimit:4.1;stroke-dasharray:none"
     id="attach-top"
     cx="29.869015"
     cy="14.389559"
     r="0.83869553" />
</svg>
