<?xml version="1.0" encoding="UTF-8" standalone="no"?>
<!-- Created with Inkscape (http://www.inkscape.org/) -->

<svg
   width="63.455021mm"
   height="51.837887mm"
   viewBox="0 0 63.455021 51.837887"
   version="1.1"
   id="svg1"
   inkscape:version="1.3.2 (091e20e, 2023-11-25)"
   sodipodi:docname="cubical-base.svg"
   xmlns:inkscape="http://www.inkscape.org/namespaces/inkscape"
   xmlns:sodipodi="http://sodipodi.sourceforge.net/DTD/sodipodi-0.dtd"
   xmlns="http://www.w3.org/2000/svg"
   xmlns:svg="http://www.w3.org/2000/svg">
  <sodipodi:namedview
     id="namedview1"
     pagecolor="#ffffff"
     bordercolor="#666666"
     borderopacity="1.0"
     inkscape:showpageshadow="2"
     inkscape:pageopacity="0.0"
     inkscape:pagecheckerboard="0"
     inkscape:deskcolor="#d1d1d1"
     inkscape:document-units="mm"
     inkscape:zoom="2.589225"
     inkscape:cx="159.12097"
     inkscape:cy="69.132655"
     inkscape:window-width="1440"
     inkscape:window-height="847"
     inkscape:window-x="0"
     inkscape:window-y="25"
     inkscape:window-maximized="1"
     inkscape:current-layer="svg1" />
  <defs
     id="defs1" />
  <path
     class="cls-2"
     d="m 63.455023,18.31777 v 15.20296 c 0,0.48154 -0.31486,0.96043 -0.94457,1.32291 l -28.49033,16.44915 c -0.24341,0.14023 -0.51594,0.25135 -0.80698,0.33602 V 36.42585 c 0.29104,-0.0847 0.56357,-0.19579 0.80698,-0.33602 l 28.49033,-16.44914 c 0.62971,-0.36513 0.94457,-0.84403 0.94457,-1.32292 z"
     id="path21"
     style="fill:#080833;stroke-width:0.264583" />
  <path
     class="cls-1"
     d="m 33.213143,36.42585 v 15.20296 c -1.21973,0.36512 -2.7596,0.25135 -3.7756,-0.33602 L 0.947209,34.84364 C 0.3175,34.48116 0,34.00227 0,33.52073 V 18.31777 c 0,0.47889 0.3175,0.95779 0.947209,1.32292 l 28.490334,16.44914 c 1.016,0.58738 2.55587,0.70115 3.7756,0.33602 z"
     id="path22"
     style="fill:#6666cc;stroke-width:0.264583" />
  <path
     class="cls-4"
     d="m 0.944563,19.64069 c -1.259417,-0.72761 -1.259417,-1.91823 0,-2.64584 L 29.434893,0.54571 c 1.25942,-0.72761 3.32317,-0.72761 4.58259,0 l 28.49033,16.44914 c 1.25942,0.72761 1.25942,1.91823 0,2.64584 l -28.49033,16.44914 c -1.25942,0.7276 -3.32317,0.7276 -4.58259,0 z"
     id="path23"
     style="fill:#a2a2fc;stroke-width:0.264583" />
  <circle
     class="cls-3"
     cx="31.726185"
     cy="15.142757"
     id="attach-top"
     style="fill:#ed1c24;stroke-width:0.264583"
     r="1" />
  <circle
     class="cls-3"
     cx="14.184654"
     cy="36.635529"
     id="attach-front-left"
     style="fill:#ed1c24;stroke-width:0.264583"
     r="1" />
  <circle
     class="cls-3"
     cx="50.068237"
     cy="35.973289"
     id="attach-front-right"
     style="fill:#ed1c24;stroke-width:0.264583"
     r="1" />
  <circle
     class="cls-3"
     cx="31.726185"
     cy="35.642696"
     id="attach-bottom"
     style="fill:#ed1c24;stroke-width:0.264583"
     r="1" />
  <circle
     class="cls-3"
     cx="48.979961"
     cy="14.685154"
     id="attach-back-right"
     style="fill:#ed1c24;stroke-width:0.264583"
     r="1" />
  <circle
     class="cls-3"
     cx="14.174329"
     cy="14.527065"
     id="attach-back-left"
     style="fill:#ed1c24;stroke-width:0.264583"
     r="1" />
</svg>
