<?xml version="1.0" encoding="UTF-8" standalone="no"?>
<!-- Created with Inkscape (http://www.inkscape.org/) -->

<svg
   width="11.881113mm"
   height="14.860466mm"
   viewBox="0 0 11.881113 14.860466"
   version="1.1"
   id="svg1"
   inkscape:version="1.3.2 (091e20e, 2023-11-25)"
   sodipodi:docname="dial-left2D.svg"
   xmlns:inkscape="http://www.inkscape.org/namespaces/inkscape"
   xmlns:sodipodi="http://sodipodi.sourceforge.net/DTD/sodipodi-0.dtd"
   xmlns="http://www.w3.org/2000/svg"
   xmlns:svg="http://www.w3.org/2000/svg">
  <sodipodi:namedview
     id="namedview1"
     pagecolor="#ffffff"
     bordercolor="#666666"
     borderopacity="1.0"
     inkscape:showpageshadow="2"
     inkscape:pageopacity="0.0"
     inkscape:pagecheckerboard="0"
     inkscape:deskcolor="#d1d1d1"
     inkscape:document-units="mm"
     inkscape:zoom="2.8284271"
     inkscape:cx="55.861436"
     inkscape:cy="51.265242"
     inkscape:window-width="1440"
     inkscape:window-height="847"
     inkscape:window-x="0"
     inkscape:window-y="25"
     inkscape:window-maximized="1"
     inkscape:current-layer="svg1" />
  <defs
     id="defs1" />
  <circle
     class="cls-4"
     cx="4.6880121"
     cy="8.6392565"
     r="0.97366667"
     id="attach-point"
     style="fill:#ed1c24;stroke-width:0.264583" />
  <path
     class="cls-11"
     d="M 7.2809686e-5,4.3913827 C 0.01563438,7.9378995 2.5359837,12.304759 5.6021433,14.092063 8.6683029,15.879357 11.160535,14.441409 11.14495,10.891768 11.129388,7.3452513 8.6090392,2.9783804 5.5428797,1.191087 2.4767083,-0.59620634 -0.01552412,0.84174161 7.2809686e-5,4.3913827 Z"
     id="path3"
     style="fill:#dcdcff;stroke-width:0.264583" />
  <path
     class="cls-5"
     d="M 8.4967484,12.859977 C 9.3389358,12.43577 9.8660721,11.437625 9.8598357,9.9965654 9.8473393,7.2298364 7.8822668,3.8236801 5.4898525,2.4294107 3.1005504,1.0351295 1.1541753,2.1580381 1.1666482,4.9247555 c 0.00589,1.3849206 0.5021907,2.9257988 1.294475,4.2982468 L 3.6214621,8.5180631 C 3.1442171,7.682124 2.8447748,6.7432426 2.8416624,5.9010671 2.8357679,4.197983 4.0300712,3.5086408 5.499213,4.3664252 6.968343,5.2241978 8.1785968,7.3171816 8.1848333,9.0202538 8.1883733,9.87179 7.8916273,10.470674 7.4081577,10.748284 L 8.4936361,12.8631 Z"
     id="path4"
     style="fill:#ffffff;stroke-width:0.264583" />
  <path
     class="cls-2"
     d="M 9.2266448,5.018337 9.99396,4.57541 c 1.147866,1.849681 1.877751,3.989444 1.887111,5.892152 0.0059,1.77482 -0.611358,3.022493 -1.615739,3.599544 L 9.4980174,14.510033 C 10.502387,13.929857 11.123105,12.682185 11.113756,10.910489 11.104325,9.007781 10.374499,6.8680182 9.2266448,5.018337 Z"
     id="path5"
     style="fill:#080833;stroke-width:0.264583" />
  <path
     class="cls-9"
     d="M 1.5846296,0.81054774 2.3519446,0.36762069 C 3.356326,-0.21254294 4.7443708,-0.12520944 6.2790126,0.76688103 7.6982395,1.5965838 9.0020632,2.9783804 9.99396,4.57541 L 9.2266448,5.018337 C 8.2347363,3.4213074 6.9340367,2.0395108 5.5116858,1.2098081 3.980168,0.31459347 2.5889991,0.23037237 1.5846296,0.81054774 Z"
     id="path6"
     style="fill:#a2a2fc;stroke-width:0.264583" />
  <path
     class="cls-2"
     d="M 5.8797522,8.3184389 C 6.0856129,8.9048507 5.9608611,9.4819019 5.5990192,9.6066657 5.237201,9.7345534 4.778677,9.3602505 4.5759285,8.7769629 4.3700679,8.190551 4.497885,7.6134998 4.8566616,7.485612 c 0.093605,-0.031241 0.1965002,-0.031241 0.3025547,0 0.04362,0.012496 0.087357,-0.00354 0.1029188,-0.046803 C 5.5272712,6.7182849 5.9109346,5.6640004 6.2758771,4.6689677 6.331993,4.5161342 6.5597224,4.5910415 6.5160557,4.746894 L 5.6769921,7.8629683 c -0.0059,0.024993 0,0.049867 0.012496,0.071678 0.074861,0.1123498 0.1403725,0.2433028 0.1902755,0.3867875 z"
     id="path7"
     style="fill:#080833;stroke-width:0.264583" />
</svg>
