<?xml version="1.0" encoding="UTF-8" standalone="no"?>
<!-- Created with Inkscape (http://www.inkscape.org/) -->

<svg
   width="37.650032mm"
   height="23.222956mm"
   viewBox="0 0 37.650032 23.222956"
   version="1.1"
   id="svg1"
   inkscape:version="1.3.2 (091e20e, 2023-11-25)"
   sodipodi:docname="flowchart2D.svg"
   xmlns:inkscape="http://www.inkscape.org/namespaces/inkscape"
   xmlns:sodipodi="http://sodipodi.sourceforge.net/DTD/sodipodi-0.dtd"
   xmlns="http://www.w3.org/2000/svg"
   xmlns:svg="http://www.w3.org/2000/svg">
  <sodipodi:namedview
     id="namedview1"
     pagecolor="#ffffff"
     bordercolor="#666666"
     borderopacity="1.0"
     inkscape:showpageshadow="2"
     inkscape:pageopacity="0.0"
     inkscape:pagecheckerboard="0"
     inkscape:deskcolor="#d1d1d1"
     inkscape:document-units="mm"
     inkscape:zoom="1.6819304"
     inkscape:cx="14.269318"
     inkscape:cy="63.022822"
     inkscape:window-width="1312"
     inkscape:window-height="431"
     inkscape:window-x="0"
     inkscape:window-y="25"
     inkscape:window-maximized="0"
     inkscape:current-layer="svg1" />
  <defs
     id="defs1" />
  <path
     id="path677"
     style="fill:#000000;fill-opacity:0.25;stroke:none;stroke-width:0.396876;stroke-linecap:round;stroke-dasharray:none"
     d="m 11.29966,15.55869 c 0,0 -0.55882,0.32243 -0.77853,0.44901 l -0.50628,-0.28994 c 0,0 -0.59225,0.33962 -0.84539,0.48627 L 8.52467,15.83096 c 0,0 -0.56359,0.32243 -0.7833,0.44902 l -0.5015,-0.28995 c 0,0 -3.94038,2.25127 -5.45922,3.15264 -1.88183,3.41775 3.55829,2.2871 7.06403,4.08029 l 0.72121,-0.41558 c 0.19105,0.0788 0.3821,0.16289 0.56359,0.25699 l 0.75942,-0.43851 c 0.25314,0.097 0.49673,0.20349 0.73554,0.32482 0.20538,-0.11894 0.44419,-0.25794 0.71643,-0.41557 0.19583,0.0788 0.3821,0.16288 0.56837,0.25651 1.55705,-0.90089 5.45922,-3.15265 5.45922,-3.15265 z" />
  <path
     id="path678"
     style="fill:#000000;fill-opacity:0.25;stroke:none;stroke-width:0.396876;stroke-linecap:round;stroke-dasharray:none"
     d="m 30.92036,15.16986 6.29028,3.63223 c 0.2006,0.11464 0.17672,0.31431 -0.0525,0.44663 l -3.8162,2.20159 c -0.22448,0.13232 -0.57315,0.14665 -0.76897,0.032 l -6.29028,-3.63223 c -0.0955,-0.0549 -0.14329,-0.13279 -0.13373,-0.21639 0.01,-0.0841 0.0764,-0.16671 0.18627,-0.23024 l 3.81142,-2.20159 c 0.10985,-0.0635 0.25314,-0.10222 0.4012,-0.10843 0.14329,-0.006 0.27702,0.0215 0.37255,0.0764 z" />
  <path
     style="fill:#000000;fill-opacity:0.5;stroke:none;stroke-width:0.396876;stroke-linecap:butt;stroke-linejoin:miter;stroke-dasharray:none;stroke-opacity:1"
     d="m 24.00917,9.38572 1.15107,5.16651 -8.95063,-0.66253 z"
     id="path679" />
  <path
     id="path680"
     style="fill:#000000;fill-opacity:0.25;stroke:none;stroke-width:0.396876;stroke-linecap:round;stroke-dasharray:none"
     d="m 17.93382,0.67392 4.55174,2.62816 c 0.0716,0.0401 0.10507,0.096 0.0955,0.15667 -0.005,0.0607 -0.0525,0.12038 -0.13373,0.16576 l -2.7511,1.58826 c -0.0764,0.0454 -0.1815,0.0736 -0.28658,0.0779 -0.10507,0.004 -0.2006,-0.0158 -0.27224,-0.0554 L 14.58567,2.60711 c -0.0669,-0.0396 -0.1003,-0.096 -0.0955,-0.15668 0.01,-0.0602 0.0573,-0.11989 0.13851,-0.16575 L 17.375,0.6969 c 0.0812,-0.0459 0.18628,-0.074 0.29135,-0.0783 0.1003,-0.004 0.2006,0.0158 0.26747,0.0554 z" />
  <path
     id="path683"
     style="fill:#000000;fill-opacity:0.25;stroke:none;stroke-width:0.396876;stroke-linecap:round;stroke-dasharray:none"
     d="m 13.14328,3.44108 4.55173,2.62816 c 0.0669,0.0396 0.10508,0.096 0.0955,0.15667 -0.005,0.0602 -0.0573,0.1199 -0.13373,0.16576 l -2.7511,1.58778 c -0.0812,0.0459 -0.1815,0.074 -0.28657,0.0783 -0.10508,0.004 -0.2006,-0.0158 -0.27225,-0.0559 L 9.79513,5.37417 c -0.0669,-0.0401 -0.1003,-0.0965 -0.0955,-0.15668 0.01,-0.0607 0.0573,-0.12037 0.13374,-0.16575 l 2.7511,-1.58826 c 0.0812,-0.0454 0.18149,-0.0736 0.28657,-0.0779 0.10508,-0.004 0.20538,0.0158 0.27225,0.0554 z" />
  <path
     id="path684"
     style="fill:#000000;fill-opacity:0.25;stroke:none;stroke-width:0.396876;stroke-linecap:round;stroke-dasharray:none"
     d="m 8.32885,6.22018 4.55173,2.62816 c 0.0717,0.0396 0.10508,0.096 0.0955,0.15668 -0.005,0.0602 -0.0525,0.11989 -0.13374,0.16575 l -2.7511,1.58778 c -0.0764,0.0459 -0.18149,0.074 -0.28657,0.0783 -0.10508,0.004 -0.2006,-0.0158 -0.27225,-0.0554 L 4.98069,8.15329 c -0.0669,-0.0396 -0.1003,-0.096 -0.0955,-0.15667 0.01,-0.0602 0.0573,-0.1199 0.13851,-0.16576 L 7.77002,6.24308 c 0.0812,-0.0459 0.18627,-0.074 0.29135,-0.0783 0.1003,-0.004 0.2006,0.0158 0.26747,0.0554 z" />
  <path
     id="path685"
     style="fill:#000000;fill-opacity:0.25;stroke:none;stroke-width:0.396876;stroke-linecap:round;stroke-dasharray:none"
     d="m 3.5383,8.98734 4.55174,2.62816 c 0.0669,0.0397 0.10507,0.096 0.0955,0.1562 -0.005,0.0607 -0.0573,0.12037 -0.13373,0.16623 l -2.7511,1.58778 c -0.0812,0.0459 -0.1815,0.0736 -0.28658,0.0779 -0.10507,0.004 -0.20537,-0.0153 -0.27224,-0.0554 L 0.19015,10.92006 c -0.0669,-0.0396 -0.10507,-0.096 -0.0955,-0.1562 0.01,-0.0607 0.0573,-0.12038 0.13373,-0.16623 l 2.7511,-1.58779 c 0.0812,-0.0459 0.1815,-0.0736 0.28658,-0.0779 0.10507,-0.004 0.20537,0.0158 0.27224,0.0554 z" />
  <path
     id="path686"
     style="fill:#fae36f;fill-opacity:1;stroke:#000000;stroke-width:0.396876;stroke-linecap:round;stroke-dasharray:none"
     d="m 18.0389,0.25452 4.55173,2.62816 c 0.0717,0.0396 0.10508,0.096 0.0955,0.1562 -0.005,0.0607 -0.0525,0.12037 -0.13374,0.16623 l -2.7511,1.58778 c -0.0764,0.0459 -0.18149,0.074 -0.28657,0.0779 -0.10508,0.004 -0.2006,-0.0153 -0.27225,-0.0554 L 14.69074,2.18724 c -0.0669,-0.0396 -0.1003,-0.096 -0.0955,-0.1562 0.01,-0.0607 0.0573,-0.12038 0.13851,-0.16623 l 2.74632,-1.58779 c 0.0812,-0.0459 0.18627,-0.0736 0.29135,-0.0779 0.10508,-0.004 0.2006,0.0158 0.26747,0.0554 z" />
  <path
     id="path687"
     style="fill:#000000;stroke:#000000;stroke-width:0.396876;stroke-linecap:round;stroke-dasharray:none"
     d="m 13.24835,3.0212 4.55174,2.62816 c 0.0669,0.0397 0.10507,0.096 0.0955,0.15668 -0.005,0.0607 -0.0573,0.11989 -0.13373,0.16575 l -2.7511,1.58779 c -0.0812,0.0459 -0.1815,0.074 -0.28658,0.0783 -0.10507,0.004 -0.2006,-0.0158 -0.27224,-0.0554 L 9.9002,4.95433 C 9.8333,4.91473 9.7999,4.85833 9.8047,4.79765 9.8147,4.73745 9.862,4.67775 9.93843,4.6319 l 2.7511,-1.58779 c 0.0812,-0.0459 0.1815,-0.074 0.28658,-0.0783 0.10507,-0.004 0.20537,0.0158 0.27224,0.0554 z" />
  <path
     id="path688"
     style="fill:#fae36f;fill-opacity:1;stroke:#000000;stroke-width:0.396876;stroke-linecap:round;stroke-dasharray:none"
     d="m 8.43392,5.80078 4.55174,2.62816 c 0.0716,0.0396 0.10508,0.096 0.0955,0.1562 -0.005,0.0607 -0.0525,0.12037 -0.13373,0.16623 l -2.7511,1.58779 c -0.0764,0.0459 -0.1815,0.0736 -0.28657,0.0779 -0.10508,0.004 -0.20061,-0.0158 -0.27225,-0.0554 L 5.08578,7.7335 C 5.01888,7.6939 4.98548,7.6375 4.99028,7.5773 5.00028,7.5166 5.04758,7.45693 5.12879,7.41107 L 7.87512,5.82328 c 0.0812,-0.0459 0.18627,-0.074 0.29135,-0.0779 0.1003,-0.004 0.2006,0.0153 0.26746,0.0554 z" />
  <path
     id="path689"
     style="fill:#000000;stroke:#000000;stroke-width:0.396876;stroke-linecap:round;stroke-dasharray:none"
     d="m 3.64338,8.56747 4.55173,2.62815 c 0.0669,0.0396 0.10508,0.096 0.0955,0.15668 -0.005,0.0602 -0.0573,0.1199 -0.13374,0.16575 l -2.7511,1.58779 c -0.0812,0.0459 -0.18149,0.074 -0.28657,0.0783 -0.10508,0.004 -0.20538,-0.0158 -0.27224,-0.0554 L 0.29522,10.50058 c -0.0669,-0.0401 -0.10508,-0.096 -0.0955,-0.15668 0.01,-0.0607 0.0573,-0.11989 0.13373,-0.16575 l 2.7511,-1.58779 c 0.0812,-0.0459 0.1815,-0.074 0.28657,-0.0783 0.10508,-0.004 0.20538,0.0158 0.27225,0.0554 z" />
  <path
     style="fill:#fae36f;fill-opacity:1;stroke:#000000;stroke-width:0.396876;stroke-linecap:butt;stroke-linejoin:miter;stroke-dasharray:none;stroke-opacity:1"
     d="m 24.11425,8.96632 1.15107,5.16652 -8.95064,-0.66301 z"
     id="path690" />
  <path
     style="fill:none;stroke:#000000;stroke-width:0.396876;stroke-linecap:butt;stroke-linejoin:miter;stroke-dasharray:none;stroke-opacity:1"
     d="m 21.26284,4.04868 2.65558,1.53333 -6.72969,3.8873 3.02812,1.74876"
     id="path691"
     sodipodi:nodetypes="cccc" />
  <path
     style="fill:none;stroke:#000000;stroke-width:0.396876;stroke-linecap:butt;stroke-linejoin:miter;stroke-dasharray:none;stroke-opacity:1"
     d="m 16.38633,6.76568 2.74155,1.58349"
     id="path692"
     sodipodi:nodetypes="cc" />
  <path
     style="fill:none;stroke:#000000;stroke-width:0.396876;stroke-linecap:butt;stroke-linejoin:miter;stroke-dasharray:none;stroke-opacity:1"
     d="m 11.5719,9.54526 2.74155,1.58301 2.87528,-1.65896"
     id="path693"
     sodipodi:nodetypes="ccc" />
  <path
     style="fill:none;stroke:#000000;stroke-width:0.396876;stroke-linecap:butt;stroke-linejoin:miter;stroke-dasharray:none;stroke-opacity:1"
     d="m 6.64762,12.38981 2.74155,1.58348 4.9195,-2.84932"
     id="path694"
     sodipodi:nodetypes="ccc" />
  <path
     id="path695"
     style="fill:#ffffff;stroke:#000000;stroke-width:0.396876;stroke-linecap:round;stroke-dasharray:none"
     d="m 11.40473,15.13882 7.0688,4.08028 c 0,0 -3.90217,2.25223 -5.45921,3.15312 -3.51052,-1.79366 -8.95063,-0.66301 -7.0688,-4.08076 1.52361,-0.90137 5.45921,-3.15264 5.45921,-3.15264 z"
     sodipodi:nodetypes="ccccc" />
  <path
     id="path696"
     style="fill:#fae36f;fill-opacity:1;stroke:#000000;stroke-width:0.396876;stroke-linecap:round;stroke-dasharray:none"
     d="m 10.11993,15.29788 7.0688,4.08028 c 0,0 -3.90217,2.25176 -5.45922,3.15265 -3.50574,-1.79319 -8.95063,-0.66254 -7.0688,-4.08029 1.52362,-0.90184 5.45922,-3.15264 5.45922,-3.15264 z"
     sodipodi:nodetypes="ccccc" />
  <path
     id="path697"
     style="fill:#ffffff;stroke:#000000;stroke-width:0.396876;stroke-linecap:round;stroke-dasharray:none"
     d="m 8.62975,15.41157 7.06403,4.08028 c 0,0 -3.8974,2.25175 -5.45922,3.15264 C 6.72881,20.85131 1.2887,21.98196 3.17053,18.56421 4.68937,17.66236 8.62975,15.41157 8.62975,15.41157 Z"
     sodipodi:nodetypes="ccccc" />
  <path
     id="path698"
     style="fill:#fae36f;fill-opacity:1;stroke:#000000;stroke-width:0.396876;stroke-linecap:round;stroke-dasharray:none"
     d="m 7.34495,15.57015 7.06402,4.08077 c 0,0 -3.89739,2.25175 -5.45921,3.15264 C 5.44401,21.0099 0.0039,22.14055 1.88573,18.72328 3.40457,17.82143 7.34495,15.57015 7.34495,15.57015 Z"
     sodipodi:nodetypes="ccccc" />
  <path
     style="fill:none;stroke:#000000;stroke-width:0.396876;stroke-linecap:butt;stroke-linejoin:miter;stroke-dasharray:none;stroke-opacity:1"
     d="m 19.89685,13.73493 -5.45922,3.15265"
     id="path699" />
  <path
     id="path700"
     style="fill:#ffffff;stroke:#000000;stroke-width:0.396876;stroke-linecap:round;stroke-dasharray:none"
     d="m 31.02543,14.74999 6.29028,3.6327 c 0.2006,0.11417 0.17672,0.31431 -0.0525,0.44615 l -3.81142,2.2016 c -0.22926,0.13231 -0.57792,0.14664 -0.77375,0.0325 l -6.29027,-3.63271 c -0.0955,-0.0549 -0.14329,-0.13279 -0.13374,-0.21638 0.01,-0.0836 0.0764,-0.16623 0.18627,-0.22976 l 3.81143,-2.2016 c 0.11463,-0.0635 0.25314,-0.1027 0.4012,-0.10891 0.14328,-0.006 0.27702,0.0215 0.37254,0.0764 z" />
  <path
     style="fill:none;stroke:#000000;stroke-width:0.396876;stroke-linecap:butt;stroke-linejoin:miter;stroke-dasharray:none;stroke-opacity:1"
     d="m 25.26532,14.13284 3.05677,1.76548"
     id="path701" />
  <circle
     style="fill:#ff0000;stroke-width:0.529168;stroke-linecap:round;stroke-miterlimit:4.1;stroke-dasharray:none"
     id="attach-point"
     cx="17.885935"
     cy="13.681548"
     inkscape:label="attach-top"
     r="0.83869553" />
</svg>
