<?xml version="1.0" encoding="UTF-8" standalone="no"?>
<!-- Created with Inkscape (http://www.inkscape.org/) -->

<svg
   width="44.873489mm"
   height="38.195118mm"
   viewBox="0 0 44.873489 38.195118"
   version="1.1"
   id="svg1"
   xmlns="http://www.w3.org/2000/svg"
   xmlns:svg="http://www.w3.org/2000/svg">
  <defs
     id="defs1" />
  <path
     id="path1225"
     style="fill:#ffffff;stroke:#000000;stroke-width:0.396875;stroke-linecap:square;stroke-linejoin:bevel;stroke-dasharray:none"
     d="m 25.769306,33.18937 a 3.1501611,3.1529817 0 0 0 3.15016,3.15298 3.1501611,3.1529817 0 0 0 3.15016,-3.15298 3.1501611,3.1529817 0 0 0 -3.15016,-3.15298 3.1501611,3.1529817 0 0 0 -3.15016,3.15298 z" />
  <path
     id="path1229"
     style="fill:#ffffff;stroke:#000000;stroke-width:0.396875;stroke-linecap:square;stroke-linejoin:bevel;stroke-dasharray:none"
     d="m 38.374826,24.54343 a 3.1501611,3.1529817 0 0 0 3.15016,3.15298 3.1501611,3.1529817 0 0 0 3.15016,-3.15298 3.1501611,3.1529817 0 0 0 -3.15016,-3.15298 3.1501611,3.1529817 0 0 0 -3.15016,3.15298 z" />
  <path
     id="path1230"
     style="fill:#000000;stroke:none;stroke-width:0.793751;stroke-linecap:square;stroke-linejoin:bevel;stroke-dasharray:none"
     d="m 39.681456,27.09915 a 3.1501611,3.1529817 0 0 0 2.13838,0.0491 3.1501611,3.1529817 0 0 0 1.98486,-3.99194 3.1501611,3.1529817 0 0 0 -1.15425,-1.55285 3.1501611,3.1529817 0 0 1 1.8612,1.93735 3.1501611,3.1529817 0 0 1 -1.9849,3.99194 3.1501611,3.1529817 0 0 1 -2.84529,-0.4336 z" />
  <path
     id="path1226"
     style="fill:#000000;stroke:none;stroke-width:0.793751;stroke-linecap:square;stroke-linejoin:bevel;stroke-dasharray:none"
     d="m 27.075936,35.74508 a 3.1501611,3.1529817 0 0 0 2.13838,0.0491 3.1501611,3.1529817 0 0 0 1.98486,-3.99194 3.1501611,3.1529817 0 0 0 -1.15425,-1.55285 3.1501611,3.1529817 0 0 1 1.8612,1.93735 3.1501611,3.1529817 0 0 1 -1.9849,3.99194 3.1501611,3.1529817 0 0 1 -2.84529,-0.43361 z" />
  <path
     style="color:#000000;fill:#000000;stroke:none;stroke-width:1;stroke-linecap:round;-inkscape-stroke:none"
     d="m 17.985536,21.42738 a 0.45713758,0.45754839 0 0 0 -0.50525,0.40338 0.45713758,0.45754839 0 0 0 0.40301,0.50663 l 23.59094,2.66057 a 0.45713758,0.45754839 0 0 0 0.5052,-0.40338 0.45713758,0.45754839 0 0 0 -0.40301,-0.50568 z"
     id="path1250" />
  <path
     style="color:#000000;fill:#000000;stroke:none;stroke-width:1;stroke-linecap:round;-inkscape-stroke:none"
     d="m 17.615296,21.55476 a 0.45713758,0.45754839 0 0 0 -0.009,0.64657 l 10.98556,11.30714 a 0.45713758,0.45754839 0 0 0 0.64599,0.009 0.45713758,0.45754839 0 0 0 0.009,-0.64656 L 18.262216,21.56346 a 0.45713758,0.45754839 0 0 0 -0.64692,-0.009 z"
     id="path1249" />
  <path
     id="path1219"
     style="fill:#ffffff;stroke:#000000;stroke-width:0.396875;stroke-linecap:square;stroke-linejoin:bevel;stroke-dasharray:none"
     d="m 14.784286,21.88237 c 0,1.74134 1.41039,3.15298 3.15015,3.15298 1.73976,0 3.15016,-1.41164 3.15016,-3.15298 0,-1.74135 -1.41035,-3.15299 -3.15016,-3.15299 -1.73981,0 -3.15015,1.41164 -3.15015,3.15299 z" />
  <path
     id="path1227"
     style="fill:#ffffff;stroke:#000000;stroke-width:0.396875;stroke-linecap:square;stroke-linejoin:bevel;stroke-dasharray:none"
     d="m 22.737036,12.42627 c 0,1.74135 1.41039,3.15298 3.15015,3.15298 1.73976,0 3.15016,-1.41163 3.15016,-3.15298 0,-1.74134 -1.41035,-3.15298 -3.15016,-3.15298 -1.73981,0 -3.15015,1.41164 -3.15015,3.15298 z" />
  <path
     id="path1228"
     style="fill:#000000;stroke:none;stroke-width:0.793751;stroke-linecap:square;stroke-linejoin:bevel;stroke-dasharray:none"
     d="m 24.043666,14.98199 a 3.1501611,3.1529817 0 0 0 2.13838,0.0491 3.1501611,3.1529817 0 0 0 1.98485,-3.99194 3.1501611,3.1529817 0 0 0 -1.15424,-1.55285 3.1501611,3.1529817 0 0 1 1.8612,1.93735 3.1501611,3.1529817 0 0 1 -1.98491,3.99194 3.1501611,3.1529817 0 0 1 -2.84528,-0.4336 z" />
  <path
     style="color:#000000;fill:#000000;stroke:none;stroke-width:1;stroke-linecap:round;-inkscape-stroke:none"
     d="m 16.617386,3.01961 a 0.45713758,0.45754839 0 0 0 -0.64598,0.0174 0.45713758,0.45754839 0 0 0 0.0183,0.64657 l 9.58371,9.07505 a 0.45713758,0.45754839 0 0 0 0.64599,-0.0183 0.45713758,0.45754839 0 0 0 -0.0183,-0.64656 z"
     id="path1244" />
  <path
     id="path1223"
     style="fill:#ffffff;stroke:#000000;stroke-width:0.396875;stroke-linecap:square;stroke-linejoin:bevel;stroke-dasharray:none"
     d="m 35.028736,11.6276 a 3.1501611,3.1529817 0 0 0 3.15016,3.15298 3.1501611,3.1529817 0 0 0 3.15016,-3.15298 3.1501611,3.1529817 0 0 0 -3.15016,-3.15299 3.1501611,3.1529817 0 0 0 -3.15016,3.15299 z" />
  <path
     style="color:#000000;fill:#000000;stroke:none;stroke-width:1;stroke-linecap:round;-inkscape-stroke:none"
     d="m 16.467966,2.92408 a 0.45713758,0.45754839 0 0 0 -0.59105,0.26345 0.45713758,0.45754839 0 0 0 0.26223,0.59059 l 21.17187,8.16214 a 0.45713758,0.45754839 0 0 0 0.59104,-0.26248 0.45713758,0.45754839 0 0 0 -0.26227,-0.59156 z"
     id="path1247" />
  <path
     id="path1217"
     style="fill:#ffffff;stroke:#000000;stroke-width:0.396875;stroke-linecap:square;stroke-linejoin:bevel;stroke-dasharray:none"
     d="m 13.153276,3.35151 c 0,1.74134 1.41035,3.15298 3.15015,3.15298 1.73981,0 3.15016,-1.41164 3.15016,-3.15298 0,-1.74135 -1.4104,-3.15298 -3.15016,-3.15298 -1.73976,0 -3.15015,1.41163 -3.15015,3.15298 z" />
  <path
     id="path1218"
     style="fill:#000000;stroke:none;stroke-width:0.793751;stroke-linecap:square;stroke-linejoin:bevel;stroke-dasharray:none"
     d="m 14.459906,5.90722 a 3.1501611,3.1529817 0 0 0 2.13838,0.0491 3.1501611,3.1529817 0 0 0 1.98485,-3.99194 3.1501611,3.1529817 0 0 0 -1.15424,-1.55285 3.1501611,3.1529817 0 0 1 1.8612,1.93735 3.1501611,3.1529817 0 0 1 -1.98491,3.99194 3.1501611,3.1529817 0 0 1 -2.84528,-0.4336 z" />
  <path
     id="path1224"
     style="fill:#000000;stroke:none;stroke-width:0.793751;stroke-linecap:square;stroke-linejoin:bevel;stroke-dasharray:none"
     d="m 36.335376,14.18331 a 3.1501611,3.1529817 0 0 0 2.13838,0.0491 3.1501611,3.1529817 0 0 0 1.98485,-3.99194 3.1501611,3.1529817 0 0 0 -1.15424,-1.55285 3.1501611,3.1529817 0 0 1 1.86119,1.93735 3.1501611,3.1529817 0 0 1 -1.9849,3.99194 3.1501611,3.1529817 0 0 1 -2.84528,-0.4336 z" />
  <path
     style="color:#000000;fill:#000000;stroke:none;stroke-width:1;stroke-linecap:round;-inkscape-stroke:none"
     d="M 16.143986,2.92215 3.189606,7.73663 a 0.45713758,0.45754839 0 0 0 -0.26998,0.58867 0.45713758,0.45754839 0 0 0 0.58813,0.26924 l 12.95438,-4.81449 a 0.45713758,0.45754839 0 0 0 0.26998,-0.5877 0.45713758,0.45754839 0 0 0 -0.58813,-0.2702 z"
     id="path1243" />
  <path
     id="path1220"
     style="fill:#000000;stroke:none;stroke-width:0.793751;stroke-linecap:square;stroke-linejoin:bevel;stroke-dasharray:none"
     d="m 16.090916,24.43808 a 3.1501611,3.1529817 0 0 0 2.13838,0.0491 3.1501611,3.1529817 0 0 0 1.98485,-3.99194 3.1501611,3.1529817 0 0 0 -1.15424,-1.55285 3.1501611,3.1529817 0 0 1 1.8612,1.93735 3.1501611,3.1529817 0 0 1 -1.98491,3.99194 3.1501611,3.1529817 0 0 1 -2.84528,-0.4336 z" />
  <path
     id="path1233"
     style="fill:#ffffff;stroke:#000000;stroke-width:0.396875;stroke-linecap:square;stroke-linejoin:bevel;stroke-dasharray:none"
     d="M 0.198349,8.16572 A 3.1501611,3.1529817 0 0 0 3.348506,11.3187 3.1501611,3.1529817 0 0 0 6.498666,8.16572 3.1501611,3.1529817 0 0 0 3.348506,5.01274 3.1501611,3.1529817 0 0 0 0.198349,8.16572 Z" />
  <path
     id="path1234"
     style="fill:#000000;stroke:none;stroke-width:0.793751;stroke-linecap:square;stroke-linejoin:bevel;stroke-dasharray:none"
     d="m 1.504983,10.72143 a 3.1501611,3.1529817 0 0 0 2.138383,0.0491 3.1501611,3.1529817 0 0 0 1.98485,-3.99194 3.1501611,3.1529817 0 0 0 -1.15424,-1.55285 3.1501611,3.1529817 0 0 1 1.86119,1.93735 3.1501611,3.1529817 0 0 1 -1.9849,3.99194 3.1501611,3.1529817 0 0 1 -2.845283,-0.43361 z" />
  <path
     id="path1231"
     style="fill:#ffffff;stroke:#000000;stroke-width:0.396875;stroke-linecap:square;stroke-linejoin:bevel;stroke-dasharray:none"
     d="m 10.978216,34.84361 a 3.1501611,3.1529817 0 0 0 3.15016,3.15298 3.1501611,3.1529817 0 0 0 3.15015,-3.15298 3.1501611,3.1529817 0 0 0 -3.15015,-3.15298 3.1501611,3.1529817 0 0 0 -3.15016,3.15298 z" />
  <path
     style="color:#000000;fill:#000000;stroke:none;stroke-width:1;stroke-linecap:round;-inkscape-stroke:none"
     d="M 3.345796,7.70865 A 0.45713758,0.45754839 0 0 0 2.891686,8.168 l 0.0781,15.06493 a 0.45713758,0.45754839 0 0 0 0.45988,0.45549 0.45713758,0.45754839 0 0 0 0.45415,-0.46031 L 3.805716,8.16317 A 0.45713758,0.45754839 0 0 0 3.345786,7.70865 Z"
     id="path1245" />
  <path
     id="path1232"
     style="fill:#000000;stroke:none;stroke-width:0.793751;stroke-linecap:square;stroke-linejoin:bevel;stroke-dasharray:none"
     d="m 12.284846,37.39933 a 3.1501611,3.1529817 0 0 0 2.13838,0.0491 3.1501611,3.1529817 0 0 0 1.98486,-3.99194 3.1501611,3.1529817 0 0 0 -1.15425,-1.55285 3.1501611,3.1529817 0 0 1 1.8612,1.93735 3.1501611,3.1529817 0 0 1 -1.98491,3.99194 3.1501611,3.1529817 0 0 1 -2.84528,-0.4336 z" />
  <path
     style="color:#000000;fill:#000000;stroke:none;stroke-width:1;stroke-linecap:round;-inkscape-stroke:none"
     d="m 17.891986,21.42641 -14.50764,1.3491 a 0.45713758,0.45754839 0 0 0 -0.41264,0.49795 0.45713758,0.45754839 0 0 0 0.4975,0.41303 l 14.50764,-1.34813 a 0.45713758,0.45754839 0 0 0 0.41264,-0.49795 0.45713758,0.45754839 0 0 0 -0.4975,-0.414 z"
     id="path1246" />
  <path
     style="color:#000000;fill:#000000;stroke:none;stroke-width:1;stroke-linecap:round;-inkscape-stroke:none"
     d="m 3.117286,22.89421 a 0.45713758,0.45754839 0 0 0 -0.0262,0.64657 l 10.70113,11.61305 a 0.45713758,0.45754839 0 0 0 0.64599,0.026 0.45713758,0.45754839 0 0 0 0.0262,-0.64657 L 3.763216,22.92025 a 0.45713758,0.45754839 0 0 0 -0.64598,-0.026 z"
     id="path1248" />
  <path
     id="path1221"
     style="fill:#ffffff;stroke:#000000;stroke-width:0.396875;stroke-linecap:square;stroke-linejoin:bevel;stroke-dasharray:none"
     d="m 0.276691,23.23082 a 3.1501611,3.1529817 0 0 0 3.150155,3.15298 3.1501611,3.1529817 0 0 0 3.15016,-3.15298 3.1501611,3.1529817 0 0 0 -3.15016,-3.15298 3.1501611,3.1529817 0 0 0 -3.150155,3.15298 z" />
  <path
     id="path1222"
     style="fill:#000000;stroke:none;stroke-width:0.793751;stroke-linecap:square;stroke-linejoin:bevel;stroke-dasharray:none"
     d="m 1.583324,25.78654 a 3.1501611,3.1529817 0 0 0 2.138382,0.0491 3.1501611,3.1529817 0 0 0 1.98485,-3.99194 3.1501611,3.1529817 0 0 0 -1.15424,-1.55285 3.1501611,3.1529817 0 0 1 1.8612,1.93735 3.1501611,3.1529817 0 0 1 -1.98491,3.99194 3.1501611,3.1529817 0 0 1 -2.845282,-0.4336 z" />
  <circle
     style="fill:#ff0000;stroke-width:0.529168;stroke-linecap:round;stroke-miterlimit:4.1;stroke-dasharray:none"
     id="attach-point"
     cx="20.835989"
     cy="29.422871"
     r="0.83869553" />
</svg>
