<?xml version="1.0" encoding="UTF-8" standalone="no"?>
<!-- Created with Inkscape (http://www.inkscape.org/) -->

<svg
   width="45.530628mm"
   height="26.470095mm"
   viewBox="0 0 45.530628 26.470095"
   version="1.1"
   id="svg1"
   inkscape:version="1.3.2 (091e20e, 2023-11-25)"
   sodipodi:docname="jigsaw2D.svg"
   xmlns:inkscape="http://www.inkscape.org/namespaces/inkscape"
   xmlns:sodipodi="http://sodipodi.sourceforge.net/DTD/sodipodi-0.dtd"
   xmlns="http://www.w3.org/2000/svg"
   xmlns:svg="http://www.w3.org/2000/svg">
  <sodipodi:namedview
     id="namedview1"
     pagecolor="#ffffff"
     bordercolor="#666666"
     borderopacity="1.0"
     inkscape:showpageshadow="2"
     inkscape:pageopacity="0.0"
     inkscape:pagecheckerboard="0"
     inkscape:deskcolor="#d1d1d1"
     inkscape:document-units="mm"
     inkscape:zoom="1"
     inkscape:cx="195"
     inkscape:cy="119"
     inkscape:window-width="1440"
     inkscape:window-height="847"
     inkscape:window-x="0"
     inkscape:window-y="25"
     inkscape:window-maximized="1"
     inkscape:current-layer="svg1" />
  <defs
     id="defs1" />
  <path
     d="m 22.97389,0.25818 c -0.113225,-0.0669 -0.303649,-0.0669 -0.416874,0 L 18.07433,2.84449 v 0 l -1.960854,1.13415 v 0 L 11.63079,6.56495 c -0.118372,0.0674 -0.113225,0.17496 0,0.24237 l 4.482686,2.58631 c 0.231597,-0.13585 0.411728,-0.41012 0.51466,-0.59743 0.08749,-0.1693 0.247036,-0.32574 0.463193,-0.45541 0.777137,-0.44769 2.032906,-0.44769 2.810042,-5.2e-4 0.77199,0.44769 0.77199,1.17326 0,1.62044 -0.22645,0.12556 -0.499219,0.21715 -0.792575,0.26964 -0.324236,0.0587 -0.797723,0.16158 -1.034466,0.29743 l 4.482686,2.58631 c 0.113225,0.0669 0.303649,0.0669 0.416874,0 l 4.482686,-2.58631 c 0.236743,0.13585 0.411728,0.40961 0.51466,0.59692 0.09264,0.1693 0.252183,0.32625 0.46834,0.45592 0.77199,0.44769 2.032906,0.44769 2.804895,0 0.777137,-0.44717 0.777137,-1.17274 0,-1.61991 C 31.018021,9.83515 30.750398,9.74304 30.457042,9.69055 30.132807,9.63245 29.654173,9.52897 29.422576,9.39363 l 4.47754,-2.58631 c 0.118371,-0.0674 0.118371,-0.17496 0,-0.24237 L 29.422576,3.97864 C 29.201272,4.10728 29.031435,4.37487 28.928503,4.56218 28.835863,4.73765 28.666026,4.89923 28.439576,5.032 27.66244,5.47917 26.40667,5.47917 25.629534,5.03148 24.857544,4.58431 24.857544,3.85925 25.634634,3.41156 25.855937,3.286 26.128707,3.19441 26.422063,3.14192 26.746299,3.08382 27.219786,2.98034 27.456529,2.84449 Z m -6.860414,3.72046 0.977853,-0.56656 0.0051,-0.002 0.977854,-0.56604 C 17.852979,2.71591 17.683141,2.44781 17.585356,2.2605 17.492716,2.08502 17.322879,1.92344 17.091282,1.79119 c -0.771989,-0.44769 -2.027759,-0.44769 -2.804895,0 -0.77199,0.44718 -0.77199,1.17275 0,1.61992 0.22645,0.12556 0.49922,0.21716 0.792576,0.27016 0.324236,0.0582 0.797723,0.16158 1.034466,0.29692 z"
     style="fill:#fae36f;fill-opacity:1;stroke:#000000;stroke-width:0.396875;stroke-linecap:round;stroke-dasharray:none"
     id="path1278" />
  <path
     d="m 22.556041,13.35899 c 0.115798,-0.072 0.115798,-0.18011 0,-0.247 l -4.480113,-2.58323 h -5.15e-4 l -1.96497,-1.13723 h 5.14e-4 L 11.630845,6.8083 c -0.116314,-0.0669 -0.30365,-0.0669 -0.419963,0 L 6.730769,9.39153 c 0.2352,0.13893 0.710231,0.24185 1.034466,0.29846 0.293357,0.0515 0.564582,0.14408 0.789488,0.27273 0.775078,0.44769 0.775078,1.17325 0,1.6158 -0.774562,0.44769 -2.031361,0.44769 -2.806439,0.005 C 5.531098,11.44972 5.372068,11.29535 5.280973,11.12553 5.1801,10.93514 5.000998,10.66241 4.765799,10.52861 l -4.480113,2.58323 c -0.116313,0.072 -0.116313,0.17496 0,0.247 l 4.480113,2.58322 c -0.2352,0.1338 -0.709716,0.24186 -1.033952,0.29846 -0.29387,0.0515 -0.564581,0.14409 -0.790002,0.26759 -0.775078,0.44769 -0.775078,1.17326 0,1.62095 0.775077,0.44769 2.031362,0.44769 2.806439,0 0.217701,-0.12865 0.376731,-0.28817 0.467826,-0.45284 0.100873,-0.1904 0.27946,-0.46313 0.514659,-0.59692 l 4.480113,2.58322 c 0.116313,0.0669 0.303649,0.0669 0.419448,0 l 4.480113,-2.58322 c -0.221819,-0.12865 -0.686042,-0.22642 -1.010277,-0.28817 -0.304164,-0.0515 -0.584139,-0.14923 -0.813677,-0.28302 -0.775078,-0.44769 -0.774563,-1.17326 0,-1.62095 0.775077,-0.44254 2.031876,-0.44254 2.806439,0 0.217701,0.13379 0.376731,0.28817 0.467826,0.45798 0.100873,0.18525 0.279975,0.46313 0.514659,0.59692 z m -6.445084,-3.96746 0.981971,0.57119 h 0.0021 l 0.980941,0.56604 c 0.221818,-0.12864 0.686042,-0.22642 1.010277,-0.28302 0.304164,-0.0566 0.584139,-0.15438 0.813677,-0.28302 0.775078,-0.44769 0.774563,-1.17326 0,-1.62095 -0.775077,-0.44769 -2.031876,-0.44769 -2.806439,0 -0.217701,0.12865 -0.376731,0.28302 -0.467826,0.45284 -0.100873,0.19039 -0.279975,0.46312 -0.51466,0.59692 z"
     style="fill:#000000;fill-opacity:1;stroke:#000000;stroke-width:0.396875;stroke-linecap:round;stroke-dasharray:none"
     id="path1279" />
  <path
     d="m 22.974151,13.356 c -0.113225,-0.0669 -0.303649,-0.0669 -0.416874,0 l -4.482686,2.58631 v 0 l -1.960853,1.13467 v -5.2e-4 l -4.482687,2.58631 c -0.118371,0.0674 -0.118371,0.17548 0,0.24237 l 4.482687,2.58632 c 0.231596,-0.13586 0.411727,-0.41013 0.514659,-0.59693 0.08749,-0.16981 0.247037,-0.32624 0.463194,-0.45592 0.777136,-0.44769 2.032906,-0.44769 2.810042,0 0.77199,0.44718 0.77199,1.17274 0,1.61992 -0.22645,0.12556 -0.49922,0.21716 -0.792576,0.27016 -0.324236,0.0581 -0.797722,0.16106 -1.034466,0.29691 l 4.482686,2.58632 c 0.113225,0.0669 0.303649,0.0669 0.416874,0 l 4.482687,-2.58632 c 0.236743,0.13585 0.411727,0.40961 0.514659,0.59692 0.09264,0.16982 0.252184,0.32625 0.468341,0.45593 0.771989,0.44769 2.027759,0.44769 2.804895,0 0.777136,-0.44718 0.777136,-1.17274 0,-1.61992 -0.22645,-0.12556 -0.494073,-0.21716 -0.787429,-0.27016 -0.324236,-0.0581 -0.802869,-0.16158 -1.034466,-0.29691 l 4.477539,-2.58632 c 0.118372,-0.0669 0.118372,-0.17496 0,-0.24237 l -4.477539,-2.58631 c -0.221304,0.12865 -0.391142,0.39623 -0.494074,0.58354 -0.09264,0.17548 -0.262476,0.33706 -0.488926,0.46982 -0.777137,0.44718 -2.032906,0.44718 -2.810042,0 -0.77199,-0.44769 -0.77199,-1.17274 0,-1.62043 0.22645,-0.12556 0.49922,-0.21716 0.792576,-0.26965 0.324235,-0.0581 0.797722,-0.16158 1.034466,-0.29743 z m -6.860413,3.72046 0.977853,-0.56656 0.0051,-10e-4 0.977853,-0.56656 c -0.221304,-0.12813 -0.391141,-0.39623 -0.488927,-0.58354 -0.09779,-0.17547 -0.262476,-0.33705 -0.494073,-0.4693 -0.77199,-0.44769 -2.027759,-0.44718 -2.804895,0 -0.77199,0.44717 -0.77199,1.17274 0,1.61992 0.22645,0.12556 0.499219,0.21715 0.792576,0.27015 0.324235,0.0581 0.797722,0.16158 1.034466,0.29692 z"
     style="fill:#fae36f;fill-opacity:1;stroke:#000000;stroke-width:0.396875;stroke-linecap:round;stroke-dasharray:none"
     id="path1280" />
  <path
     d="m 45.245329,13.35899 c 0.115799,-0.072 0.115799,-0.18011 0,-0.247 l -4.480112,-2.58323 h -5.15e-4 L 38.799731,9.39153 h 5.15e-4 L 34.320133,6.8083 c -0.116313,-0.0669 -0.303649,-0.0669 -0.419962,0 l -4.480113,2.58323 c 0.235199,0.13894 0.71023,0.24185 1.034466,0.29846 0.293356,0.0515 0.564582,0.14408 0.789488,0.27273 0.775078,0.44769 0.775078,1.17326 0,1.6158 -0.774563,0.44769 -2.031362,0.44769 -2.806439,0 -0.217187,-0.12865 -0.376217,-0.28302 -0.467311,-0.45284 -0.100874,-0.19039 -0.279975,-0.46312 -0.515175,-0.59692 l -4.480113,2.58323 c -0.116313,0.072 -0.116313,0.17496 0,0.247 l 4.480113,2.58322 c -0.235199,0.1338 -0.709716,0.24186 -1.033951,0.29846 -0.293871,0.0515 -0.564582,0.14409 -0.790003,0.26759 -0.775077,0.44769 -0.775077,1.17326 0,1.62095 0.775078,0.44769 2.031362,0.44769 2.80644,0 0.217701,-0.12865 0.376731,-0.28817 0.467825,-0.45284 0.100874,-0.1904 0.27946,-0.46313 0.51466,-0.59692 l 4.480113,2.58322 c 0.116313,0.0669 0.303649,0.0669 0.419447,0 l 4.480113,-2.58322 c -0.221818,-0.12865 -0.686041,-0.22642 -1.010277,-0.28817 -0.304164,-0.0515 -0.584139,-0.14923 -0.813677,-0.28302 -0.774563,-0.44769 -0.774563,-1.17326 0,-1.62095 0.775078,-0.44254 2.031877,-0.44254 2.80644,0 0.217701,0.13379 0.37673,0.28817 0.467825,0.45798 0.100874,0.18525 0.279975,0.46313 0.515175,0.59692 z m -6.445083,-3.96746 0.981971,0.57119 h 0.0021 l 0.980942,0.56604 c 0.221818,-0.12864 0.686041,-0.22642 1.010277,-0.28302 0.304164,-0.0566 0.584138,-0.15438 0.813677,-0.28302 0.775077,-0.44769 0.775077,-1.17326 0,-1.62095 -0.775078,-0.44769 -2.031877,-0.44769 -2.80644,0 -0.217701,0.12865 -0.376731,0.28302 -0.467825,0.45284 -0.100874,0.19039 -0.279975,0.46312 -0.51466,0.59692 z"
     style="fill:#000000;fill-opacity:1;stroke:#000000;stroke-width:0.396875;stroke-linecap:round;stroke-dasharray:none"
     id="path1281" />
  <circle
     style="fill:#ff0000;stroke-width:0.529168;stroke-linecap:round;stroke-miterlimit:4.1;stroke-dasharray:none"
     id="attach-point"
     cx="22.846622"
     cy="13.159487"
     inkscape:label="attach-point"
     r="0.83869553" />
</svg>
