<?xml version="1.0" encoding="UTF-8" standalone="no"?>
<!-- Created with Inkscape (http://www.inkscape.org/) -->

<svg
   width="46.756371mm"
   height="43.496407mm"
   viewBox="0 0 46.756371 43.496407"
   version="1.1"
   id="svg1"
   inkscape:version="1.3.2 (091e20e, 2023-11-25)"
   sodipodi:docname="laptop3D.svg"
   xmlns:inkscape="http://www.inkscape.org/namespaces/inkscape"
   xmlns:sodipodi="http://sodipodi.sourceforge.net/DTD/sodipodi-0.dtd"
   xmlns="http://www.w3.org/2000/svg"
   xmlns:svg="http://www.w3.org/2000/svg">
  <sodipodi:namedview
     id="namedview1"
     pagecolor="#ffffff"
     bordercolor="#666666"
     borderopacity="1.0"
     inkscape:showpageshadow="2"
     inkscape:pageopacity="0.0"
     inkscape:pagecheckerboard="0"
     inkscape:deskcolor="#d1d1d1"
     inkscape:document-units="mm"
     inkscape:zoom="2.0741397"
     inkscape:cx="113.29998"
     inkscape:cy="82.443818"
     inkscape:window-width="1440"
     inkscape:window-height="847"
     inkscape:window-x="0"
     inkscape:window-y="25"
     inkscape:window-maximized="1"
     inkscape:current-layer="svg1" />
  <defs
     id="defs1" />
  <path
     d="m 0.198437,27.57971 0.0025,1.15641 c -0.01698,0.26324 0.167109,0.55552 0.381772,0.70882 l 23.463216,13.54649 c 0.70808,0.4088 1.58041,0.40887 2.28856,2.5e-4 V 41.8638 c -0.17707,0.10219 -0.36444,0.17878 -0.55692,0.22986 -0.19233,0.0511 -0.38974,0.0766 -0.58722,0.0767 -0.0989,0 -0.19793,-0.006 -0.29621,-0.0191 -0.098,-0.0128 -0.1953,-0.0321 -0.29143,-0.0576 -0.19259,-0.0511 -0.38013,-0.12771 -0.55728,-0.22999 L 0.582208,28.31716 C 0.308403,28.15908 0.187098,27.87385 0.208053,27.5979 Z"
     style="fill:#f3bd5b;stroke:#000000;stroke-width:0.396875;stroke-dasharray:none"
     id="path988" />
  <path
     d="m 21.725975,0.20019 c -0.0959,-0.009 -0.28729,0.0307 -0.28729,0.0307 l -0.79647,0.21257 c 0.0384,-0.003 0.0767,-0.007 0.11604,-0.005 0.1498,0.007 0.29576,0.0499 0.42565,0.12493 l 0.79672,0.45998 22.6665,13.08652 c 0.68508,0.39553 1.04427,1.18173 0.89479,1.95854 l 0.96772,-0.23812 c 0.14953,-0.77685 -0.20967,-1.56312 -0.89479,-1.95867 L 22.151625,0.32514 c -0.1299,-0.075 -0.27837,-0.11172 -0.42565,-0.12493 z m -1.37362,0.3206 -0.0598,0.016 0.008,0.0117 c 0.0175,-0.009 0.0336,-0.0201 0.0518,-0.0278 z m 22.65385,31.24923 c -0.0563,0.0358 -0.1277,0.0647 -0.20056,0.092 0.0754,-0.0276 0.14604,-0.0573 0.20056,-0.092 z m -0.29219,0.12441 c -0.0122,0.004 -0.0247,0.007 -0.0372,0.0102 0.0125,-0.004 0.025,-0.006 0.0372,-0.0102 z m -0.31324,0.0764 c -0.14328,0.0272 -0.28906,0.0506 -0.35815,0.0587 0.0791,-0.009 0.17113,-0.0206 0.35815,-0.0587 z m -0.35815,0.0587 -0.0187,-0.0204 c -0.0363,0.0142 -0.075,0.0212 -0.11279,0.031 l 0.006,0.008 c 0,0 0.0961,-0.0153 0.12585,-0.0188 z"
     style="fill:#f3bd5b;stroke:#000000;stroke-width:0.396875;stroke-dasharray:none"
     id="path989" />
  <path
     d="m 46.509635,15.83029 -0.96772,0.23813 -2.91504,15.14688 -0.019,0.0994 c -0.0649,0.33719 -0.29753,0.58269 -0.5839,0.69449 l 0.0187,0.0204 c 0.17176,-0.0203 0.69407,-0.088 0.96358,-0.25955 0.25232,-0.16061 0.48851,-0.33952 0.56931,-0.69358 0.16246,-0.88174 2.93412,-15.24614 2.93412,-15.24614 z"
     style="stroke:#000000;stroke-width:0.396875;stroke-dasharray:none"
     id="path990" />
  <path
     d="m 20.758255,0.43845 c -0.46741,-0.0223 -0.88013,0.30236 -0.96862,0.76186 l -2.934146,15.24626 c -0.149453,0.77681 0.209742,1.56301 0.894815,1.95854 l 23.463221,13.5465 c 0.56012,0.32337 1.27199,-0.002 1.39427,-0.63693 l 2.93412,-15.24626 c 0.14948,-0.77681 -0.20971,-1.56301 -0.89479,-1.95854 L 21.183905,0.56338 c -0.12989,-0.075 -0.27585,-0.11781 -0.42565,-0.12493 z"
     style="fill:#ffffff;stroke:#000000;stroke-width:0.396875;stroke-dasharray:none"
     id="path991" />
  <path
     d="m 41.617595,32.53278 -0.0254,0.0568 c 0.008,0.26266 -0.11561,0.52797 -0.37376,0.67977 -0.002,10e-4 -0.003,0.003 -0.004,0.004 l -14.87909,8.59046 c -10e-5,7e-5 -2.5e-4,6e-5 0,1.3e-4 v 1.12788 -2.5e-4 -2.4e-4 l 14.87856,-8.59021 c 0.22531,-0.13689 0.36402,-0.3804 0.36682,-0.64402 l 0.004,0.01 z"
     style="stroke:#000000;stroke-width:0.396875;stroke-dasharray:none"
     id="path992" />
  <path
     d="m 16.208254,18.13317 a 2.289095,2.289095 0 0 0 -0.747036,0.27194 l -14.87906,8.59046 a 0.7630313,0.7630313 0 0 0 0,1.32161 l 23.463217,13.5465 a 2.2890945,2.2890945 0 0 0 2.28906,0 l 14.87909,-8.59046 a 0.76303223,0.76303223 0 0 0 0,-1.32161 L 17.750304,18.40511 a 2.289095,2.289095 0 0 0 -1.54205,-0.27194 z"
     style="fill:#fae36f;fill-opacity:1;stroke:#000000;stroke-width:0.396875;stroke-dasharray:none"
     id="path993" />
  <path
     style="fill:#f3bd5b;fill-opacity:1;stroke:#000000;stroke-width:0.198437;stroke-linecap:butt;stroke-linejoin:miter;stroke-dasharray:none;stroke-opacity:1"
     d="m 9.738477,30.9604 4.006838,-2.30461 c 0.354474,-0.20388 0.790293,-0.20422 1.144568,0 l 8.583162,4.94783 c 0.25445,0.14667 0.25457,0.51438 0,0.6608 l -4.00686,2.30462 c -0.35445,0.20387 -0.790297,0.20421 -1.144546,0 L 9.738477,31.6212 c -0.254448,-0.14667 -0.254598,-0.51437 0,-0.6608 z"
     id="path994"
     sodipodi:nodetypes="sssssssss" />
  <path
     id="path995"
     style="fill:#f3bd5b;fill-opacity:1;stroke:#000000;stroke-width:0.198437;stroke-linecap:butt;stroke-linejoin:miter;stroke-dasharray:none;stroke-opacity:1"
     d="m 16.293844,22.06864 c -0.290937,0.12947 -0.572684,0.28938 -0.831702,0.47316 -0.138813,0.16696 0.0045,0.38325 0.182744,0.44203 0.352851,0.20347 0.734124,0.48414 1.164698,0.37127 0.335493,-0.0791 0.615591,-0.30186 0.913022,-0.46696 0.168334,-0.1408 0.06156,-0.39881 -0.128423,-0.45537 -0.362591,-0.2059 -0.749808,-0.50255 -1.192196,-0.3872 -0.03604,0.008 -0.0721,0.0154 -0.108143,0.0231 z" />
  <path
     id="path996"
     style="fill:#f3bd5b;fill-opacity:1;stroke:#000000;stroke-width:0.198437;stroke-linecap:butt;stroke-linejoin:miter;stroke-dasharray:none;stroke-opacity:1"
     d="m 18.010646,23.05985 c -0.290937,0.12947 -0.572683,0.28938 -0.831702,0.47317 -0.138813,0.16695 0.0045,0.38324 0.182744,0.44202 0.352851,0.20347 0.734124,0.48414 1.164698,0.37128 0.335493,-0.0791 0.615589,-0.30187 0.913019,-0.46697 0.16834,-0.1408 0.0616,-0.3988 -0.12842,-0.45537 -0.362591,-0.20589 -0.749808,-0.50255 -1.192196,-0.38719 -0.03604,0.008 -0.0721,0.0154 -0.108143,0.0231 z" />
  <path
     id="path997"
     style="fill:#f3bd5b;fill-opacity:1;stroke:#000000;stroke-width:0.198437;stroke-linecap:butt;stroke-linejoin:miter;stroke-dasharray:none;stroke-opacity:1"
     d="m 19.727445,24.05106 c -0.29093,0.12947 -0.57268,0.28939 -0.831699,0.47317 -0.138813,0.16695 0.0045,0.38325 0.182749,0.44202 0.35285,0.20348 0.73412,0.48415 1.16469,0.37128 0.3355,-0.0791 0.61559,-0.30187 0.91303,-0.46696 0.16833,-0.1408 0.0616,-0.39881 -0.12843,-0.45538 -0.36259,-0.20589 -0.74981,-0.50255 -1.19219,-0.38719 -0.036,0.008 -0.0721,0.0154 -0.10815,0.0231 z" />
  <path
     id="path998"
     style="fill:#f3bd5b;fill-opacity:1;stroke:#000000;stroke-width:0.198437;stroke-linecap:butt;stroke-linejoin:miter;stroke-dasharray:none;stroke-opacity:1"
     d="m 21.444255,25.04228 c -0.29094,0.12946 -0.57269,0.28938 -0.83171,0.47316 -0.13881,0.16696 0.004,0.38325 0.18275,0.44202 0.35285,0.20348 0.73412,0.48415 1.1647,0.37128 0.33549,-0.0791 0.61559,-0.30187 0.91302,-0.46696 0.16833,-0.1408 0.0616,-0.39881 -0.12843,-0.45538 -0.36259,-0.20589 -0.7498,-0.50255 -1.19219,-0.38719 -0.036,0.008 -0.0721,0.0154 -0.10814,0.0231 z" />
  <path
     id="path999"
     style="fill:#f3bd5b;fill-opacity:1;stroke:#000000;stroke-width:0.198437;stroke-linecap:butt;stroke-linejoin:miter;stroke-dasharray:none;stroke-opacity:1"
     d="m 23.161055,26.03349 c -0.29094,0.12947 -0.57269,0.28938 -0.8317,0.47316 -0.13882,0.16696 0.004,0.38325 0.18274,0.44203 0.35285,0.20347 0.73412,0.48414 1.1647,0.37127 0.33549,-0.0792 0.61559,-0.30187 0.91302,-0.46696 0.16833,-0.1408 0.0616,-0.39881 -0.12842,-0.45537 -0.36259,-0.2059 -0.74981,-0.50255 -1.1922,-0.3872 -0.036,0.008 -0.0721,0.0154 -0.10814,0.0231 z" />
  <path
     id="path1000"
     style="fill:#f3bd5b;fill-opacity:1;stroke:#000000;stroke-width:0.198437;stroke-linecap:butt;stroke-linejoin:miter;stroke-dasharray:none;stroke-opacity:1"
     d="m 24.877855,27.0247 c -0.29094,0.12947 -0.57268,0.28938 -0.8317,0.47317 -0.13882,0.16695 0.004,0.38324 0.18274,0.44202 0.35285,0.20347 0.73413,0.48414 1.1647,0.37128 0.33549,-0.0792 0.61559,-0.30187 0.91302,-0.46697 0.16834,-0.1408 0.0616,-0.39881 -0.12842,-0.45537 -0.36259,-0.2059 -0.74981,-0.50255 -1.1922,-0.38719 -0.036,0.008 -0.0721,0.0154 -0.10814,0.0231 z" />
  <path
     id="path1001"
     style="fill:#f3bd5b;fill-opacity:1;stroke:#000000;stroke-width:0.198437;stroke-linecap:butt;stroke-linejoin:miter;stroke-dasharray:none;stroke-opacity:1"
     d="m 26.594655,28.01591 c -0.29094,0.12947 -0.57268,0.28938 -0.8317,0.47317 -0.13881,0.16695 0.004,0.38325 0.18274,0.44202 0.35285,0.20347 0.73413,0.48414 1.1647,0.37128 0.33549,-0.0791 0.61559,-0.30187 0.91302,-0.46697 0.16834,-0.1408 0.0616,-0.3988 -0.12842,-0.45537 -0.36259,-0.20589 -0.74981,-0.50255 -1.1922,-0.38719 -0.036,0.008 -0.0721,0.0154 -0.10814,0.0231 z" />
  <path
     id="path1002"
     style="fill:#f3bd5b;fill-opacity:1;stroke:#000000;stroke-width:0.198437;stroke-linecap:butt;stroke-linejoin:miter;stroke-dasharray:none;stroke-opacity:1"
     d="m 28.311455,29.00713 c -0.29093,0.12946 -0.57268,0.28938 -0.8317,0.47316 -0.13881,0.16695 0.004,0.38325 0.18275,0.44202 0.35285,0.20348 0.73412,0.48415 1.16469,0.37128 0.3355,-0.0791 0.6156,-0.30187 0.91303,-0.46696 0.16833,-0.1408 0.0616,-0.39881 -0.12843,-0.45538 -0.36259,-0.20589 -0.74981,-0.50255 -1.19219,-0.38719 -0.036,0.008 -0.0721,0.0154 -0.10815,0.0231 z" />
  <path
     id="path1003"
     style="fill:#f3bd5b;fill-opacity:1;stroke:#000000;stroke-width:0.198437;stroke-linecap:butt;stroke-linejoin:miter;stroke-dasharray:none;stroke-opacity:1"
     d="m 30.117475,29.99828 c -0.29094,0.12946 -0.57269,0.28938 -0.8317,0.47316 -0.13882,0.16696 0.004,0.38325 0.18274,0.44202 0.35285,0.20348 0.73412,0.48415 1.1647,0.37128 0.33549,-0.0791 0.61559,-0.30187 0.91302,-0.46696 0.16833,-0.1408 0.0616,-0.39881 -0.12842,-0.45538 -0.36259,-0.20589 -0.74981,-0.50255 -1.1922,-0.38719 -0.036,0.008 -0.0721,0.0154 -0.10814,0.0231 z" />
  <path
     id="path1004"
     style="fill:#f3bd5b;fill-opacity:1;stroke:#000000;stroke-width:0.198437;stroke-linecap:butt;stroke-linejoin:miter;stroke-dasharray:none;stroke-opacity:1"
     d="m 31.834275,30.98949 c -0.29094,0.12947 -0.57268,0.28938 -0.8317,0.47316 -0.13882,0.16696 0.004,0.38325 0.18274,0.44203 0.35285,0.20347 0.73413,0.48414 1.1647,0.37127 0.33549,-0.0791 0.61559,-0.30186 0.91302,-0.46696 0.16834,-0.1408 0.0616,-0.39881 -0.12842,-0.45537 -0.36259,-0.2059 -0.74981,-0.50255 -1.1922,-0.3872 -0.036,0.008 -0.0721,0.0154 -0.10814,0.0231 z" />
  <path
     id="path1005"
     style="fill:#f3bd5b;fill-opacity:1;stroke:#000000;stroke-width:0.198437;stroke-linecap:butt;stroke-linejoin:miter;stroke-dasharray:none;stroke-opacity:1"
     d="m 33.551075,31.9807 c -0.29094,0.12947 -0.57268,0.28938 -0.8317,0.47317 -0.13881,0.16695 0.004,0.38324 0.18274,0.44202 0.35285,0.20347 0.73413,0.48414 1.1647,0.37128 0.3355,-0.0791 0.61559,-0.30187 0.91302,-0.46697 0.16834,-0.1408 0.0616,-0.3988 -0.12842,-0.45537 -0.36259,-0.20589 -0.74981,-0.50255 -1.19219,-0.38719 -0.036,0.008 -0.0721,0.0154 -0.10815,0.0231 z" />
  <path
     id="path1006"
     style="fill:#f3bd5b;fill-opacity:1;stroke:#000000;stroke-width:0.198437;stroke-linecap:butt;stroke-linejoin:miter;stroke-dasharray:none;stroke-opacity:1"
     d="m 14.577042,23.05116 c -0.290937,0.12947 -0.572684,0.28938 -0.831702,0.47317 -0.138813,0.16695 0.0045,0.38325 0.182744,0.44202 0.352851,0.20347 0.734124,0.48414 1.164698,0.37128 0.335493,-0.0791 0.615591,-0.30187 0.913022,-0.46697 0.168333,-0.1408 0.06156,-0.3988 -0.128423,-0.45537 -0.362591,-0.20589 -0.749808,-0.50255 -1.192196,-0.38719 -0.03604,0.008 -0.0721,0.0154 -0.108143,0.0231 z" />
  <path
     id="path1007"
     style="fill:#f3bd5b;fill-opacity:1;stroke:#000000;stroke-width:0.198437;stroke-linecap:butt;stroke-linejoin:miter;stroke-dasharray:none;stroke-opacity:1"
     d="m 16.293844,24.04238 c -0.290937,0.12946 -0.572684,0.28938 -0.831702,0.47316 -0.138813,0.16695 0.0045,0.38325 0.182744,0.44202 0.352851,0.20348 0.734124,0.48415 1.164698,0.37128 0.335493,-0.0791 0.615591,-0.30187 0.913022,-0.46696 0.168334,-0.1408 0.06156,-0.39881 -0.128423,-0.45538 -0.362591,-0.20589 -0.749808,-0.50255 -1.192196,-0.38719 -0.03604,0.008 -0.0721,0.0154 -0.108143,0.0231 z" />
  <path
     id="path1008"
     style="fill:#f3bd5b;fill-opacity:1;stroke:#000000;stroke-width:0.198437;stroke-linecap:butt;stroke-linejoin:miter;stroke-dasharray:none;stroke-opacity:1"
     d="m 18.010646,25.03359 c -0.290937,0.12946 -0.572683,0.28938 -0.831702,0.47316 -0.138813,0.16696 0.0045,0.38325 0.182744,0.44202 0.352851,0.20348 0.734124,0.48415 1.164698,0.37128 0.335493,-0.0791 0.615589,-0.30187 0.913019,-0.46696 0.16834,-0.1408 0.0616,-0.39881 -0.12842,-0.45538 -0.362591,-0.20589 -0.749808,-0.50255 -1.192196,-0.38719 -0.03604,0.008 -0.0721,0.0154 -0.108143,0.0231 z" />
  <path
     id="path1009"
     style="fill:#f3bd5b;fill-opacity:1;stroke:#000000;stroke-width:0.198437;stroke-linecap:butt;stroke-linejoin:miter;stroke-dasharray:none;stroke-opacity:1"
     d="m 19.727445,26.0248 c -0.29093,0.12947 -0.57268,0.28938 -0.831699,0.47316 -0.138813,0.16696 0.0045,0.38325 0.182749,0.44203 0.35285,0.20347 0.73412,0.48414 1.16469,0.37127 0.3355,-0.0791 0.61559,-0.30186 0.91303,-0.46696 0.16833,-0.1408 0.0616,-0.39881 -0.12843,-0.45537 -0.36259,-0.2059 -0.74981,-0.50255 -1.19219,-0.3872 -0.036,0.008 -0.0721,0.0154 -0.10815,0.0231 z" />
  <path
     id="path1010"
     style="fill:#f3bd5b;fill-opacity:1;stroke:#000000;stroke-width:0.198437;stroke-linecap:butt;stroke-linejoin:miter;stroke-dasharray:none;stroke-opacity:1"
     d="m 21.444255,27.01601 c -0.29094,0.12947 -0.57269,0.28938 -0.83171,0.47317 -0.13881,0.16695 0.004,0.38324 0.18275,0.44202 0.35285,0.20347 0.73412,0.48414 1.1647,0.37128 0.33549,-0.0791 0.61559,-0.30187 0.91302,-0.46697 0.16833,-0.1408 0.0616,-0.3988 -0.12843,-0.45537 -0.36259,-0.20589 -0.7498,-0.50255 -1.19219,-0.38719 -0.036,0.008 -0.0721,0.0154 -0.10814,0.0231 z" />
  <path
     id="path1011"
     style="fill:#f3bd5b;fill-opacity:1;stroke:#000000;stroke-width:0.198437;stroke-linecap:butt;stroke-linejoin:miter;stroke-dasharray:none;stroke-opacity:1"
     d="m 23.161055,28.00722 c -0.29094,0.12947 -0.57269,0.28939 -0.8317,0.47317 -0.13882,0.16695 0.004,0.38325 0.18274,0.44202 0.35285,0.20348 0.73412,0.48415 1.1647,0.37128 0.33549,-0.0791 0.61559,-0.30187 0.91302,-0.46696 0.16833,-0.1408 0.0616,-0.39881 -0.12842,-0.45538 -0.36259,-0.20589 -0.74981,-0.50255 -1.1922,-0.38719 -0.036,0.008 -0.0721,0.0154 -0.10814,0.0231 z" />
  <path
     id="path1012"
     style="fill:#f3bd5b;fill-opacity:1;stroke:#000000;stroke-width:0.198437;stroke-linecap:butt;stroke-linejoin:miter;stroke-dasharray:none;stroke-opacity:1"
     d="m 24.877855,28.99844 c -0.29094,0.12946 -0.57268,0.28938 -0.8317,0.47316 -0.13882,0.16696 0.004,0.38325 0.18274,0.44202 0.35285,0.20348 0.73413,0.48415 1.1647,0.37128 0.33549,-0.0791 0.61559,-0.30187 0.91302,-0.46696 0.16834,-0.1408 0.0616,-0.39881 -0.12842,-0.45538 -0.36259,-0.20589 -0.74981,-0.50255 -1.1922,-0.38719 -0.036,0.008 -0.0721,0.0154 -0.10814,0.0231 z" />
  <path
     id="path1013"
     style="fill:#f3bd5b;fill-opacity:1;stroke:#000000;stroke-width:0.198437;stroke-linecap:butt;stroke-linejoin:miter;stroke-dasharray:none;stroke-opacity:1"
     d="m 26.594655,29.98965 c -0.29094,0.12947 -0.57268,0.28938 -0.8317,0.47316 -0.13881,0.16696 0.004,0.38325 0.18274,0.44203 0.35285,0.20347 0.73413,0.48414 1.1647,0.37127 0.33549,-0.0791 0.61559,-0.30187 0.91302,-0.46696 0.16834,-0.1408 0.0616,-0.39881 -0.12842,-0.45537 -0.36259,-0.2059 -0.74981,-0.50255 -1.1922,-0.3872 -0.036,0.008 -0.0721,0.0154 -0.10814,0.0231 z" />
  <path
     id="path1014"
     style="fill:#f3bd5b;fill-opacity:1;stroke:#000000;stroke-width:0.198437;stroke-linecap:butt;stroke-linejoin:miter;stroke-dasharray:none;stroke-opacity:1"
     d="m 28.400675,30.9808 c -0.29094,0.12947 -0.57269,0.28938 -0.83171,0.47317 -0.13881,0.16695 0.005,0.38324 0.18275,0.44202 0.35285,0.20347 0.73412,0.48414 1.1647,0.37128 0.33549,-0.0792 0.61559,-0.30187 0.91302,-0.46697 0.16833,-0.1408 0.0616,-0.39881 -0.12843,-0.45537 -0.36259,-0.2059 -0.7498,-0.50255 -1.19219,-0.38719 -0.036,0.008 -0.0721,0.0154 -0.10814,0.0231 z" />
  <path
     id="path1015"
     style="fill:#f3bd5b;fill-opacity:1;stroke:#000000;stroke-width:0.198437;stroke-linecap:butt;stroke-linejoin:miter;stroke-dasharray:none;stroke-opacity:1"
     d="m 30.117475,31.97201 c -0.29094,0.12947 -0.57269,0.28938 -0.8317,0.47317 -0.13882,0.16695 0.004,0.38325 0.18274,0.44202 0.35285,0.20347 0.73412,0.48414 1.1647,0.37128 0.33549,-0.0791 0.61559,-0.30187 0.91302,-0.46697 0.16833,-0.1408 0.0616,-0.3988 -0.12842,-0.45537 -0.36259,-0.20589 -0.74981,-0.50255 -1.1922,-0.38719 -0.036,0.008 -0.0721,0.0154 -0.10814,0.0231 z" />
  <path
     id="path1016"
     style="fill:#f3bd5b;fill-opacity:1;stroke:#000000;stroke-width:0.198437;stroke-linecap:butt;stroke-linejoin:miter;stroke-dasharray:none;stroke-opacity:1"
     d="m 31.834275,32.96323 c -0.29094,0.12946 -0.57268,0.28938 -0.8317,0.47316 -0.13882,0.16695 0.004,0.38325 0.18274,0.44202 0.35285,0.20348 0.73413,0.48415 1.1647,0.37128 0.33549,-0.0791 0.61559,-0.30187 0.91302,-0.46696 0.16834,-0.1408 0.0616,-0.39881 -0.12842,-0.45538 -0.36259,-0.20589 -0.74981,-0.50255 -1.1922,-0.38719 -0.036,0.008 -0.0721,0.0154 -0.10814,0.0231 z" />
  <path
     id="path1017"
     style="fill:#f3bd5b;fill-opacity:1;stroke:#000000;stroke-width:0.198437;stroke-linecap:butt;stroke-linejoin:miter;stroke-dasharray:none;stroke-opacity:1"
     d="m 12.86024,24.05902 c -0.290937,0.12947 -0.572684,0.28939 -0.831703,0.47317 -0.138812,0.16695 0.0045,0.38325 0.182745,0.44202 0.352851,0.20347 0.734124,0.48414 1.164698,0.37128 0.335493,-0.0791 0.615591,-0.30187 0.913022,-0.46696 0.168333,-0.14081 0.06156,-0.39881 -0.128423,-0.45538 -0.362592,-0.20589 -0.749809,-0.50255 -1.192196,-0.38719 -0.03604,0.008 -0.0721,0.0154 -0.108143,0.0231 z" />
  <path
     id="path1018"
     style="fill:#f3bd5b;fill-opacity:1;stroke:#000000;stroke-width:0.198437;stroke-linecap:butt;stroke-linejoin:miter;stroke-dasharray:none;stroke-opacity:1"
     d="m 14.577042,25.05024 c -0.290937,0.12946 -0.572684,0.28938 -0.831702,0.47316 -0.138813,0.16696 0.0045,0.38325 0.182744,0.44202 0.352851,0.20348 0.734124,0.48415 1.164698,0.37128 0.335493,-0.0791 0.615591,-0.30187 0.913022,-0.46696 0.168333,-0.1408 0.06156,-0.39881 -0.128423,-0.45538 -0.362591,-0.20589 -0.749808,-0.50255 -1.192196,-0.38719 -0.03604,0.008 -0.0721,0.0154 -0.108143,0.0231 z" />
  <path
     id="path1019"
     style="fill:#f3bd5b;fill-opacity:1;stroke:#000000;stroke-width:0.198437;stroke-linecap:butt;stroke-linejoin:miter;stroke-dasharray:none;stroke-opacity:1"
     d="m 16.293844,26.04145 c -0.290937,0.12947 -0.572684,0.28938 -0.831702,0.47316 -0.138813,0.16696 0.0045,0.38325 0.182744,0.44203 0.352851,0.20347 0.734124,0.48414 1.164698,0.37127 0.335493,-0.0791 0.615591,-0.30187 0.913022,-0.46696 0.168334,-0.1408 0.06156,-0.39881 -0.128423,-0.45537 -0.362591,-0.2059 -0.749808,-0.50255 -1.192196,-0.3872 -0.03604,0.008 -0.0721,0.0154 -0.108143,0.0231 z" />
  <path
     id="path1020"
     style="fill:#f3bd5b;fill-opacity:1;stroke:#000000;stroke-width:0.198437;stroke-linecap:butt;stroke-linejoin:miter;stroke-dasharray:none;stroke-opacity:1"
     d="m 18.010646,27.03266 c -0.290937,0.12947 -0.572683,0.28938 -0.831702,0.47316 -0.138813,0.16696 0.0045,0.38325 0.182744,0.44203 0.352851,0.20347 0.734124,0.48414 1.164698,0.37128 0.335493,-0.0792 0.615589,-0.30187 0.913019,-0.46697 0.16834,-0.1408 0.0616,-0.39881 -0.12842,-0.45537 -0.362591,-0.2059 -0.749808,-0.50255 -1.192196,-0.38719 -0.03604,0.008 -0.0721,0.0154 -0.108143,0.0231 z" />
  <path
     id="path1021"
     style="fill:#f3bd5b;fill-opacity:1;stroke:#000000;stroke-width:0.198437;stroke-linecap:butt;stroke-linejoin:miter;stroke-dasharray:none;stroke-opacity:1"
     d="m 19.727445,28.02387 c -0.29093,0.12947 -0.57268,0.28938 -0.831699,0.47317 -0.138813,0.16695 0.0045,0.38325 0.182749,0.44202 0.35285,0.20347 0.73412,0.48414 1.16469,0.37128 0.3355,-0.0791 0.61559,-0.30187 0.91303,-0.46697 0.16833,-0.1408 0.0616,-0.3988 -0.12843,-0.45537 -0.36259,-0.20589 -0.74981,-0.50255 -1.19219,-0.38719 -0.036,0.008 -0.0721,0.0154 -0.10815,0.0231 z" />
  <path
     id="path1022"
     style="fill:#f3bd5b;fill-opacity:1;stroke:#000000;stroke-width:0.198437;stroke-linecap:butt;stroke-linejoin:miter;stroke-dasharray:none;stroke-opacity:1"
     d="m 21.444255,29.01508 c -0.29094,0.12947 -0.57269,0.28939 -0.83171,0.47317 -0.13881,0.16695 0.004,0.38325 0.18275,0.44202 0.35285,0.20348 0.73412,0.48415 1.1647,0.37128 0.33549,-0.0791 0.61559,-0.30187 0.91302,-0.46696 0.16833,-0.1408 0.0616,-0.39881 -0.12843,-0.45538 -0.36259,-0.20589 -0.7498,-0.50255 -1.19219,-0.38719 -0.036,0.008 -0.0721,0.0154 -0.10814,0.0231 z" />
  <path
     id="path1023"
     style="fill:#f3bd5b;fill-opacity:1;stroke:#000000;stroke-width:0.198437;stroke-linecap:butt;stroke-linejoin:miter;stroke-dasharray:none;stroke-opacity:1"
     d="m 23.161055,30.0063 c -0.29094,0.12946 -0.57269,0.28938 -0.8317,0.47316 -0.13882,0.16696 0.004,0.38325 0.18274,0.44202 0.35285,0.20348 0.73412,0.48415 1.1647,0.37128 0.33549,-0.0791 0.61559,-0.30187 0.91302,-0.46696 0.16833,-0.1408 0.0616,-0.39881 -0.12842,-0.45538 -0.36259,-0.20589 -0.74981,-0.50255 -1.1922,-0.38719 -0.036,0.008 -0.0721,0.0154 -0.10814,0.0231 z" />
  <path
     id="path1024"
     style="fill:#f3bd5b;fill-opacity:1;stroke:#000000;stroke-width:0.198437;stroke-linecap:butt;stroke-linejoin:miter;stroke-dasharray:none;stroke-opacity:1"
     d="m 24.877855,30.99751 c -0.29094,0.12947 -0.57268,0.28938 -0.8317,0.47316 -0.13882,0.16696 0.004,0.38325 0.18274,0.44203 0.35285,0.20347 0.73413,0.48414 1.1647,0.37127 0.33549,-0.0791 0.61559,-0.30186 0.91302,-0.46696 0.16834,-0.1408 0.0616,-0.39881 -0.12842,-0.45537 -0.36259,-0.2059 -0.74981,-0.50255 -1.1922,-0.3872 -0.036,0.008 -0.0721,0.0154 -0.10814,0.0231 z" />
  <path
     id="path1025"
     style="fill:#f3bd5b;fill-opacity:1;stroke:#000000;stroke-width:0.198437;stroke-linecap:butt;stroke-linejoin:miter;stroke-dasharray:none;stroke-opacity:1"
     d="m 26.683865,31.98866 c -0.29093,0.12947 -0.57268,0.28938 -0.8317,0.47317 -0.13881,0.16695 0.004,0.38324 0.18275,0.44202 0.35285,0.20347 0.73412,0.48414 1.16469,0.37128 0.3355,-0.0792 0.61559,-0.30187 0.91303,-0.46697 0.16833,-0.1408 0.0616,-0.3988 -0.12843,-0.45537 -0.36259,-0.2059 -0.74981,-0.50255 -1.19219,-0.38719 -0.036,0.008 -0.0721,0.0154 -0.10815,0.0231 z" />
  <path
     id="path1026"
     style="fill:#f3bd5b;fill-opacity:1;stroke:#000000;stroke-width:0.198437;stroke-linecap:butt;stroke-linejoin:miter;stroke-dasharray:none;stroke-opacity:1"
     d="m 28.400675,32.97987 c -0.29094,0.12947 -0.57269,0.28938 -0.83171,0.47317 -0.13881,0.16695 0.005,0.38325 0.18275,0.44202 0.35285,0.20347 0.73412,0.48414 1.1647,0.37128 0.33549,-0.0791 0.61559,-0.30187 0.91302,-0.46696 0.16833,-0.14081 0.0616,-0.39881 -0.12843,-0.45538 -0.36259,-0.20589 -0.7498,-0.50255 -1.19219,-0.38719 -0.036,0.008 -0.0721,0.0154 -0.10814,0.0231 z" />
  <path
     id="path1027"
     style="fill:#f3bd5b;fill-opacity:1;stroke:#000000;stroke-width:0.198437;stroke-linecap:butt;stroke-linejoin:miter;stroke-dasharray:none;stroke-opacity:1"
     d="m 30.117475,33.97109 c -0.29094,0.12946 -0.57269,0.28938 -0.8317,0.47316 -0.13882,0.16696 0.004,0.38325 0.18274,0.44202 0.35285,0.20348 0.73412,0.48415 1.1647,0.37128 0.33549,-0.0791 0.61559,-0.30187 0.91302,-0.46696 0.16833,-0.1408 0.0616,-0.39881 -0.12842,-0.45538 -0.36259,-0.20589 -0.74981,-0.50255 -1.1922,-0.38719 -0.036,0.008 -0.0721,0.0154 -0.10814,0.0231 z" />
  <path
     id="path1028"
     style="fill:#f3bd5b;fill-opacity:1;stroke:#000000;stroke-width:0.198437;stroke-linecap:round;stroke-dasharray:none"
     d="m 36.287245,31.60327 c -0.24875,0.0317 -0.55355,0.0581 -0.69951,0.29219 0.10485,0.20551 0.37883,0.2385 0.58428,0.28229 0.35489,0.0492 0.77715,0.009 1.03133,-0.26424 -0.0618,-0.17747 -0.29384,-0.2262 -0.45845,-0.27456 -0.14965,-0.0344 -0.30463,-0.0408 -0.45765,-0.0357 z" />
  <path
     id="path1029"
     style="fill:#f3bd5b;fill-opacity:1;stroke:#000000;stroke-width:0.198437;stroke-linecap:round;stroke-dasharray:none"
     d="m 37.550695,32.19669 c -0.24875,0.0317 -0.55355,0.0581 -0.69951,0.29219 0.10485,0.2055 0.37883,0.23849 0.58428,0.28229 0.35489,0.0492 0.77715,0.009 1.03133,-0.26424 -0.0618,-0.17747 -0.29384,-0.22621 -0.45845,-0.27456 -0.14965,-0.0344 -0.30462,-0.0408 -0.45765,-0.0357 z" />
  <path
     id="path1030"
     style="fill:#f3bd5b;fill-opacity:1;stroke:#000000;stroke-width:0.198437;stroke-linecap:round;stroke-dasharray:none"
     d="m 34.943825,30.87465 c -0.24875,0.0317 -0.55355,0.0581 -0.69951,0.29219 0.10485,0.20551 0.37883,0.2385 0.58427,0.2823 0.3549,0.0492 0.77716,0.009 1.03133,-0.26425 -0.0618,-0.17747 -0.29383,-0.2262 -0.45844,-0.27455 -0.14965,-0.0344 -0.30463,-0.0408 -0.45765,-0.0357 z" />
  <path
     id="path1031"
     style="fill:#f3bd5b;fill-opacity:1;stroke:#000000;stroke-width:0.198437;stroke-linecap:butt;stroke-linejoin:miter;stroke-dasharray:none;stroke-opacity:1"
     d="m 14.55906,21.06078 c -0.290938,0.12947 -0.572684,0.28938 -0.831703,0.47316 -0.138812,0.16696 0.0045,0.38325 0.182745,0.44203 0.352851,0.20347 0.734124,0.48414 1.164698,0.37127 0.335493,-0.0791 0.615591,-0.30186 0.913022,-0.46696 0.168333,-0.1408 0.06156,-0.39881 -0.128423,-0.45537 -0.362592,-0.2059 -0.749809,-0.50255 -1.192196,-0.3872 -0.03604,0.008 -0.0721,0.0154 -0.108143,0.0231 z" />
  <path
     id="path1032"
     style="fill:#f3bd5b;fill-opacity:1;stroke:#000000;stroke-width:0.198437;stroke-linecap:butt;stroke-linejoin:miter;stroke-dasharray:none;stroke-opacity:1"
     d="m 12.842258,22.0433 c -0.290938,0.12947 -0.572684,0.28938 -0.831703,0.47317 -0.138813,0.16695 0.0045,0.38325 0.182744,0.44202 0.352851,0.20347 0.734124,0.48414 1.164699,0.37128 0.335493,-0.0791 0.615591,-0.30187 0.913022,-0.46697 0.168333,-0.1408 0.06156,-0.3988 -0.128423,-0.45537 -0.362592,-0.20589 -0.749809,-0.50255 -1.192196,-0.38719 -0.03604,0.008 -0.0721,0.0154 -0.108143,0.0231 z" />
  <path
     id="path1033"
     style="fill:#f3bd5b;fill-opacity:1;stroke:#000000;stroke-width:0.198437;stroke-linecap:butt;stroke-linejoin:miter;stroke-dasharray:none;stroke-opacity:1"
     d="m 11.125456,23.05116 c -0.290938,0.12947 -0.572684,0.28938 -0.831703,0.47317 -0.138813,0.16695 0.0045,0.38325 0.182744,0.44202 0.352851,0.20347 0.734124,0.48414 1.164698,0.37128 0.335494,-0.0791 0.615592,-0.30187 0.913023,-0.46697 0.168333,-0.1408 0.06156,-0.3988 -0.128423,-0.45537 -0.362592,-0.20589 -0.749809,-0.50255 -1.192196,-0.38719 -0.03604,0.008 -0.0721,0.0154 -0.108143,0.0231 z" />
  <path
     id="path1034"
     style="fill:#f3bd5b;fill-opacity:1;stroke:#000000;stroke-width:0.198437;stroke-linecap:butt;stroke-linejoin:miter;stroke-dasharray:none;stroke-opacity:1"
     d="m 35.267875,32.96874 c -0.29093,0.12947 -0.57268,0.28938 -0.8317,0.47317 -0.13881,0.16695 0.005,0.38325 0.18275,0.44202 0.35285,0.20347 0.73412,0.48414 1.16469,0.37128 0.3355,-0.0791 0.6156,-0.30187 0.91303,-0.46697 0.16833,-0.1408 0.0616,-0.3988 -0.12843,-0.45537 -0.36259,-0.20589 -0.74981,-0.50255 -1.19219,-0.38719 -0.036,0.008 -0.0721,0.0154 -0.10815,0.0231 z" />
  <path
     id="path1035"
     style="fill:#f3bd5b;fill-opacity:1;stroke:#000000;stroke-width:0.198437;stroke-linecap:butt;stroke-linejoin:miter;stroke-dasharray:none;stroke-opacity:1"
     d="m 33.551075,33.95127 c -0.29094,0.12946 -0.57268,0.28938 -0.8317,0.47316 -0.13881,0.16695 0.004,0.38325 0.18274,0.44202 0.35285,0.20348 0.73413,0.48415 1.1647,0.37128 0.3355,-0.0791 0.61559,-0.30187 0.91302,-0.46696 0.16834,-0.1408 0.0616,-0.39881 -0.12842,-0.45538 -0.36259,-0.20589 -0.74981,-0.50255 -1.19219,-0.38719 -0.036,0.008 -0.0721,0.0154 -0.10815,0.0231 z" />
  <path
     id="path1036"
     style="fill:#f3bd5b;fill-opacity:1;stroke:#000000;stroke-width:0.198437;stroke-linecap:butt;stroke-linejoin:miter;stroke-dasharray:none;stroke-opacity:1"
     d="m 31.834275,34.95913 c -0.29094,0.12946 -0.57268,0.28938 -0.8317,0.47316 -0.13882,0.16696 0.004,0.38325 0.18274,0.44202 0.35285,0.20348 0.73413,0.48415 1.1647,0.37128 0.33549,-0.0791 0.61559,-0.30187 0.91302,-0.46696 0.16834,-0.1408 0.0616,-0.39881 -0.12842,-0.45538 -0.36259,-0.20589 -0.74981,-0.50255 -1.1922,-0.38719 -0.036,0.008 -0.0721,0.0154 -0.10814,0.0231 z" />
  <circle
     style="fill:#ff0000;stroke-width:0.529167;stroke-linecap:round;stroke-miterlimit:4.1;stroke-dasharray:none"
     id="attach-back-left"
     cx="4.553031"
     cy="4.2673612"
     r="0.83869553"
     inkscape:label="attach-back-left" />
  <circle
     style="fill:#ff0000;stroke-width:0.529168;stroke-linecap:round;stroke-miterlimit:4.1;stroke-dasharray:none"
     id="attach-back-right"
     cx="43.743073"
     cy="4.2746091"
     inkscape:label="attach-back-right"
     r="0.83869553" />
  <circle
     style="fill:#ff0000;stroke-width:0.529167;stroke-linecap:round;stroke-miterlimit:4.1;stroke-dasharray:none"
     id="attach-front-right"
     cx="41.272568"
     cy="25.12846"
     r="0.83869553"
     inkscape:label="attach-front-right" />
  <circle
     style="fill:#ff0000;stroke-width:0.529168;stroke-linecap:round;stroke-miterlimit:4.1;stroke-dasharray:none"
     id="attach-front-left"
     cx="5.9822378"
     cy="25.803036"
     inkscape:label="attach-front-left"
     r="0.83869553" />
  <circle
     style="fill:#ff0000;stroke-width:0.529168;stroke-linecap:round;stroke-miterlimit:4.1;stroke-dasharray:none"
     id="attach-bottom"
     cx="23.316191"
     cy="29.699902"
     inkscape:label="attach-bottom"
     r="0.83869553" />
  <circle
     style="fill:#ff0000;stroke-width:0.529168;stroke-linecap:round;stroke-miterlimit:4.1;stroke-dasharray:none"
     id="attach-top"
     cx="23.318151"
     cy="6.3195767"
     inkscape:label="attach-top"
     r="0.83869553" />
  <circle
     style="fill:#ff0000;stroke-width:0.529168;stroke-linecap:round;stroke-miterlimit:4.1;stroke-dasharray:none"
     id="attach-screen"
     cx="32.037407"
     cy="15.418148"
     inkscape:label="attach-screen"
     r="0.83869553" />
</svg>
