<?xml version="1.0" encoding="UTF-8" standalone="no"?>
<!-- Created with Inkscape (http://www.inkscape.org/) -->

<svg
   width="338.4046mm"
   height="220.71571mm"
   viewBox="0 0 338.4046 220.71571"
   version="1.1"
   id="svg1"
   xmlns="http://www.w3.org/2000/svg"
   xmlns:svg="http://www.w3.org/2000/svg">
  <defs
     id="defs1" />
  <path
     style="fill:#fae36f;fill-opacity:1;stroke:#000000;stroke-width:0.79375;stroke-linecap:butt;stroke-linejoin:miter;stroke-dasharray:none;stroke-opacity:1"
     d="m 691.99018,473.60392 128.2998,-74.08285 a 9.1652516,9.1652516 179.99751 0 1 9.16539,-4e-4 l 197.07323,113.77115 a 3.055023,3.055023 89.999 0 1 10e-5,5.2915 l -128.31607,74.08334 a 9.1654344,9.1654344 180 0 1 -9.16544,0 L 691.99032,478.89582 a 3.0553291,3.0553291 89.998505 0 1 -1.4e-4,-5.2919 z"
     id="path477"
     transform="translate(-690.04666,-386.8048)" />
  <path
     id="path478"
     style="fill:#f3bd5b;fill-opacity:1;stroke:#000000;stroke-width:0.79375;stroke-linecap:butt;stroke-linejoin:miter;stroke-dasharray:none;stroke-opacity:1"
     d="m 0.422816,89.244179 -0.0248,8.15764 c -0.0326,1.04812 0.67669,2.03972 1.54564,2.626711 L 199.00037,213.79937 c 2.83589,1.63741 6.32995,1.63741 9.16585,0 l 128.31563,-74.08334 c 0.8947,-0.54715 1.4463,-1.51501 1.4609,-2.56366 l 0.065,0.008 v -8.0269 l -0.065,-0.008 a 3.055023,3.055023 0 0 1 -1.4609,2.65306 l -128.31563,74.08334 a 9.1654344,9.1654344 0 0 1 -9.16585,0 L 1.943656,92.091029 a 3.0553291,3.0553291 0 0 1 -1.34359,-2.82566 z" />
  <path
     id="path479"
     style="fill:#000000;stroke:#000000;stroke-width:0.79375;stroke-linecap:butt;stroke-linejoin:miter;stroke-dasharray:none;stroke-opacity:1"
     d="m 337.94274,129.12547 a 3.055023,3.055023 0 0 1 -1.4608,2.65306 l -126.02439,72.76042 v 7.9375 l 126.02439,-72.76042 c 0.8947,-0.54715 1.4462,-1.51502 1.4608,-2.56366 l 0.065,0.008 v -8.0269 z" />
  <circle
     style="fill:#ff0000;stroke:none;stroke-width:0.264583;stroke-linecap:round;stroke-miterlimit:4.1"
     id="attach-back-right"
     cx="260.86743"
     cy="63.341331"
     r="1.6773911" />
  <circle
     style="fill:#ff0000;stroke:none;stroke-width:0.264583;stroke-linecap:round;stroke-miterlimit:4.1"
     id="attach-back-left"
     cx="40.283016"
     cy="43.497581"
     r="1.6773911" />
  <circle
     style="fill:#ff0000;stroke:none;stroke-width:0.264583;stroke-linecap:round;stroke-miterlimit:4.1"
     id="attach-bottom"
     cx="167.53537"
     cy="204.40974"
     r="1.6773911" />
  <circle
     style="fill:#ff0000;stroke:none;stroke-width:0.264583;stroke-linecap:round;stroke-miterlimit:4.1"
     id="attach-front-left"
     cx="82.141457"
     cy="166.52882"
     r="1.6773911" />
  <circle
     style="fill:#ff0000;stroke:none;stroke-width:0.264583;stroke-linecap:round;stroke-miterlimit:4.1"
     id="attach-top"
     cx="167.53537"
     cy="-3.6142666"
     r="1.6773911" />
  <circle
     style="fill:#ff0000;stroke:none;stroke-width:0.264583;stroke-linecap:round;stroke-miterlimit:4.1"
     id="attach-front-right"
     cx="287.74979"
     cy="186.37257"
     r="1.6773911" />
  <circle
     style="fill:#ff0000;stroke:none;stroke-width:0.264583;stroke-linecap:round;stroke-miterlimit:4.1"
     id="attach-top-a1"
     cx="66.101936"
     cy="89.445198"
     r="1.6773911" />
  <circle
     style="fill:#ff0000;stroke:none;stroke-width:0.264583;stroke-linecap:round;stroke-miterlimit:4.1"
     id="attach-top-a2"
     cx="100.47232"
     cy="69.60144"
     r="1.6773911" />
  <circle
     style="fill:#ff0000;stroke:none;stroke-width:0.264583;stroke-linecap:round;stroke-miterlimit:4.1"
     id="attach-top-a3"
     cx="134.84274"
     cy="49.757717"
     r="1.6773911" />
  <circle
     style="fill:#ff0000;stroke:none;stroke-width:0.264583;stroke-linecap:round;stroke-miterlimit:4.1"
     id="attach-top-b1"
     cx="111.92912"
     cy="115.77987"
     r="1.6773911" />
  <circle
     style="fill:#ff0000;stroke:none;stroke-width:0.264583;stroke-linecap:round;stroke-miterlimit:4.1"
     id="attach-top-b2"
     cx="146.29951"
     cy="95.936104"
     r="1.6773911" />
  <circle
     style="fill:#ff0000;stroke:none;stroke-width:0.264583;stroke-linecap:round;stroke-miterlimit:4.1"
     id="attach-top-b3"
     cx="180.66992"
     cy="76.092369"
     r="1.6773911" />
  <circle
     style="fill:#ff0000;stroke:none;stroke-width:0.264583;stroke-linecap:round;stroke-miterlimit:4.1"
     id="attach-top-c1"
     cx="157.75632"
     cy="142.32689"
     r="1.6773911" />
  <circle
     style="fill:#ff0000;stroke:none;stroke-width:0.264583;stroke-linecap:round;stroke-miterlimit:4.1"
     id="attach-top-c2"
     cx="192.12669"
     cy="122.48313"
     r="1.6773911" />
  <circle
     style="fill:#ff0000;stroke:none;stroke-width:0.264583;stroke-linecap:round;stroke-miterlimit:4.1"
     id="attach-top-c3"
     cx="226.49709"
     cy="102.63939"
     r="1.6773911" />
  <circle
     style="fill:#ff0000;stroke:none;stroke-width:0.264583;stroke-linecap:round;stroke-miterlimit:4.1"
     id="attach-top-d1"
     cx="203.5835"
     cy="168.82019"
     r="1.6773911" />
  <circle
     style="fill:#ff0000;stroke:none;stroke-width:0.264583;stroke-linecap:round;stroke-miterlimit:4.1"
     id="attach-top-d2"
     cx="237.95386"
     cy="148.97643"
     r="1.6773911" />
  <circle
     style="fill:#ff0000;stroke:none;stroke-width:0.264583;stroke-linecap:round;stroke-miterlimit:4.1"
     id="attach-top-d3"
     cx="272.32425"
     cy="129.13269"
     r="1.6773911" />
</svg>
