<?xml version="1.0" encoding="UTF-8" standalone="no"?>
<!-- Created with Inkscape (http://www.inkscape.org/) -->

<svg
   width="45.881927mm"
   height="51.926792mm"
   viewBox="0 0 45.881927 51.926792"
   version="1.1"
   id="svg1"
   inkscape:version="1.3.2 (091e20e, 2023-11-25)"
   sodipodi:docname="monitor.svg"
   xmlns:inkscape="http://www.inkscape.org/namespaces/inkscape"
   xmlns:sodipodi="http://sodipodi.sourceforge.net/DTD/sodipodi-0.dtd"
   xmlns="http://www.w3.org/2000/svg"
   xmlns:svg="http://www.w3.org/2000/svg">
  <sodipodi:namedview
     id="namedview1"
     pagecolor="#ffffff"
     bordercolor="#666666"
     borderopacity="1.0"
     inkscape:showpageshadow="2"
     inkscape:pageopacity="0.0"
     inkscape:pagecheckerboard="0"
     inkscape:deskcolor="#d1d1d1"
     inkscape:document-units="mm"
     inkscape:zoom="2.3635395"
     inkscape:cx="102.17726"
     inkscape:cy="114.65854"
     inkscape:window-width="1440"
     inkscape:window-height="847"
     inkscape:window-x="0"
     inkscape:window-y="25"
     inkscape:window-maximized="1"
     inkscape:current-layer="svg1" />
  <defs
     id="defs1" />
  <path
     class="cls-1"
     d="m 22.595046,50.085257 v 1.68539 c -1.14565,0.29633 -2.54,0.16933 -3.47662,-0.36777 l -1.955275,-1.12977 c -0.605896,-0.34925 -0.910167,-0.81227 -0.910167,-1.27265 v -1.68539 c 0,0.46037 0.304271,0.92339 0.910167,1.27264 l 1.955275,1.12978 c 0.93662,0.53975 2.33097,0.6641 3.47662,0.36777 z"
     id="path1"
     style="fill:#6666cc;stroke-width:0.264583" />
  <path
     class="cls-2"
     d="m 32.741816,45.211627 c 0.0556,0.49742 -0.24606,1.00806 -0.89958,1.38642 l -8.31586,4.80218 c -0.27781,0.1614 -0.59266,0.28311 -0.93133,0.36778 v -1.6854 c 0.33867,-0.0873 0.65352,-0.20902 0.93133,-0.36777 l 8.31586,-4.80219 c 0.60589,-0.35189 0.90752,-0.81227 0.90752,-1.27264 l -0.008,1.56898 z"
     id="path2"
     style="fill:#080833;stroke-width:0.264583" />
  <path
     class="cls-4"
     d="m 17.165797,46.042417 c -1.211792,0.6985 -1.211792,1.84415 0,2.54529 l 1.952629,1.12713 c 1.21179,0.6985 3.19616,0.6985 4.40795,0 l 8.31321,-4.79954 c 1.21179,-0.6985 1.21179,-1.84415 0,-2.54529 l -1.95262,-1.12713 c -1.21179,-0.6985 -3.19617,-0.6985 -4.40796,0 z"
     id="path3"
     style="fill:#a2a2fc;stroke-width:0.264583" />
  <polygon
     class="cls-1"
     points="465.64,193.64 469.27,195.76 462.92,236.22 459.28,234.1 "
     id="polygon3"
     style="fill:#6666cc"
     transform="matrix(0.26458333,0,0,0.26458333,-101.40458,-15.499663)" />
  <polygon
     class="cls-4"
     points="491.48,178.79 495.11,180.91 469.27,195.76 465.64,193.64 "
     id="polygon4"
     style="fill:#a2a2fc"
     transform="matrix(0.26458333,0,0,0.26458333,-101.40458,-15.499663)" />
  <polygon
     class="cls-2"
     points="462.92,236.22 469.27,195.76 495.11,180.91 488.76,221.36 "
     id="polygon5"
     style="fill:#080833"
     transform="matrix(0.26458333,0,0,0.26458333,-101.40458,-15.499663)" />
  <path
     class="cls-2"
     d="m 7.0190262,48.230527 c -0.878417,0.508 -1.598084,0.0926 -1.595438,-0.9234 l 0.01323,-24.13 c 0,-1.01335 0.719667,-2.25954 1.598084,-2.76754 L 40.726946,0.95741696 c 0.87841,-0.508 1.59808,-0.0926 1.59543,0.92340004 l -0.0132,24.13 c 0,1.01335 -0.71966,2.25954 -1.59808,2.76754 z"
     id="path11"
     style="fill:#080833;stroke-width:0.264583" />
  <path
     class="cls-5"
     d="m 6.1723592,23.603107 c 0,-1.01335 0.719667,-2.25954 1.598083,-2.76754 L 39.986106,2.235357 c 0.87842,-0.508 1.59809,-0.0926 1.59544,0.9234 l -0.0106,22.42608 c 0,1.01335 -0.71967,2.25954 -1.59809,2.76754 L 7.7571932,46.952587 c -0.878416,0.508 -1.598083,0.0926 -1.595437,-0.9234 l 0.01323,-22.42608 z"
     id="path12"
     style="fill:#dcdcff;stroke-width:0.264583" />
  <path
     class="cls-1"
     d="m 6.4607552,20.856737 -1.277938,-0.73819 c -0.600604,0.61119 -1.029229,1.53194 -1.029229,2.3151 l -0.01587,24.13 c 0,0.508 0.179917,0.86784 0.468313,1.03188 l 1.277937,0.73818 c -0.288396,-0.16668 -0.468312,-0.52652 -0.468312,-1.03187 l 0.01588,-24.13 c 0,-0.78317 0.428625,-1.70392 1.029229,-2.3151 z"
     id="path13"
     style="fill:#6666cc;stroke-width:0.264583" />
  <path
     class="cls-4"
     d="m 41.848776,0.84629696 -1.27794,-0.73819 c -0.29104,-0.16669 -0.69056,-0.14817 -1.12712,0.10848 L 5.7516722,19.668757 c -0.201084,0.11906 -0.391584,0.27252 -0.568855,0.45243 l 1.277938,0.73819 c 0.177271,-0.17992 0.367771,-0.33337 0.568854,-0.45244 L 40.721646,0.95477696 c 0.43657,-0.254 0.83609,-0.27517 1.12713,-0.10848 z"
     id="path14"
     style="fill:#a2a2fc;stroke-width:0.264583" />
  <circle
     class="cls-3"
     cx="24.844006"
     cy="25.80974"
     id="attach-screen"
     style="fill:#ed1c24;stroke-width:0.264583"
     r="1" />
  <circle
     class="cls-3"
     cx="24.502689"
     cy="47.595524"
     id="attach-bottom"
     style="fill:#ed1c24;stroke-width:0.264583"
     r="1" />
  <circle
     class="cls-3"
     cx="7.0449591"
     cy="13.160102"
     id="attach-back-left"
     style="fill:#ed1c24;stroke-width:0.264583"
     r="1" />
  <circle
     class="cls-3"
     cx="44.881927"
     cy="40.250477"
     id="attach-front-right"
     style="fill:#ed1c24;stroke-width:0.264583"
     r="1" />
  <circle
     class="cls-3"
     cx="-44.881927"
     cy="13.160102"
     id="attach-back-right"
     style="fill:#ed1c24;stroke-width:0.264583"
     r="1"
     transform="scale(-1,1)" />
  <circle
     class="cls-3"
     cx="-1"
     cy="42.489349"
     id="attach-front-left"
     style="fill:#ed1c24;stroke-width:0.264583"
     r="1"
     transform="scale(-1,1)" />
</svg>
