<?xml version="1.0" encoding="UTF-8" standalone="no"?>
<!-- Created with Inkscape (http://www.inkscape.org/) -->

<svg
   width="43.772968mm"
   height="26.577169mm"
   viewBox="0 0 43.772968 26.577169"
   version="1.1"
   id="svg1"
   inkscape:version="1.3.2 (091e20e, 2023-11-25)"
   sodipodi:docname="query-vectors.svg"
   xmlns:inkscape="http://www.inkscape.org/namespaces/inkscape"
   xmlns:sodipodi="http://sodipodi.sourceforge.net/DTD/sodipodi-0.dtd"
   xmlns="http://www.w3.org/2000/svg"
   xmlns:svg="http://www.w3.org/2000/svg">
  <sodipodi:namedview
     id="namedview1"
     pagecolor="#ffffff"
     bordercolor="#666666"
     borderopacity="1.0"
     inkscape:showpageshadow="2"
     inkscape:pageopacity="0.0"
     inkscape:pagecheckerboard="0"
     inkscape:deskcolor="#d1d1d1"
     inkscape:document-units="mm"
     inkscape:zoom="1"
     inkscape:cx="91"
     inkscape:cy="157"
     inkscape:window-width="1440"
     inkscape:window-height="847"
     inkscape:window-x="0"
     inkscape:window-y="25"
     inkscape:window-maximized="1"
     inkscape:current-layer="svg1" />
  <defs
     id="defs1" />
  <path
     id="path1180"
     style="fill:#000000;fill-opacity:0.5;stroke-width:0.396876;stroke-linecap:round;stroke-dasharray:none"
     d="m 42.415662,12.8613 a 1.2909581,1.1892622 89.967867 0 0 -1.0093,1.46032 1.2909581,1.1892622 89.967867 0 0 1.34538,1.09573 1.2909581,1.1892622 89.967867 0 0 1.00929,-1.46031 1.2909581,1.1892622 89.967867 0 0 -1.34537,-1.09574 z m -2.68281,-5.97832 a 1.2909581,1.1892622 89.967867 0 0 -1.0093,1.46031 1.2909581,1.1892622 89.967867 0 0 1.34537,1.09574 1.2909581,1.1892622 89.967867 0 0 1.0093,-1.46032 1.2909581,1.1892622 89.967867 0 0 -1.34537,-1.09573 z M 27.311292,5.33291 a 1.2909581,1.1892622 89.967867 0 0 -1.00919,1.4603 1.2909581,1.1892622 89.967867 0 0 1.34527,1.09575 1.2909581,1.1892622 89.967867 0 0 1.00929,-1.46031 1.2909581,1.1892622 89.967867 0 0 -1.34537,-1.09574 z m 3.22947,6.95037 a 1.2909581,1.1892622 89.967867 0 0 -1.0092,1.4603 1.2909581,1.1892622 89.967867 0 0 1.34527,1.09575 1.2909581,1.1892622 89.967867 0 0 1.0093,-1.46031 1.2909581,1.1892622 89.967867 0 0 -1.34537,-1.09574 z M 25.269412,11.631 a 1.2909581,1.1892622 89.967867 0 0 -1.00919,1.4603 1.2909581,1.1892622 89.967867 0 0 1.34527,1.09575 1.2909581,1.1892622 89.967867 0 0 1.00929,-1.46031 1.2909581,1.1892622 89.967867 0 0 -1.34537,-1.09574 z m -0.33421,-3.22781 a 1.2909581,1.1892622 89.967867 0 0 -1.0092,1.4603 1.2909581,1.1892622 89.967867 0 0 1.34527,1.09576 1.2909581,1.1892622 89.967867 0 0 1.0093,-1.46032 1.2909581,1.1892622 89.967867 0 0 -1.34537,-1.09574 z m -0.0247,10.33169 a 1.2909581,1.1892622 89.967867 0 0 -1.00929,1.46032 1.2909581,1.1892622 89.967867 0 0 1.34537,1.09574 1.2909581,1.1892622 89.967867 0 0 1.0093,-1.46032 1.2909581,1.1892622 89.967867 0 0 -1.34538,-1.09574 z m -0.7951,-2.96065 a 1.2909581,1.1892622 89.967867 0 0 -1.00929,1.46032 1.2909581,1.1892622 89.967867 0 0 1.34537,1.09574 1.2909581,1.1892622 89.967867 0 0 1.0093,-1.46032 1.2909581,1.1892622 89.967867 0 0 -1.34538,-1.09574 z m -2.36662,-6.68216 a 1.2909581,1.1892622 89.967867 0 0 -1.0093,1.46032 1.2909581,1.1892622 89.967867 0 0 1.34537,1.09574 1.2909581,1.1892622 89.967867 0 0 1.0093,-1.46032 1.2909581,1.1892622 89.967867 0 0 -1.34537,-1.09574 z m 2.60667,5.42128 a 1.2909581,1.1892622 89.967867 0 0 -1.0093,1.46032 1.2909581,1.1892622 89.967867 0 0 1.34537,1.09574 1.2909581,1.1892622 89.967867 0 0 1.0093,-1.46032 1.2909581,1.1892622 89.967867 0 0 -1.34537,-1.09574 z M 20.118932,8.2789 a 1.2909581,1.1892622 89.967867 0 0 -1.009295,1.46032 1.2909581,1.1892622 89.967867 0 0 1.345375,1.09574 1.2909581,1.1892622 89.967867 0 0 1.00929,-1.46032 1.2909581,1.1892622 89.967867 0 0 -1.34537,-1.09574 z m 1.27571,6.0076 a 1.2909581,1.1892622 89.967867 0 0 -1.0093,1.46032 1.2909581,1.1892622 89.967867 0 0 1.34538,1.09574 1.2909581,1.1892622 89.967867 0 0 1.00929,-1.46032 1.2909581,1.1892622 89.967867 0 0 -1.34537,-1.09574 z m 1.20218,-2.34847 a 1.2909581,1.1892622 89.967867 0 0 -1.00929,1.46032 1.2909581,1.1892622 89.967867 0 0 1.34537,1.09574 1.2909581,1.1892622 89.967867 0 0 1.00929,-1.46032 1.2909581,1.1892622 89.967867 0 0 -1.34537,-1.09574 z m -0.58583,-7.17531 a 1.2909581,1.1892622 89.967867 0 0 -1.00929,1.46032 1.2909581,1.1892622 89.967867 0 0 1.34537,1.09574 1.2909581,1.1892622 89.967867 0 0 1.0093,-1.46032 1.2909581,1.1892622 89.967867 0 0 -1.34538,-1.09574 z m 8.57023,-4.35068 a 1.2909581,1.1892622 89.967867 0 0 -1.00929,1.46032 1.2909581,1.1892622 89.967867 0 0 1.34537,1.09574 1.2909581,1.1892622 89.967867 0 0 1.0093,-1.46032 1.2909581,1.1892622 89.967867 0 0 -1.34538,-1.09574 z m -5.30676,1.39044 a 1.2909581,1.1892622 89.967867 0 0 -1.0093,1.46032 1.2909581,1.1892622 89.967867 0 0 1.34537,1.09573 1.2909581,1.1892622 89.967867 0 0 1.0093,-1.46031 1.2909581,1.1892622 89.967867 0 0 -1.34537,-1.09574 z m 1.46109,13.81892 a 8.8785808,13.353173 80.158968 0 1 -0.0509,0.21718 1.2909581,1.1892622 89.967867 0 0 -0.0195,0.38786 1.2909581,1.1892622 89.967867 0 0 1.34537,1.09574 1.2909581,1.1892622 89.967867 0 0 1.0093,-1.46032 1.2909581,1.1892622 89.967867 0 0 -1.34537,-1.09574 1.2909581,1.1892622 89.967867 0 0 -0.93887,0.85528 z m 4.37585,-8.32995 a 1.2909581,1.1892622 89.967867 0 0 -1.0093,1.46032 1.2909581,1.1892622 89.967867 0 0 1.34538,1.09574 1.2909581,1.1892622 89.967867 0 0 1.00929,-1.46032 1.2909581,1.1892622 89.967867 0 0 -1.34537,-1.09574 z m -3.62585,2.67482 a 1.2909581,1.1892622 89.967867 0 0 -1.0092,1.4603 1.2909581,1.1892622 89.967867 0 0 1.34527,1.09575 1.2909581,1.1892622 89.967867 0 0 1.0093,-1.46032 1.2909581,1.1892622 89.967867 0 0 -1.34537,-1.09573 z m 7.2512,-5.72497 a 1.2909581,1.1892622 89.967867 0 0 -1.0093,1.46031 1.2909581,1.1892622 89.967867 0 0 1.34537,1.09574 1.2909581,1.1892622 89.967867 0 0 1.0093,-1.46032 1.2909581,1.1892622 89.967867 0 0 -1.34537,-1.09573 z m -2.62147,12.96299 a 1.2909581,1.1892622 89.967867 0 0 -1.0093,1.46032 1.2909581,1.1892622 89.967867 0 0 1.34537,1.09574 1.2909581,1.1892622 89.967867 0 0 1.0093,-1.46032 1.2909581,1.1892622 89.967867 0 0 -1.34537,-1.09574 z m 3.36824,-6.1956 a 1.2909581,1.1892622 89.967867 0 0 -1.0093,1.46032 1.2909581,1.1892622 89.967867 0 0 1.34538,1.09574 1.2909581,1.1892622 89.967867 0 0 1.00929,-1.46032 1.2909581,1.1892622 89.967867 0 0 -1.34537,-1.09574 z m 1.73935,6.68297 a 1.2909581,1.1892622 89.967867 0 0 -1.00929,1.46031 1.2909581,1.1892622 89.967867 0 0 1.34537,1.09574 1.2909581,1.1892622 89.967867 0 0 1.0093,-1.46032 1.2909581,1.1892622 89.967867 0 0 -1.34538,-1.09573 z m -8.12023,4.08974 a 1.2909581,1.1892622 89.967867 0 0 -1.0093,1.46031 1.2909581,1.1892622 89.967867 0 0 1.34537,1.09574 1.2909581,1.1892622 89.967867 0 0 1.0093,-1.46032 1.2909581,1.1892622 89.967867 0 0 -1.34537,-1.09573 z" />
  <path
     style="fill:#000000;fill-opacity:0.5;stroke-width:0.396876;stroke-linecap:round;stroke-dasharray:none"
     d="M 12.749344,6.8317 C 5.462954,7.95991 0.074641,12.81749 0.714203,17.68143 c 0.265235,1.98393 1.526738,3.75325 3.579966,5.02114 L 1.399946,26.10373 7.242517,23.9925 c 2.361351,0.71155 5.094369,0.86984 7.822848,0.45308 3.196233,-0.50314 6.177407,-1.76354 8.389217,-3.54687 -0.169,-0.1932 -0.2788,-0.43842 -0.31435,-0.70202 -0.0574,-0.43796 0.0958,-0.87729 0.406,-1.1642 -0.36613,-0.17909 -0.62429,-0.54664 -0.68643,-0.9773 -0.18561,0.21841 -0.43494,0.36062 -0.70593,0.40263 -0.65023,0.10068 -1.25257,-0.3899 -1.34538,-1.09574 -0.0194,-0.15485 -0.0125,-0.31224 0.02,-0.46447 -0.52899,-0.0751 -0.94721,-0.52337 -1.023082,-1.09659 -0.09281,-0.70583 0.359072,-1.35964 1.009292,-1.46031 0.0889,-0.0136 0.17892,-0.0163 0.26836,-0.008 -0.18455,-0.19717 -0.30478,-0.45433 -0.34243,-0.73242 -0.0559,-0.4282 0.0895,-0.8583 0.38722,-1.14566 -0.56444,-0.0348 -1.02835,-0.49609 -1.10962,-1.10341 -0.0123,-0.10143 -0.0137,-0.20407 -0.004,-0.30581 -0.579971,-0.0156 -1.064999,-0.48312 -1.147797,-1.10644 -0.09281,-0.70584 0.359072,-1.35965 1.009297,-1.46032 0.006,-7.7e-4 0.0112,-0.002 0.0168,-0.002 -0.0196,-0.0662 -0.0343,-0.13407 -0.0438,-0.20285 -0.05301,-0.4062 0.0751,-0.81553 0.34501,-1.10269 C 17.917486,6.55398 15.329216,6.436 12.749123,6.83178 Z"
     id="path1181"
     sodipodi:nodetypes="sccccccccccccccccccccccccss" />
  <path
     style="fill:#ffffff;fill-opacity:1;stroke:#000000;stroke-width:0.396876;stroke-linecap:round;stroke-dasharray:none"
     d="M 12.277135,6.44711 A 8.8785808,13.353173 80.158968 0 0 0.241994,17.29684 8.8785808,13.353173 80.158968 0 0 3.82196,22.31798 l -2.422014,3.78575 5.370362,-2.49582 a 8.8785808,13.353173 80.158968 0 0 7.822848,0.45308 8.8785808,13.353173 80.158968 0 0 8.389216,-3.54687 1.2909581,1.1892622 89.967867 0 1 -0.31435,-0.70202 1.2909581,1.1892622 89.967867 0 1 0.406,-1.1642 1.2909581,1.1892622 89.967867 0 1 -0.68643,-0.9773 1.2909581,1.1892622 89.967867 0 1 -0.70593,0.40263 1.2909581,1.1892622 89.967867 0 1 -1.34538,-1.09574 1.2909581,1.1892622 89.967867 0 1 0.0199,-0.46447 1.2909581,1.1892622 89.967867 0 1 -1.023082,-1.09659 1.2909581,1.1892622 89.967867 0 1 1.009292,-1.46031 1.2909581,1.1892622 89.967867 0 1 0.26836,-0.008 1.2909581,1.1892622 89.967867 0 1 -0.34243,-0.73242 1.2909581,1.1892622 89.967867 0 1 0.38722,-1.14566 1.2909581,1.1892622 89.967867 0 1 -1.109619,-1.10341 1.2909581,1.1892622 89.967867 0 1 -0.0038,-0.30581 1.2909581,1.1892622 89.967867 0 1 -1.147799,-1.10644 1.2909581,1.1892622 89.967867 0 1 1.009296,-1.46032 1.2909581,1.1892622 89.967867 0 1 0.01681,-0.002 1.2909581,1.1892622 89.967867 0 1 -0.04376,-0.20285 1.2909581,1.1892622 89.967867 0 1 0.345007,-1.10269 8.8785808,13.353173 80.158968 0 0 -7.444619,-0.33933 z"
     id="path1182" />
  <path
     style="fill:#ffffff;stroke:#000000;stroke-width:0.396876;stroke-linecap:round;stroke-dasharray:none"
     d="m 28.866482,21.5891 a 1.2909581,1.1892622 89.967867 0 0 -1.00929,1.46032 1.2909581,1.1892622 89.967867 0 0 1.34537,1.09573 1.2909581,1.1892622 89.967867 0 0 1.0093,-1.46031 1.2909581,1.1892622 89.967867 0 0 -1.34538,-1.09574 z"
     id="path1183" />
  <path
     style="fill:#ffffff;stroke:#000000;stroke-width:0.396876;stroke-linecap:round;stroke-dasharray:none"
     d="m 36.986722,17.49936 a 1.2909581,1.1892622 89.967867 0 0 -1.0093,1.46032 1.2909581,1.1892622 89.967867 0 0 1.34538,1.09574 1.2909581,1.1892622 89.967867 0 0 1.00929,-1.46032 1.2909581,1.1892622 89.967867 0 0 -1.34537,-1.09574 z"
     id="path1184" />
  <path
     style="fill:#ffffff;stroke:#000000;stroke-width:0.396876;stroke-linecap:round;stroke-dasharray:none"
     d="m 35.247372,10.8164 a 1.2909581,1.1892622 89.967867 0 0 -1.0093,1.46032 1.2909581,1.1892622 89.967867 0 0 1.34537,1.09573 1.2909581,1.1892622 89.967867 0 0 1.0093,-1.46031 1.2909581,1.1892622 89.967867 0 0 -1.34537,-1.09574 z"
     id="path1185" />
  <path
     style="fill:#ffffff;stroke:#000000;stroke-width:0.396876;stroke-linecap:round;stroke-dasharray:none"
     d="m 31.879122,17.012 a 1.2909581,1.1892622 89.967867 0 0 -1.00929,1.46031 1.2909581,1.1892622 89.967867 0 0 1.34537,1.09574 1.2909581,1.1892622 89.967867 0 0 1.0093,-1.46032 1.2909581,1.1892622 89.967867 0 0 -1.34538,-1.09573 z"
     id="path1186" />
  <path
     style="fill:#ffffff;stroke:#000000;stroke-width:0.396876;stroke-linecap:round;stroke-dasharray:none"
     d="m 34.500592,4.049 a 1.2909581,1.1892622 89.967867 0 0 -1.00929,1.46032 1.2909581,1.1892622 89.967867 0 0 1.34537,1.09574 1.2909581,1.1892622 89.967867 0 0 1.0093,-1.46032 1.2909581,1.1892622 89.967867 0 0 -1.34538,-1.09574 z"
     id="path1187" />
  <path
     style="fill:#ffffff;stroke:#000000;stroke-width:0.396876;stroke-linecap:round;stroke-dasharray:none"
     d="m 27.249392,9.77397 a 1.2909581,1.1892622 89.967867 0 0 -1.00919,1.4603 1.2909581,1.1892622 89.967867 0 0 1.34527,1.09576 1.2909581,1.1892622 89.967867 0 0 1.00929,-1.46032 1.2909581,1.1892622 89.967867 0 0 -1.34537,-1.09574 z"
     id="path1188" />
  <path
     style="fill:#ffffff;stroke:#000000;stroke-width:0.396876;stroke-linecap:round;stroke-dasharray:none"
     d="m 30.875252,7.09916 a 1.2909581,1.1892622 89.967867 0 0 -1.0093,1.46032 1.2909581,1.1892622 89.967867 0 0 1.34537,1.09573 1.2909581,1.1892622 89.967867 0 0 1.0093,-1.46031 1.2909581,1.1892622 89.967867 0 0 -1.34537,-1.09574 z"
     id="path1189" />
  <path
     style="fill:#ffffff;stroke:#000000;stroke-width:0.396876;stroke-linecap:round;stroke-dasharray:none"
     d="m 26.499402,15.4291 a 8.8785808,13.353173 80.158968 0 1 -0.0509,0.21718 1.2909581,1.1892622 89.967867 0 0 -0.0195,0.38787 1.2909581,1.1892622 89.967867 0 0 1.34538,1.09573 1.2909581,1.1892622 89.967867 0 0 1.00929,-1.46031 1.2909581,1.1892622 89.967867 0 0 -1.34537,-1.09574 1.2909581,1.1892622 89.967867 0 0 -0.93886,0.85527 z"
     id="path1190" />
  <path
     style="fill:#ffffff;stroke:#000000;stroke-width:0.396876;stroke-linecap:round;stroke-dasharray:none"
     d="m 25.038302,1.61018 a 1.2909581,1.1892622 89.967867 0 0 -1.00929,1.46032 1.2909581,1.1892622 89.967867 0 0 1.34537,1.09574 1.2909581,1.1892622 89.967867 0 0 1.00929,-1.46032 1.2909581,1.1892622 89.967867 0 0 -1.34537,-1.09574 z"
     id="path1191" />
  <path
     style="fill:#ffffff;stroke:#000000;stroke-width:0.396876;stroke-linecap:round;stroke-dasharray:none"
     d="m 30.345072,0.21975 a 1.2909581,1.1892622 89.967867 0 0 -1.0093,1.46032 1.2909581,1.1892622 89.967867 0 0 1.34538,1.09573 1.2909581,1.1892622 89.967867 0 0 1.00929,-1.46031 1.2909581,1.1892622 89.967867 0 0 -1.34537,-1.09574 z"
     id="path1192" />
  <path
     style="fill:#ffffff;stroke:#000000;stroke-width:0.396876;stroke-linecap:round;stroke-dasharray:none"
     d="m 21.774842,4.57043 a 1.2909581,1.1892622 89.967867 0 0 -1.0093,1.46031 1.2909581,1.1892622 89.967867 0 0 1.34537,1.09574 1.2909581,1.1892622 89.967867 0 0 1.0093,-1.46032 1.2909581,1.1892622 89.967867 0 0 -1.34537,-1.09573 z"
     id="path1193" />
  <path
     style="fill:#ffffff;stroke:#000000;stroke-width:0.396876;stroke-linecap:round;stroke-dasharray:none"
     d="m 22.360672,11.74574 a 1.2909581,1.1892622 89.967867 0 0 -1.0093,1.46032 1.2909581,1.1892622 89.967867 0 0 1.34537,1.09573 1.2909581,1.1892622 89.967867 0 0 1.0093,-1.46031 1.2909581,1.1892622 89.967867 0 0 -1.34537,-1.09574 z"
     id="path1194" />
  <path
     style="fill:#ffffff;stroke:#000000;stroke-width:0.396876;stroke-linecap:round;stroke-dasharray:none"
     d="m 21.158482,14.09421 a 1.2909581,1.1892622 89.967867 0 0 -1.00929,1.46031 1.2909581,1.1892622 89.967867 0 0 1.34537,1.09574 1.2909581,1.1892622 89.967867 0 0 1.0093,-1.46032 1.2909581,1.1892622 89.967867 0 0 -1.34538,-1.09573 z"
     id="path1195" />
  <path
     style="fill:#ffffff;stroke:#000000;stroke-width:0.396876;stroke-linecap:round;stroke-dasharray:none"
     d="m 19.882782,8.08661 a 1.2909581,1.1892622 89.967867 0 0 -1.009299,1.46031 1.2909581,1.1892622 89.967867 0 0 1.345369,1.09574 1.2909581,1.1892622 89.967867 0 0 1.0093,-1.46032 1.2909581,1.1892622 89.967867 0 0 -1.34537,-1.09573 z"
     id="path1196" />
  <path
     style="fill:#ffffff;stroke:#000000;stroke-width:0.396876;stroke-linecap:round;stroke-dasharray:none"
     d="m 24.119292,14.32106 a 1.2909581,1.1892622 89.967867 0 0 -1.00929,1.46031 1.2909581,1.1892622 89.967867 0 0 1.34537,1.09574 1.2909581,1.1892622 89.967867 0 0 1.00929,-1.46032 1.2909581,1.1892622 89.967867 0 0 -1.34537,-1.09573 z"
     id="path1197" />
  <path
     style="fill:#ffffff;stroke:#000000;stroke-width:0.396876;stroke-linecap:round;stroke-dasharray:none"
     d="m 21.512622,8.89978 a 1.2909581,1.1892622 89.967867 0 0 -1.00929,1.46031 1.2909581,1.1892622 89.967867 0 0 1.34537,1.09574 1.2909581,1.1892622 89.967867 0 0 1.0093,-1.46032 1.2909581,1.1892622 89.967867 0 0 -1.34538,-1.09573 z"
     id="path1198" />
  <path
     style="fill:#ffffff;stroke:#000000;stroke-width:0.396876;stroke-linecap:round;stroke-dasharray:none"
     d="m 23.879252,15.58194 a 1.2909581,1.1892622 89.967867 0 0 -1.0093,1.46032 1.2909581,1.1892622 89.967867 0 0 1.34537,1.09573 1.2909581,1.1892622 89.967867 0 0 1.0093,-1.46031 1.2909581,1.1892622 89.967867 0 0 -1.34537,-1.09574 z"
     id="path1199" />
  <path
     style="fill:#ffffff;stroke:#000000;stroke-width:0.396876;stroke-linecap:round;stroke-dasharray:none"
     d="m 24.674352,18.54259 a 1.2909581,1.1892622 89.967867 0 0 -1.0093,1.46032 1.2909581,1.1892622 89.967867 0 0 1.34538,1.09573 1.2909581,1.1892622 89.967867 0 0 1.00929,-1.46031 1.2909581,1.1892622 89.967867 0 0 -1.34537,-1.09574 z"
     id="path1200" />
  <path
     style="fill:#ffffff;stroke:#000000;stroke-width:0.396876;stroke-linecap:round;stroke-dasharray:none"
     d="m 24.699092,8.2109 a 1.2909581,1.1892622 89.967867 0 0 -1.00919,1.4603 1.2909581,1.1892622 89.967867 0 0 1.34527,1.09575 1.2909581,1.1892622 89.967867 0 0 1.00929,-1.46031 1.2909581,1.1892622 89.967867 0 0 -1.34537,-1.09574 z"
     id="path1201" />
  <path
     style="fill:#ffffff;stroke:#000000;stroke-width:0.396876;stroke-linecap:round;stroke-dasharray:none"
     d="m 25.033312,11.4387 a 1.2909581,1.1892622 89.967867 0 0 -1.0092,1.4603 1.2909581,1.1892622 89.967867 0 0 1.34527,1.09576 1.2909581,1.1892622 89.967867 0 0 1.0093,-1.46032 1.2909581,1.1892622 89.967867 0 0 -1.34537,-1.09574 z"
     id="path1202" />
  <path
     style="fill:#ffffff;stroke:#000000;stroke-width:0.396876;stroke-linecap:round;stroke-dasharray:none"
     d="m 30.304652,12.09098 a 1.2909581,1.1892622 89.967867 0 0 -1.00919,1.4603 1.2909581,1.1892622 89.967867 0 0 1.34527,1.09576 1.2909581,1.1892622 89.967867 0 0 1.00929,-1.46032 1.2909581,1.1892622 89.967867 0 0 -1.34537,-1.09574 z"
     id="path1203" />
  <path
     style="fill:#ffffff;stroke:#000000;stroke-width:0.396876;stroke-linecap:round;stroke-dasharray:none"
     d="m 27.075192,5.14061 a 1.2909581,1.1892622 89.967867 0 0 -1.0092,1.46031 1.2909581,1.1892622 89.967867 0 0 1.34527,1.09575 1.2909581,1.1892622 89.967867 0 0 1.0093,-1.46032 1.2909581,1.1892622 89.967867 0 0 -1.34537,-1.09574 z"
     id="path1204" />
  <path
     style="fill:#ffffff;stroke:#000000;stroke-width:0.396876;stroke-linecap:round;stroke-dasharray:none"
     d="m 39.496742,6.69068 a 1.2909581,1.1892622 89.967867 0 0 -1.00929,1.46032 1.2909581,1.1892622 89.967867 0 0 1.34537,1.09574 1.2909581,1.1892622 89.967867 0 0 1.0093,-1.46032 1.2909581,1.1892622 89.967867 0 0 -1.34538,-1.09574 z"
     id="path1205" />
  <path
     style="fill:#ffffff;stroke:#000000;stroke-width:0.396876;stroke-linecap:round;stroke-dasharray:none"
     d="m 42.179562,12.669 a 1.2909581,1.1892622 89.967867 0 0 -1.0093,1.46032 1.2909581,1.1892622 89.967867 0 0 1.34537,1.09574 1.2909581,1.1892622 89.967867 0 0 1.0093,-1.46032 1.2909581,1.1892622 89.967867 0 0 -1.34537,-1.09574 z"
     id="path1206" />
  <circle
     style="fill:#ff0000;stroke-width:0.529168;stroke-linecap:round;stroke-miterlimit:4.1;stroke-dasharray:none"
     id="attach-point"
     cx="16.376143"
     cy="20.121441"
     inkscape:label="attach-point"
     r="0.83869553" />
</svg>
