<?xml version="1.0" encoding="UTF-8" standalone="no"?>
<!-- Created with Inkscape (http://www.inkscape.org/) -->

<svg
   width="54.170677mm"
   height="41.315716mm"
   viewBox="0 0 54.170677 41.315716"
   version="1.1"
   id="svg1"
   xmlns="http://www.w3.org/2000/svg"
   xmlns:svg="http://www.w3.org/2000/svg">
  <defs
     id="defs1" />
  <path
     id="path451"
     style="fill:#ffffff;stroke:#000000;stroke-width:0.396875;stroke-linecap:square;stroke-linejoin:bevel;stroke-dasharray:none"
     d="m 19.826388,3.35901 c 0,1.74553 1.41373,3.16057 3.1577,3.16057 1.74398,0 3.15771,-1.41504 3.15771,-3.16057 0,-1.74554 -1.41378,-3.16057 -3.15771,-3.16057 -1.74392,0 -3.1577,1.41503 -3.1577,3.16057 z" />
  <path
     id="path452"
     style="fill:#000000;stroke:none;stroke-width:0.79375;stroke-linecap:square;stroke-linejoin:bevel;stroke-dasharray:none"
     d="m 21.136148,5.92088 a 3.1577068,3.1605697 0 0 0 2.1435,0.0492 3.1577068,3.1605697 0 0 0 1.98961,-4.00155 3.1577068,3.1605697 0 0 0 -1.15701,-1.55658 3.1577068,3.1605697 0 0 1 1.86566,1.94201 3.1577068,3.1605697 0 0 1 -1.98966,4.00155 3.1577068,3.1605697 0 0 1 -2.8521,-0.43465 z" />
  <path
     id="path453"
     style="fill:#ffffff;stroke:#000000;stroke-width:0.396875;stroke-linecap:square;stroke-linejoin:bevel;stroke-dasharray:none"
     d="m 14.542298,15.5863 c 0,1.74553 1.41378,3.16056 3.15771,3.16056 1.74393,0 3.1577,-1.41503 3.1577,-3.16056 0,-1.74554 -1.41373,-3.16058 -3.1577,-3.16058 -1.74398,0 -3.15771,1.41504 -3.15771,3.16058 z" />
  <path
     id="path454"
     style="fill:#000000;stroke:none;stroke-width:0.79375;stroke-linecap:square;stroke-linejoin:bevel;stroke-dasharray:none"
     d="m 15.852068,18.14816 a 3.1577068,3.1605697 0 0 0 2.1435,0.0492 3.1577068,3.1605697 0 0 0 1.98961,-4.00155 3.1577068,3.1605697 0 0 0 -1.15701,-1.55658 3.1577068,3.1605697 0 0 1 1.86565,1.94201 3.1577068,3.1605697 0 0 1 -1.98965,4.00155 3.1577068,3.1605697 0 0 1 -2.8521,-0.43465 z" />
  <path
     id="path455"
     style="fill:#ffffff;stroke:#000000;stroke-width:0.396875;stroke-linecap:square;stroke-linejoin:bevel;stroke-dasharray:none"
     d="m 7.495537,29.34578 a 3.1577068,3.1605697 0 0 0 3.157704,3.16057 3.1577068,3.1605697 0 0 0 3.157707,-3.16057 3.1577068,3.1605697 0 0 0 -3.157707,-3.16057 3.1577068,3.1605697 0 0 0 -3.157704,3.16057 z" />
  <path
     id="path456"
     style="fill:#000000;stroke:none;stroke-width:0.79375;stroke-linecap:square;stroke-linejoin:bevel;stroke-dasharray:none"
     d="m 8.805301,31.90765 a 3.1577068,3.1605697 0 0 0 2.143501,0.0492 3.1577068,3.1605697 0 0 0 1.989606,-4.00155 3.1577068,3.1605697 0 0 0 -1.15701,-1.55658 3.1577068,3.1605697 0 0 1 1.86566,1.94201 3.1577068,3.1605697 0 0 1 -1.98966,4.00154 3.1577068,3.1605697 0 0 1 -2.852097,-0.43464 z" />
  <path
     id="path457"
     style="fill:#ffffff;stroke:#000000;stroke-width:0.396875;stroke-linecap:square;stroke-linejoin:bevel;stroke-dasharray:none"
     d="m 41.754258,11.65501 a 3.1577068,3.1605697 0 0 0 3.1577,3.16057 3.1577068,3.1605697 0 0 0 3.1577,-3.16057 3.1577068,3.1605697 0 0 0 -3.1577,-3.16057 3.1577068,3.1605697 0 0 0 -3.1577,3.16057 z" />
  <path
     id="path458"
     style="fill:#000000;stroke:none;stroke-width:0.79375;stroke-linecap:square;stroke-linejoin:bevel;stroke-dasharray:none"
     d="m 43.064018,14.21688 a 3.1577068,3.1605697 0 0 0 2.1435,0.0492 3.1577068,3.1605697 0 0 0 1.98961,-4.00155 3.1577068,3.1605697 0 0 0 -1.15701,-1.55658 3.1577068,3.1605697 0 0 1 1.86566,1.94201 3.1577068,3.1605697 0 0 1 -1.98966,4.00155 3.1577068,3.1605697 0 0 1 -2.8521,-0.43465 z" />
  <path
     id="path459"
     style="fill:#ffffff;stroke:#000000;stroke-width:0.396875;stroke-linecap:square;stroke-linejoin:bevel;stroke-dasharray:none"
     d="m 36.799178,28.74956 a 3.1577068,3.1605697 0 0 0 3.15771,3.16057 3.1577068,3.1605697 0 0 0 3.1577,-3.16057 3.1577068,3.1605697 0 0 0 -3.1577,-3.16057 3.1577068,3.1605697 0 0 0 -3.15771,3.16057 z" />
  <path
     id="path460"
     style="fill:#000000;stroke:none;stroke-width:0.79375;stroke-linecap:square;stroke-linejoin:bevel;stroke-dasharray:none"
     d="m 38.108948,31.31142 a 3.1577068,3.1605697 0 0 0 2.1435,0.0492 3.1577068,3.1605697 0 0 0 1.98961,-4.00154 3.1577068,3.1605697 0 0 0 -1.15701,-1.55659 3.1577068,3.1605697 0 0 1 1.86565,1.94201 3.1577068,3.1605697 0 0 1 -1.98966,4.00155 3.1577068,3.1605697 0 0 1 -2.85209,-0.43465 z" />
  <path
     id="path461"
     style="fill:#ffffff;stroke:#000000;stroke-width:0.396875;stroke-linecap:square;stroke-linejoin:bevel;stroke-dasharray:none"
     d="m 29.433098,12.45561 c 0,1.74554 1.41378,3.16057 3.15771,3.16057 1.74393,0 3.1577,-1.41503 3.1577,-3.16057 0,-1.74553 -1.41373,-3.16057 -3.1577,-3.16057 -1.74398,0 -3.15771,1.41504 -3.15771,3.16057 z" />
  <path
     id="path462"
     style="fill:#000000;stroke:none;stroke-width:0.79375;stroke-linecap:square;stroke-linejoin:bevel;stroke-dasharray:none"
     d="m 30.742868,15.01748 a 3.1577068,3.1605697 0 0 0 2.1435,0.0492 3.1577068,3.1605697 0 0 0 1.98961,-4.00155 3.1577068,3.1605697 0 0 0 -1.15701,-1.55658 3.1577068,3.1605697 0 0 1 1.86565,1.94201 3.1577068,3.1605697 0 0 1 -1.98965,4.00155 3.1577068,3.1605697 0 0 1 -2.8521,-0.43465 z" />
  <path
     id="path463"
     style="fill:#ffffff;stroke:#000000;stroke-width:0.396875;stroke-linecap:square;stroke-linejoin:bevel;stroke-dasharray:none"
     d="m 47.656828,28.64168 a 3.1577068,3.1605697 0 0 0 3.1577,3.16057 3.1577068,3.1605697 0 0 0 3.15771,-3.16057 3.1577068,3.1605697 0 0 0 -3.15771,-3.16057 3.1577068,3.1605697 0 0 0 -3.1577,3.16057 z" />
  <path
     id="path464"
     style="fill:#000000;stroke:none;stroke-width:0.396875;stroke-linecap:square;stroke-linejoin:bevel;stroke-dasharray:none"
     d="m 48.966588,31.20354 a 3.1577068,3.1605697 0 0 0 2.1435,0.0492 3.1577068,3.1605697 0 0 0 1.98961,-4.00154 3.1577068,3.1605697 0 0 0 -1.15701,-1.55659 3.1577068,3.1605697 0 0 1 1.86566,1.94201 3.1577068,3.1605697 0 0 1 -1.98966,4.00155 3.1577068,3.1605697 0 0 1 -2.8521,-0.43465 z" />
  <path
     id="path465"
     style="fill:#ffffff;stroke:#000000;stroke-width:0.396875;stroke-linecap:square;stroke-linejoin:bevel;stroke-dasharray:none"
     d="m 18.943418,37.95671 a 3.1577068,3.1605697 0 0 0 3.1577,3.16057 3.1577068,3.1605697 0 0 0 3.1577,-3.16057 3.1577068,3.1605697 0 0 0 -3.1577,-3.16057 3.1577068,3.1605697 0 0 0 -3.1577,3.16057 z" />
  <path
     id="path466"
     style="fill:#000000;stroke:none;stroke-width:0.396875;stroke-linecap:square;stroke-linejoin:bevel;stroke-dasharray:none"
     d="m 20.253178,40.51858 a 3.1577068,3.1605697 0 0 0 2.1435,0.0492 3.1577068,3.1605697 0 0 0 1.98961,-4.00155 3.1577068,3.1605697 0 0 0 -1.15701,-1.55658 3.1577068,3.1605697 0 0 1 1.86566,1.94201 3.1577068,3.1605697 0 0 1 -1.98966,4.00154 3.1577068,3.1605697 0 0 1 -2.8521,-0.43464 z" />
  <path
     id="path467"
     style="fill:#ffffff;stroke:#000000;stroke-width:0.396875;stroke-linecap:square;stroke-linejoin:bevel;stroke-dasharray:none"
     d="M 0.198437,15.5863 A 3.1577068,3.1605697 0 0 0 3.356141,18.74686 3.1577068,3.1605697 0 0 0 6.513845,15.5863 3.1577068,3.1605697 0 0 0 3.356141,12.42572 3.1577068,3.1605697 0 0 0 0.198437,15.5863 Z" />
  <path
     id="path468"
     style="fill:#000000;stroke:none;stroke-width:0.79375;stroke-linecap:square;stroke-linejoin:bevel;stroke-dasharray:none"
     d="m 1.508201,18.14816 a 3.1577068,3.1605697 0 0 0 2.143502,0.0492 3.1577068,3.1605697 0 0 0 1.989609,-4.00155 3.1577068,3.1605697 0 0 0 -1.157009,-1.55658 3.1577068,3.1605697 0 0 1 1.865655,1.94201 3.1577068,3.1605697 0 0 1 -1.98966,4.00155 3.1577068,3.1605697 0 0 1 -2.852097,-0.43465 z" />
  <circle
     style="fill:#ff0000;stroke-width:0.529168;stroke-linecap:round;stroke-miterlimit:4.1;stroke-dasharray:none"
     id="attach-point"
     cx="27.81588"
     cy="33.079754"
     r="0.83869553" />
</svg>
